<ttFont>
    <TTGlyph name="A" xMin="8" yMin="0" xMax="490" yMax="621">
      <contour>
        <pt x="490" y="0" on="1"/>
        <pt x="323" y="0" on="1"/>
        <pt x="304" y="98" on="1"/>
        <pt x="186" y="98" on="1"/>
        <pt x="167" y="0" on="1"/>
        <pt x="8" y="0" on="1"/>
        <pt x="122" y="621" on="1"/>
        <pt x="376" y="621" on="1"/>
      </contour>
      <contour>
        <pt x="285" y="215" on="1"/>
        <pt x="250" y="437" on="1"/>
        <pt x="243" y="437" on="1"/>
        <pt x="208" y="215" on="1"/>
      </contour>
    </TTGlyph>
    <TTGlyph name="AE" xMin="0" yMin="0" xMax="684" yMax="621">
      <contour>
        <pt x="674" y="0" on="1"/>
        <pt x="338" y="0" on="1"/>
        <pt x="338" y="98" on="1"/>
        <pt x="206" y="98" on="1"/>
        <pt x="168" y="0" on="1"/>
        <pt x="0" y="0" on="1"/>
        <pt x="260" y="621" on="1"/>
        <pt x="684" y="621" on="1"/>
        <pt x="674" y="468" on="1"/>
        <pt x="509" y="468" on="1"/>
        <pt x="509" y="375" on="1"/>
        <pt x="652" y="375" on="1"/>
        <pt x="652" y="243" on="1"/>
        <pt x="509" y="243" on="1"/>
        <pt x="509" y="140" on="1"/>
        <pt x="684" y="140" on="1"/>
      </contour>
      <contour>
        <pt x="338" y="215" on="1"/>
        <pt x="338" y="437" on="1"/>
        <pt x="331" y="437" on="1"/>
        <pt x="250" y="215" on="1"/>
      </contour>
    </TTGlyph>
    <TTGlyph name="Aacute" xMin="8" yMin="0" xMax="490" yMax="797">
      <contour>
        <pt x="490" y="0" on="1"/>
        <pt x="323" y="0" on="1"/>
        <pt x="304" y="98" on="1"/>
        <pt x="186" y="98" on="1"/>
        <pt x="167" y="0" on="1"/>
        <pt x="8" y="0" on="1"/>
        <pt x="122" y="621" on="1"/>
        <pt x="376" y="621" on="1"/>
      </contour>
      <contour>
        <pt x="285" y="215" on="1"/>
        <pt x="250" y="437" on="1"/>
        <pt x="243" y="437" on="1"/>
        <pt x="208" y="215" on="1"/>
      </contour>
      <contour>
        <pt x="383" y="797" on="1"/>
        <pt x="281" y="664" on="1"/>
        <pt x="171" y="664" on="1"/>
        <pt x="231" y="797" on="1"/>
      </contour>
    </TTGlyph>
    <TTGlyph name="Acircumflex" xMin="8" yMin="0" xMax="490" yMax="792">
      <contour>
        <pt x="490" y="0" on="1"/>
        <pt x="323" y="0" on="1"/>
        <pt x="304" y="98" on="1"/>
        <pt x="186" y="98" on="1"/>
        <pt x="167" y="0" on="1"/>
        <pt x="8" y="0" on="1"/>
        <pt x="122" y="621" on="1"/>
        <pt x="376" y="621" on="1"/>
      </contour>
      <contour>
        <pt x="285" y="215" on="1"/>
        <pt x="250" y="437" on="1"/>
        <pt x="243" y="437" on="1"/>
        <pt x="208" y="215" on="1"/>
      </contour>
      <contour>
        <pt x="318" y="792" on="1"/>
        <pt x="381" y="664" on="1"/>
        <pt x="280" y="664" on="1"/>
        <pt x="247" y="717" on="1"/>
        <pt x="214" y="664" on="1"/>
        <pt x="112" y="664" on="1"/>
        <pt x="175" y="792" on="1"/>
      </contour>
    </TTGlyph>
    <TTGlyph name="Adieresis" xMin="8" yMin="0" xMax="490" yMax="774">
      <contour>
        <pt x="490" y="0" on="1"/>
        <pt x="323" y="0" on="1"/>
        <pt x="304" y="98" on="1"/>
        <pt x="186" y="98" on="1"/>
        <pt x="167" y="0" on="1"/>
        <pt x="8" y="0" on="1"/>
        <pt x="122" y="621" on="1"/>
        <pt x="376" y="621" on="1"/>
      </contour>
      <contour>
        <pt x="285" y="215" on="1"/>
        <pt x="250" y="437" on="1"/>
        <pt x="243" y="437" on="1"/>
        <pt x="208" y="215" on="1"/>
      </contour>
      <contour>
        <pt x="133" y="663" on="0"/>
        <pt x="102" y="693" on="0"/>
        <pt x="102" y="744" on="0"/>
        <pt x="133" y="774" on="0"/>
        <pt x="189" y="774" on="0"/>
        <pt x="222" y="745" on="0"/>
        <pt x="222" y="719" on="1"/>
        <pt x="222" y="663" on="0"/>
        <pt x="159" y="663" on="1"/>
      </contour>
      <contour>
        <pt x="294" y="663" on="0"/>
        <pt x="262" y="693" on="0"/>
        <pt x="262" y="744" on="0"/>
        <pt x="294" y="774" on="0"/>
        <pt x="351" y="774" on="0"/>
        <pt x="383" y="745" on="0"/>
        <pt x="383" y="693" on="0"/>
        <pt x="351" y="663" on="0"/>
      </contour>
    </TTGlyph>
    <TTGlyph name="Agrave" xMin="8" yMin="0" xMax="490" yMax="797">
      <contour>
        <pt x="490" y="0" on="1"/>
        <pt x="323" y="0" on="1"/>
        <pt x="304" y="98" on="1"/>
        <pt x="186" y="98" on="1"/>
        <pt x="167" y="0" on="1"/>
        <pt x="8" y="0" on="1"/>
        <pt x="122" y="621" on="1"/>
        <pt x="376" y="621" on="1"/>
      </contour>
      <contour>
        <pt x="285" y="215" on="1"/>
        <pt x="250" y="437" on="1"/>
        <pt x="243" y="437" on="1"/>
        <pt x="208" y="215" on="1"/>
      </contour>
      <contour>
        <pt x="215" y="664" on="1"/>
        <pt x="112" y="797" on="1"/>
        <pt x="262" y="797" on="1"/>
        <pt x="324" y="664" on="1"/>
      </contour>
    </TTGlyph>
    <TTGlyph name="Aring" xMin="8" yMin="0" xMax="490" yMax="807">
      <contour>
        <pt x="490" y="0" on="1"/>
        <pt x="323" y="0" on="1"/>
        <pt x="304" y="98" on="1"/>
        <pt x="186" y="98" on="1"/>
        <pt x="167" y="0" on="1"/>
        <pt x="8" y="0" on="1"/>
        <pt x="122" y="621" on="1"/>
        <pt x="376" y="621" on="1"/>
      </contour>
      <contour>
        <pt x="285" y="215" on="1"/>
        <pt x="250" y="437" on="1"/>
        <pt x="243" y="437" on="1"/>
        <pt x="208" y="215" on="1"/>
      </contour>
      <contour>
        <pt x="164" y="766" on="0"/>
        <pt x="210" y="807" on="0"/>
        <pt x="284" y="807" on="0"/>
        <pt x="328" y="768" on="0"/>
        <pt x="328" y="698" on="0"/>
        <pt x="284" y="657" on="0"/>
        <pt x="210" y="657" on="0"/>
        <pt x="164" y="697" on="0"/>
      </contour>
      <contour>
        <pt x="267" y="761" on="0"/>
        <pt x="225" y="761" on="0"/>
        <pt x="225" y="705" on="0"/>
        <pt x="267" y="705" on="0"/>
      </contour>
    </TTGlyph>
    <TTGlyph name="Atilde" xMin="8" yMin="0" xMax="490" yMax="797">
      <contour>
        <pt x="490" y="0" on="1"/>
        <pt x="323" y="0" on="1"/>
        <pt x="304" y="98" on="1"/>
        <pt x="186" y="98" on="1"/>
        <pt x="167" y="0" on="1"/>
        <pt x="8" y="0" on="1"/>
        <pt x="122" y="621" on="1"/>
        <pt x="376" y="621" on="1"/>
      </contour>
      <contour>
        <pt x="285" y="215" on="1"/>
        <pt x="250" y="437" on="1"/>
        <pt x="243" y="437" on="1"/>
        <pt x="208" y="215" on="1"/>
      </contour>
      <contour>
        <pt x="386" y="797" on="1"/>
        <pt x="386" y="789" on="1"/>
        <pt x="386" y="729" on="0"/>
        <pt x="352" y="666" on="0"/>
        <pt x="300" y="666" on="1"/>
        <pt x="269" y="666" on="0"/>
        <pt x="224" y="681" on="1"/>
        <pt x="201" y="689" on="1"/>
        <pt x="201" y="655" on="1"/>
        <pt x="98" y="655" on="1"/>
        <pt x="98" y="665" on="1"/>
        <pt x="98" y="727" on="0"/>
        <pt x="134" y="788" on="0"/>
        <pt x="179" y="788" on="1"/>
        <pt x="197" y="788" on="0"/>
        <pt x="264" y="770" on="1"/>
        <pt x="283" y="766" on="1"/>
        <pt x="283" y="797" on="1"/>
      </contour>
    </TTGlyph>
    <TTGlyph name="B" xMin="44" yMin="0" xMax="481" yMax="621">
      <contour>
        <pt x="481" y="179" on="1"/>
        <pt x="481" y="0" on="0"/>
        <pt x="289" y="0" on="1"/>
        <pt x="44" y="0" on="1"/>
        <pt x="44" y="621" on="1"/>
        <pt x="284" y="621" on="1"/>
        <pt x="379" y="621" on="0"/>
        <pt x="471" y="544" on="0"/>
        <pt x="471" y="376" on="0"/>
        <pt x="402" y="332" on="1"/>
        <pt x="402" y="326" on="1"/>
        <pt x="481" y="295" on="0"/>
      </contour>
      <contour>
        <pt x="279" y="111" on="0"/>
        <pt x="300" y="138" on="0"/>
        <pt x="300" y="223" on="0"/>
        <pt x="278" y="258" on="0"/>
        <pt x="249" y="258" on="1"/>
        <pt x="217" y="258" on="1"/>
        <pt x="217" y="111" on="1"/>
        <pt x="249" y="111" on="1"/>
      </contour>
      <contour>
        <pt x="273" y="355" on="0"/>
        <pt x="291" y="383" on="0"/>
        <pt x="291" y="454" on="0"/>
        <pt x="272" y="483" on="0"/>
        <pt x="249" y="483" on="1"/>
        <pt x="217" y="483" on="1"/>
        <pt x="217" y="355" on="1"/>
        <pt x="250" y="355" on="1"/>
      </contour>
    </TTGlyph>
    <TTGlyph name="C" xMin="24" yMin="-10" xMax="412" yMax="631">
      <contour>
        <pt x="198" y="216" on="0"/>
        <pt x="233" y="141" on="0"/>
        <pt x="313" y="141" on="0"/>
        <pt x="386" y="160" on="1"/>
        <pt x="412" y="19" on="1"/>
        <pt x="333" y="-10" on="0"/>
        <pt x="253" y="-10" on="1"/>
        <pt x="133" y="-10" on="0"/>
        <pt x="24" y="149" on="0"/>
        <pt x="24" y="464" on="0"/>
        <pt x="138" y="631" on="0"/>
        <pt x="267" y="631" on="1"/>
        <pt x="343" y="631" on="0"/>
        <pt x="412" y="599" on="1"/>
        <pt x="385" y="444" on="1"/>
        <pt x="307" y="470" on="0"/>
        <pt x="276" y="470" on="1"/>
        <pt x="232" y="470" on="0"/>
        <pt x="198" y="393" on="0"/>
      </contour>
    </TTGlyph>
    <TTGlyph name="Ccedilla" xMin="25" yMin="-169" xMax="459" yMax="644">
      <contour>
        <pt x="335" y="-41" on="0"/>
        <pt x="366" y="-71" on="0"/>
        <pt x="366" y="-127" on="0"/>
        <pt x="315" y="-169" on="0"/>
        <pt x="214" y="-169" on="0"/>
        <pt x="171" y="-137" on="1"/>
        <pt x="207" y="-67" on="1"/>
        <pt x="242" y="-100" on="0"/>
        <pt x="270" y="-100" on="1"/>
        <pt x="278" y="-100" on="0"/>
        <pt x="278" y="-85" on="0"/>
        <pt x="267" y="-79" on="1"/>
        <pt x="246" y="-67" on="1"/>
        <pt x="225" y="-54" on="0"/>
        <pt x="225" y="-18" on="0"/>
        <pt x="237" y="-6" on="1"/>
        <pt x="142" y="9" on="0"/>
        <pt x="25" y="169" on="0"/>
        <pt x="25" y="456" on="0"/>
        <pt x="176" y="644" on="0"/>
        <pt x="402" y="644" on="0"/>
        <pt x="458" y="585" on="1"/>
        <pt x="402" y="435" on="1"/>
        <pt x="383" y="454" on="0"/>
        <pt x="371" y="464" on="1"/>
        <pt x="338" y="493" on="0"/>
        <pt x="253" y="493" on="0"/>
        <pt x="201" y="391" on="0"/>
        <pt x="201" y="235" on="0"/>
        <pt x="254" y="135" on="0"/>
        <pt x="298" y="135" on="1"/>
        <pt x="357" y="135" on="0"/>
        <pt x="403" y="186" on="1"/>
        <pt x="459" y="44" on="1"/>
        <pt x="399" y="-3" on="0"/>
        <pt x="309" y="-9" on="1"/>
        <pt x="304" y="-16" on="0"/>
        <pt x="304" y="-26" on="0"/>
      </contour>
    </TTGlyph>
    <TTGlyph name="D" xMin="44" yMin="0" xMax="506" yMax="621">
      <contour>
        <pt x="506" y="324" on="1"/>
        <pt x="506" y="0" on="0"/>
        <pt x="250" y="0" on="1"/>
        <pt x="44" y="0" on="1"/>
        <pt x="44" y="621" on="1"/>
        <pt x="254" y="621" on="1"/>
        <pt x="391" y="621" on="0"/>
        <pt x="506" y="468" on="0"/>
      </contour>
      <contour>
        <pt x="300" y="144" on="0"/>
        <pt x="331" y="219" on="0"/>
        <pt x="331" y="396" on="0"/>
        <pt x="298" y="470" on="0"/>
        <pt x="244" y="470" on="1"/>
        <pt x="214" y="470" on="1"/>
        <pt x="214" y="144" on="1"/>
        <pt x="247" y="144" on="1"/>
      </contour>
    </TTGlyph>
    <TTGlyph name="Delta" xMin="8" yMin="0" xMax="490" yMax="621">
      <contour>
        <pt x="8" y="0" on="1"/>
        <pt x="124" y="621" on="1"/>
        <pt x="376" y="621" on="1"/>
        <pt x="490" y="0" on="1"/>
      </contour>
      <contour>
        <pt x="197" y="150" on="1"/>
        <pt x="299" y="150" on="1"/>
        <pt x="252" y="433" on="1"/>
        <pt x="243" y="433" on="1"/>
      </contour>
    </TTGlyph>
    <TTGlyph name="E" xMin="44" yMin="0" xMax="390" yMax="621">
      <contour>
        <pt x="380" y="0" on="1"/>
        <pt x="44" y="0" on="1"/>
        <pt x="44" y="621" on="1"/>
        <pt x="390" y="621" on="1"/>
        <pt x="380" y="468" on="1"/>
        <pt x="215" y="468" on="1"/>
        <pt x="215" y="375" on="1"/>
        <pt x="358" y="375" on="1"/>
        <pt x="358" y="243" on="1"/>
        <pt x="215" y="243" on="1"/>
        <pt x="215" y="140" on="1"/>
        <pt x="390" y="140" on="1"/>
      </contour>
    </TTGlyph>
    <TTGlyph name="Eacute" xMin="44" yMin="0" xMax="390" yMax="797">
      <contour>
        <pt x="380" y="0" on="1"/>
        <pt x="44" y="0" on="1"/>
        <pt x="44" y="621" on="1"/>
        <pt x="390" y="621" on="1"/>
        <pt x="380" y="468" on="1"/>
        <pt x="215" y="468" on="1"/>
        <pt x="215" y="375" on="1"/>
        <pt x="358" y="375" on="1"/>
        <pt x="358" y="243" on="1"/>
        <pt x="215" y="243" on="1"/>
        <pt x="215" y="140" on="1"/>
        <pt x="390" y="140" on="1"/>
      </contour>
      <contour>
        <pt x="360" y="797" on="1"/>
        <pt x="258" y="664" on="1"/>
        <pt x="148" y="664" on="1"/>
        <pt x="208" y="797" on="1"/>
      </contour>
    </TTGlyph>
    <TTGlyph name="Ecircumflex" xMin="44" yMin="0" xMax="390" yMax="792">
      <contour>
        <pt x="380" y="0" on="1"/>
        <pt x="44" y="0" on="1"/>
        <pt x="44" y="621" on="1"/>
        <pt x="390" y="621" on="1"/>
        <pt x="380" y="468" on="1"/>
        <pt x="215" y="468" on="1"/>
        <pt x="215" y="375" on="1"/>
        <pt x="358" y="375" on="1"/>
        <pt x="358" y="243" on="1"/>
        <pt x="215" y="243" on="1"/>
        <pt x="215" y="140" on="1"/>
        <pt x="390" y="140" on="1"/>
      </contour>
      <contour>
        <pt x="283" y="792" on="1"/>
        <pt x="346" y="664" on="1"/>
        <pt x="245" y="664" on="1"/>
        <pt x="212" y="717" on="1"/>
        <pt x="179" y="664" on="1"/>
        <pt x="77" y="664" on="1"/>
        <pt x="140" y="792" on="1"/>
      </contour>
    </TTGlyph>
    <TTGlyph name="Edieresis" xMin="44" yMin="0" xMax="390" yMax="774">
      <contour>
        <pt x="380" y="0" on="1"/>
        <pt x="44" y="0" on="1"/>
        <pt x="44" y="621" on="1"/>
        <pt x="390" y="621" on="1"/>
        <pt x="380" y="468" on="1"/>
        <pt x="215" y="468" on="1"/>
        <pt x="215" y="375" on="1"/>
        <pt x="358" y="375" on="1"/>
        <pt x="358" y="243" on="1"/>
        <pt x="215" y="243" on="1"/>
        <pt x="215" y="140" on="1"/>
        <pt x="390" y="140" on="1"/>
      </contour>
      <contour>
        <pt x="105" y="663" on="0"/>
        <pt x="74" y="693" on="0"/>
        <pt x="74" y="744" on="0"/>
        <pt x="105" y="774" on="0"/>
        <pt x="161" y="774" on="0"/>
        <pt x="194" y="745" on="0"/>
        <pt x="194" y="719" on="1"/>
        <pt x="194" y="663" on="0"/>
        <pt x="131" y="663" on="1"/>
      </contour>
      <contour>
        <pt x="266" y="663" on="0"/>
        <pt x="234" y="693" on="0"/>
        <pt x="234" y="744" on="0"/>
        <pt x="266" y="774" on="0"/>
        <pt x="323" y="774" on="0"/>
        <pt x="355" y="745" on="0"/>
        <pt x="355" y="693" on="0"/>
        <pt x="323" y="663" on="0"/>
      </contour>
    </TTGlyph>
    <TTGlyph name="Egrave" xMin="44" yMin="0" xMax="390" yMax="797">
      <contour>
        <pt x="380" y="0" on="1"/>
        <pt x="44" y="0" on="1"/>
        <pt x="44" y="621" on="1"/>
        <pt x="390" y="621" on="1"/>
        <pt x="380" y="468" on="1"/>
        <pt x="215" y="468" on="1"/>
        <pt x="215" y="375" on="1"/>
        <pt x="358" y="375" on="1"/>
        <pt x="358" y="243" on="1"/>
        <pt x="215" y="243" on="1"/>
        <pt x="215" y="140" on="1"/>
        <pt x="390" y="140" on="1"/>
      </contour>
      <contour>
        <pt x="182" y="664" on="1"/>
        <pt x="79" y="797" on="1"/>
        <pt x="229" y="797" on="1"/>
        <pt x="291" y="664" on="1"/>
      </contour>
    </TTGlyph>
    <TTGlyph name="Eth" xMin="-11" yMin="0" xMax="506" yMax="621">
      <contour>
        <pt x="506" y="324" on="1"/>
        <pt x="506" y="0" on="0"/>
        <pt x="250" y="0" on="1"/>
        <pt x="44" y="0" on="1"/>
        <pt x="44" y="250" on="1"/>
        <pt x="-11" y="250" on="1"/>
        <pt x="-11" y="368" on="1"/>
        <pt x="44" y="368" on="1"/>
        <pt x="44" y="621" on="1"/>
        <pt x="254" y="621" on="1"/>
        <pt x="391" y="621" on="0"/>
        <pt x="506" y="468" on="0"/>
      </contour>
      <contour>
        <pt x="269" y="250" on="1"/>
        <pt x="214" y="250" on="1"/>
        <pt x="214" y="144" on="1"/>
        <pt x="247" y="144" on="1"/>
        <pt x="300" y="144" on="0"/>
        <pt x="331" y="219" on="0"/>
        <pt x="331" y="396" on="0"/>
        <pt x="298" y="470" on="0"/>
        <pt x="244" y="470" on="1"/>
        <pt x="214" y="470" on="1"/>
        <pt x="214" y="368" on="1"/>
        <pt x="269" y="368" on="1"/>
      </contour>
    </TTGlyph>
    <TTGlyph name="Euro" xMin="24" yMin="-10" xMax="464" yMax="631">
      <contour>
        <pt x="24" y="416" on="1"/>
        <pt x="84" y="416" on="1"/>
        <pt x="119" y="631" on="0"/>
        <pt x="319" y="631" on="1"/>
        <pt x="395" y="631" on="0"/>
        <pt x="464" y="599" on="1"/>
        <pt x="437" y="444" on="1"/>
        <pt x="359" y="470" on="0"/>
        <pt x="328" y="470" on="1"/>
        <pt x="277" y="470" on="0"/>
        <pt x="261" y="416" on="1"/>
        <pt x="433" y="416" on="1"/>
        <pt x="423" y="317" on="1"/>
        <pt x="250" y="317" on="1"/>
        <pt x="250" y="286" on="1"/>
        <pt x="421" y="286" on="1"/>
        <pt x="415" y="189" on="1"/>
        <pt x="263" y="189" on="1"/>
        <pt x="280" y="141" on="0"/>
        <pt x="331" y="141" on="1"/>
        <pt x="365" y="141" on="0"/>
        <pt x="438" y="160" on="1"/>
        <pt x="464" y="19" on="1"/>
        <pt x="385" y="-10" on="0"/>
        <pt x="305" y="-10" on="1"/>
        <pt x="121" y="-10" on="0"/>
        <pt x="85" y="189" on="1"/>
        <pt x="24" y="189" on="1"/>
        <pt x="24" y="286" on="1"/>
        <pt x="78" y="286" on="1"/>
        <pt x="78" y="317" on="1"/>
        <pt x="24" y="317" on="1"/>
      </contour>
    </TTGlyph>
    <TTGlyph name="F" xMin="44" yMin="0" xMax="390" yMax="621">
      <contour>
        <pt x="380" y="468" on="1"/>
        <pt x="215" y="468" on="1"/>
        <pt x="215" y="375" on="1"/>
        <pt x="348" y="375" on="1"/>
        <pt x="348" y="243" on="1"/>
        <pt x="215" y="243" on="1"/>
        <pt x="215" y="0" on="1"/>
        <pt x="44" y="0" on="1"/>
        <pt x="44" y="621" on="1"/>
        <pt x="390" y="621" on="1"/>
      </contour>
    </TTGlyph>
    <TTGlyph name="G" xMin="26" yMin="-10" xMax="479" yMax="631">
      <contour>
        <pt x="418" y="436" on="1"/>
        <pt x="322" y="465" on="0"/>
        <pt x="233" y="465" on="0"/>
        <pt x="200" y="387" on="0"/>
        <pt x="200" y="218" on="0"/>
        <pt x="231" y="141" on="0"/>
        <pt x="279" y="141" on="1"/>
        <pt x="293" y="141" on="0"/>
        <pt x="333" y="149" on="1"/>
        <pt x="333" y="225" on="1"/>
        <pt x="288" y="225" on="1"/>
        <pt x="288" y="343" on="1"/>
        <pt x="479" y="343" on="1"/>
        <pt x="479" y="0" on="1"/>
        <pt x="361" y="0" on="1"/>
        <pt x="345" y="32" on="1"/>
        <pt x="341" y="32" on="1"/>
        <pt x="324" y="18" on="0"/>
        <pt x="314" y="11" on="1"/>
        <pt x="286" y="-10" on="0"/>
        <pt x="235" y="-10" on="1"/>
        <pt x="26" y="-10" on="0"/>
        <pt x="26" y="306" on="1"/>
        <pt x="26" y="464" on="0"/>
        <pt x="136" y="631" on="0"/>
        <pt x="266" y="631" on="1"/>
        <pt x="370" y="631" on="0"/>
        <pt x="445" y="599" on="1"/>
      </contour>
    </TTGlyph>
    <TTGlyph name="H" xMin="44" yMin="0" xMax="503" yMax="621">
      <contour>
        <pt x="503" y="0" on="1"/>
        <pt x="333" y="0" on="1"/>
        <pt x="333" y="235" on="1"/>
        <pt x="216" y="235" on="1"/>
        <pt x="216" y="0" on="1"/>
        <pt x="44" y="0" on="1"/>
        <pt x="44" y="621" on="1"/>
        <pt x="216" y="621" on="1"/>
        <pt x="216" y="377" on="1"/>
        <pt x="333" y="377" on="1"/>
        <pt x="333" y="621" on="1"/>
        <pt x="503" y="621" on="1"/>
      </contour>
    </TTGlyph>
    <TTGlyph name="I" xMin="54" yMin="0" xMax="224" yMax="621">
      <contour>
        <pt x="224" y="0" on="1"/>
        <pt x="54" y="0" on="1"/>
        <pt x="54" y="621" on="1"/>
        <pt x="224" y="621" on="1"/>
      </contour>
    </TTGlyph>
    <TTGlyph name="IJ" xMin="54" yMin="-10" xMax="518" yMax="621">
      <contour>
        <pt x="224" y="0" on="1"/>
        <pt x="54" y="0" on="1"/>
        <pt x="54" y="621" on="1"/>
        <pt x="224" y="621" on="1"/>
      </contour>
      <contour>
        <pt x="518" y="621" on="1"/>
        <pt x="518" y="125" on="1"/>
        <pt x="518" y="48" on="0"/>
        <pt x="448" y="-10" on="0"/>
        <pt x="354" y="-10" on="1"/>
        <pt x="303" y="-10" on="1"/>
        <pt x="290" y="126" on="1"/>
        <pt x="324" y="126" on="1"/>
        <pt x="341" y="126" on="0"/>
        <pt x="350" y="135" on="0"/>
        <pt x="350" y="150" on="1"/>
        <pt x="350" y="621" on="1"/>
      </contour>
    </TTGlyph>
    <TTGlyph name="Iacute" xMin="43" yMin="0" xMax="258" yMax="797">
      <contour>
        <pt x="213" y="0" on="1"/>
        <pt x="43" y="0" on="1"/>
        <pt x="43" y="621" on="1"/>
        <pt x="213" y="621" on="1"/>
      </contour>
      <contour>
        <pt x="258" y="797" on="1"/>
        <pt x="156" y="664" on="1"/>
        <pt x="46" y="664" on="1"/>
        <pt x="106" y="797" on="1"/>
      </contour>
    </TTGlyph>
    <TTGlyph name="Icircumflex" xMin="-10" yMin="0" xMax="259" yMax="792">
      <contour>
        <pt x="209" y="0" on="1"/>
        <pt x="39" y="0" on="1"/>
        <pt x="39" y="621" on="1"/>
        <pt x="209" y="621" on="1"/>
      </contour>
      <contour>
        <pt x="196" y="792" on="1"/>
        <pt x="259" y="664" on="1"/>
        <pt x="158" y="664" on="1"/>
        <pt x="125" y="717" on="1"/>
        <pt x="92" y="664" on="1"/>
        <pt x="-10" y="664" on="1"/>
        <pt x="53" y="792" on="1"/>
      </contour>
    </TTGlyph>
    <TTGlyph name="Idieresis" xMin="-16" yMin="0" xMax="265" yMax="774">
      <contour>
        <pt x="209" y="0" on="1"/>
        <pt x="39" y="0" on="1"/>
        <pt x="39" y="621" on="1"/>
        <pt x="209" y="621" on="1"/>
      </contour>
      <contour>
        <pt x="15" y="663" on="0"/>
        <pt x="-16" y="693" on="0"/>
        <pt x="-16" y="744" on="0"/>
        <pt x="15" y="774" on="0"/>
        <pt x="71" y="774" on="0"/>
        <pt x="104" y="745" on="0"/>
        <pt x="104" y="719" on="1"/>
        <pt x="104" y="663" on="0"/>
        <pt x="41" y="663" on="1"/>
      </contour>
      <contour>
        <pt x="176" y="663" on="0"/>
        <pt x="144" y="693" on="0"/>
        <pt x="144" y="744" on="0"/>
        <pt x="176" y="774" on="0"/>
        <pt x="233" y="774" on="0"/>
        <pt x="265" y="745" on="0"/>
        <pt x="265" y="693" on="0"/>
        <pt x="233" y="663" on="0"/>
      </contour>
    </TTGlyph>
    <TTGlyph name="Igrave" xMin="-21" yMin="0" xMax="209" yMax="797">
      <contour>
        <pt x="209" y="0" on="1"/>
        <pt x="39" y="0" on="1"/>
        <pt x="39" y="621" on="1"/>
        <pt x="209" y="621" on="1"/>
      </contour>
      <contour>
        <pt x="82" y="664" on="1"/>
        <pt x="-21" y="797" on="1"/>
        <pt x="129" y="797" on="1"/>
        <pt x="191" y="664" on="1"/>
      </contour>
    </TTGlyph>
    <TTGlyph name="Itilde" xMin="-12" yMin="0" xMax="276" yMax="797">
      <contour>
        <pt x="224" y="0" on="1"/>
        <pt x="54" y="0" on="1"/>
        <pt x="54" y="621" on="1"/>
        <pt x="224" y="621" on="1"/>
      </contour>
      <contour>
        <pt x="276" y="797" on="1"/>
        <pt x="276" y="789" on="1"/>
        <pt x="276" y="729" on="0"/>
        <pt x="242" y="666" on="0"/>
        <pt x="190" y="666" on="1"/>
        <pt x="159" y="666" on="0"/>
        <pt x="114" y="681" on="1"/>
        <pt x="91" y="689" on="1"/>
        <pt x="91" y="655" on="1"/>
        <pt x="-12" y="655" on="1"/>
        <pt x="-12" y="665" on="1"/>
        <pt x="-12" y="727" on="0"/>
        <pt x="24" y="788" on="0"/>
        <pt x="69" y="788" on="1"/>
        <pt x="87" y="788" on="0"/>
        <pt x="154" y="770" on="1"/>
        <pt x="173" y="766" on="1"/>
        <pt x="173" y="797" on="1"/>
      </contour>
    </TTGlyph>
    <TTGlyph name="J" xMin="16" yMin="-10" xMax="244" yMax="621">
      <contour>
        <pt x="244" y="621" on="1"/>
        <pt x="244" y="125" on="1"/>
        <pt x="244" y="48" on="0"/>
        <pt x="174" y="-10" on="0"/>
        <pt x="80" y="-10" on="1"/>
        <pt x="29" y="-10" on="1"/>
        <pt x="16" y="126" on="1"/>
        <pt x="50" y="126" on="1"/>
        <pt x="67" y="126" on="0"/>
        <pt x="76" y="135" on="0"/>
        <pt x="76" y="150" on="1"/>
        <pt x="76" y="621" on="1"/>
      </contour>
    </TTGlyph>
    <TTGlyph name="Jcircumflex" xMin="16" yMin="-10" xMax="289" yMax="792">
      <contour>
        <pt x="244" y="621" on="1"/>
        <pt x="244" y="125" on="1"/>
        <pt x="244" y="48" on="0"/>
        <pt x="174" y="-10" on="0"/>
        <pt x="80" y="-10" on="1"/>
        <pt x="29" y="-10" on="1"/>
        <pt x="16" y="126" on="1"/>
        <pt x="50" y="126" on="1"/>
        <pt x="67" y="126" on="0"/>
        <pt x="76" y="135" on="0"/>
        <pt x="76" y="150" on="1"/>
        <pt x="76" y="621" on="1"/>
      </contour>
      <contour>
        <pt x="226" y="792" on="1"/>
        <pt x="289" y="664" on="1"/>
        <pt x="188" y="664" on="1"/>
        <pt x="155" y="717" on="1"/>
        <pt x="122" y="664" on="1"/>
        <pt x="20" y="664" on="1"/>
        <pt x="83" y="792" on="1"/>
      </contour>
    </TTGlyph>
    <TTGlyph name="K" xMin="44" yMin="0" xMax="494" yMax="621">
      <contour>
        <pt x="484" y="0" on="1"/>
        <pt x="295" y="0" on="1"/>
        <pt x="220" y="234" on="1"/>
        <pt x="210" y="234" on="1"/>
        <pt x="210" y="0" on="1"/>
        <pt x="44" y="0" on="1"/>
        <pt x="44" y="621" on="1"/>
        <pt x="210" y="621" on="1"/>
        <pt x="210" y="361" on="1"/>
        <pt x="220" y="361" on="1"/>
        <pt x="310" y="621" on="1"/>
        <pt x="494" y="621" on="1"/>
        <pt x="373" y="300" on="1"/>
      </contour>
    </TTGlyph>
    <TTGlyph name="L" xMin="44" yMin="0" xMax="370" yMax="621">
      <contour>
        <pt x="360" y="0" on="1"/>
        <pt x="44" y="0" on="1"/>
        <pt x="44" y="621" on="1"/>
        <pt x="215" y="621" on="1"/>
        <pt x="215" y="139" on="1"/>
        <pt x="370" y="139" on="1"/>
      </contour>
    </TTGlyph>
    <TTGlyph name="Ldotaccent" xMin="44" yMin="0" xMax="436" yMax="621">
      <contour>
        <pt x="360" y="0" on="1"/>
        <pt x="44" y="0" on="1"/>
        <pt x="44" y="621" on="1"/>
        <pt x="215" y="621" on="1"/>
        <pt x="215" y="139" on="1"/>
        <pt x="370" y="139" on="1"/>
      </contour>
      <contour>
        <pt x="436" y="216" on="0"/>
        <pt x="244" y="216" on="0"/>
        <pt x="244" y="395" on="0"/>
        <pt x="436" y="395" on="0"/>
      </contour>
    </TTGlyph>
    <TTGlyph name="Lslash" xMin="1" yMin="0" xMax="370" yMax="621">
      <contour>
        <pt x="360" y="0" on="1"/>
        <pt x="44" y="0" on="1"/>
        <pt x="44" y="179" on="1"/>
        <pt x="1" y="152" on="1"/>
        <pt x="1" y="300" on="1"/>
        <pt x="44" y="327" on="1"/>
        <pt x="44" y="621" on="1"/>
        <pt x="215" y="621" on="1"/>
        <pt x="215" y="436" on="1"/>
        <pt x="268" y="470" on="1"/>
        <pt x="268" y="322" on="1"/>
        <pt x="215" y="288" on="1"/>
        <pt x="215" y="139" on="1"/>
        <pt x="370" y="139" on="1"/>
      </contour>
    </TTGlyph>
    <TTGlyph name="M" xMin="38" yMin="0" xMax="645" yMax="621">
      <contour>
        <pt x="645" y="0" on="1"/>
        <pt x="488" y="0" on="1"/>
        <pt x="488" y="324" on="1"/>
        <pt x="479" y="324" on="1"/>
        <pt x="420" y="0" on="1"/>
        <pt x="259" y="0" on="1"/>
        <pt x="203" y="324" on="1"/>
        <pt x="193" y="324" on="1"/>
        <pt x="193" y="0" on="1"/>
        <pt x="38" y="0" on="1"/>
        <pt x="59" y="621" on="1"/>
        <pt x="284" y="621" on="1"/>
        <pt x="340" y="285" on="1"/>
        <pt x="348" y="285" on="1"/>
        <pt x="402" y="621" on="1"/>
        <pt x="624" y="621" on="1"/>
      </contour>
    </TTGlyph>
    <TTGlyph name="N" xMin="44" yMin="0" xMax="497" yMax="621">
      <contour>
        <pt x="497" y="0" on="1"/>
        <pt x="333" y="0" on="1"/>
        <pt x="204" y="289" on="1"/>
        <pt x="196" y="289" on="1"/>
        <pt x="196" y="0" on="1"/>
        <pt x="44" y="0" on="1"/>
        <pt x="44" y="621" on="1"/>
        <pt x="213" y="621" on="1"/>
        <pt x="336" y="323" on="1"/>
        <pt x="344" y="323" on="1"/>
        <pt x="344" y="621" on="1"/>
        <pt x="497" y="621" on="1"/>
      </contour>
    </TTGlyph>
    <TTGlyph name="Nacute" xMin="44" yMin="0" xMax="497" yMax="797">
      <contour>
        <pt x="497" y="0" on="1"/>
        <pt x="333" y="0" on="1"/>
        <pt x="204" y="289" on="1"/>
        <pt x="196" y="289" on="1"/>
        <pt x="196" y="0" on="1"/>
        <pt x="44" y="0" on="1"/>
        <pt x="44" y="621" on="1"/>
        <pt x="213" y="621" on="1"/>
        <pt x="336" y="323" on="1"/>
        <pt x="344" y="323" on="1"/>
        <pt x="344" y="621" on="1"/>
        <pt x="497" y="621" on="1"/>
      </contour>
      <contour>
        <pt x="418" y="797" on="1"/>
        <pt x="316" y="664" on="1"/>
        <pt x="206" y="664" on="1"/>
        <pt x="266" y="797" on="1"/>
      </contour>
    </TTGlyph>
    <TTGlyph name="Ntilde" xMin="45" yMin="0" xMax="498" yMax="797">
      <contour>
        <pt x="498" y="0" on="1"/>
        <pt x="334" y="0" on="1"/>
        <pt x="205" y="289" on="1"/>
        <pt x="197" y="289" on="1"/>
        <pt x="197" y="0" on="1"/>
        <pt x="45" y="0" on="1"/>
        <pt x="45" y="621" on="1"/>
        <pt x="214" y="621" on="1"/>
        <pt x="337" y="323" on="1"/>
        <pt x="345" y="323" on="1"/>
        <pt x="345" y="621" on="1"/>
        <pt x="498" y="621" on="1"/>
      </contour>
      <contour>
        <pt x="419" y="797" on="1"/>
        <pt x="419" y="789" on="1"/>
        <pt x="419" y="729" on="0"/>
        <pt x="385" y="666" on="0"/>
        <pt x="333" y="666" on="1"/>
        <pt x="302" y="666" on="0"/>
        <pt x="257" y="681" on="1"/>
        <pt x="234" y="689" on="1"/>
        <pt x="234" y="655" on="1"/>
        <pt x="131" y="655" on="1"/>
        <pt x="131" y="665" on="1"/>
        <pt x="131" y="727" on="0"/>
        <pt x="167" y="788" on="0"/>
        <pt x="212" y="788" on="1"/>
        <pt x="230" y="788" on="0"/>
        <pt x="297" y="770" on="1"/>
        <pt x="316" y="766" on="1"/>
        <pt x="316" y="797" on="1"/>
      </contour>
    </TTGlyph>
    <TTGlyph name="O" xMin="24" yMin="-10" xMax="514" yMax="631">
      <contour>
        <pt x="139" y="631" on="0"/>
        <pt x="401" y="631" on="0"/>
        <pt x="514" y="483" on="0"/>
        <pt x="514" y="150" on="0"/>
        <pt x="398" y="-10" on="0"/>
        <pt x="138" y="-10" on="0"/>
        <pt x="24" y="148" on="0"/>
        <pt x="24" y="481" on="0"/>
      </contour>
      <contour>
        <pt x="342" y="408" on="0"/>
        <pt x="313" y="473" on="0"/>
        <pt x="224" y="473" on="0"/>
        <pt x="198" y="408" on="0"/>
        <pt x="198" y="317" on="1"/>
        <pt x="198" y="293" on="1"/>
        <pt x="198" y="196" on="0"/>
        <pt x="227" y="135" on="0"/>
        <pt x="316" y="135" on="0"/>
        <pt x="342" y="193" on="0"/>
        <pt x="342" y="284" on="1"/>
        <pt x="342" y="316" on="1"/>
      </contour>
    </TTGlyph>
    <TTGlyph name="OE" xMin="25" yMin="-10" xMax="667" yMax="631">
      <contour>
        <pt x="271" y="631" on="1"/>
        <pt x="315" y="631" on="0"/>
        <pt x="357" y="621" on="1"/>
        <pt x="667" y="621" on="1"/>
        <pt x="667" y="474" on="1"/>
        <pt x="498" y="474" on="1"/>
        <pt x="508" y="434" on="0"/>
        <pt x="513" y="381" on="1"/>
        <pt x="645" y="381" on="1"/>
        <pt x="645" y="249" on="1"/>
        <pt x="512" y="249" on="1"/>
        <pt x="508" y="191" on="0"/>
        <pt x="494" y="146" on="1"/>
        <pt x="667" y="146" on="1"/>
        <pt x="667" y="0" on="1"/>
        <pt x="351" y="0" on="1"/>
        <pt x="311" y="-10" on="0"/>
        <pt x="268" y="-10" on="1"/>
        <pt x="139" y="-10" on="0"/>
        <pt x="25" y="148" on="0"/>
        <pt x="25" y="481" on="0"/>
        <pt x="140" y="631" on="0"/>
      </contour>
      <contour>
        <pt x="343" y="414" on="0"/>
        <pt x="314" y="479" on="0"/>
        <pt x="225" y="479" on="0"/>
        <pt x="199" y="414" on="0"/>
        <pt x="199" y="323" on="1"/>
        <pt x="199" y="299" on="1"/>
        <pt x="199" y="201" on="0"/>
        <pt x="228" y="135" on="0"/>
        <pt x="316" y="135" on="0"/>
        <pt x="343" y="198" on="0"/>
        <pt x="343" y="290" on="1"/>
        <pt x="343" y="322" on="1"/>
      </contour>
    </TTGlyph>
    <TTGlyph name="Oacute" xMin="24" yMin="-10" xMax="514" yMax="797">
      <contour>
        <pt x="139" y="631" on="0"/>
        <pt x="401" y="631" on="0"/>
        <pt x="514" y="483" on="0"/>
        <pt x="514" y="150" on="0"/>
        <pt x="398" y="-10" on="0"/>
        <pt x="138" y="-10" on="0"/>
        <pt x="24" y="148" on="0"/>
        <pt x="24" y="481" on="0"/>
      </contour>
      <contour>
        <pt x="342" y="408" on="0"/>
        <pt x="313" y="473" on="0"/>
        <pt x="224" y="473" on="0"/>
        <pt x="198" y="408" on="0"/>
        <pt x="198" y="317" on="1"/>
        <pt x="198" y="293" on="1"/>
        <pt x="198" y="196" on="0"/>
        <pt x="227" y="135" on="0"/>
        <pt x="316" y="135" on="0"/>
        <pt x="342" y="193" on="0"/>
        <pt x="342" y="284" on="1"/>
        <pt x="342" y="316" on="1"/>
      </contour>
      <contour>
        <pt x="412" y="797" on="1"/>
        <pt x="310" y="664" on="1"/>
        <pt x="200" y="664" on="1"/>
        <pt x="260" y="797" on="1"/>
      </contour>
    </TTGlyph>
    <TTGlyph name="Ocircumflex" xMin="24" yMin="-10" xMax="514" yMax="792">
      <contour>
        <pt x="139" y="631" on="0"/>
        <pt x="401" y="631" on="0"/>
        <pt x="514" y="483" on="0"/>
        <pt x="514" y="150" on="0"/>
        <pt x="398" y="-10" on="0"/>
        <pt x="138" y="-10" on="0"/>
        <pt x="24" y="148" on="0"/>
        <pt x="24" y="481" on="0"/>
      </contour>
      <contour>
        <pt x="342" y="408" on="0"/>
        <pt x="313" y="473" on="0"/>
        <pt x="224" y="473" on="0"/>
        <pt x="198" y="408" on="0"/>
        <pt x="198" y="317" on="1"/>
        <pt x="198" y="293" on="1"/>
        <pt x="198" y="196" on="0"/>
        <pt x="227" y="135" on="0"/>
        <pt x="316" y="135" on="0"/>
        <pt x="342" y="193" on="0"/>
        <pt x="342" y="284" on="1"/>
        <pt x="342" y="316" on="1"/>
      </contour>
      <contour>
        <pt x="340" y="792" on="1"/>
        <pt x="403" y="664" on="1"/>
        <pt x="302" y="664" on="1"/>
        <pt x="269" y="717" on="1"/>
        <pt x="236" y="664" on="1"/>
        <pt x="134" y="664" on="1"/>
        <pt x="197" y="792" on="1"/>
      </contour>
    </TTGlyph>
    <TTGlyph name="Odieresis" xMin="24" yMin="-10" xMax="514" yMax="774">
      <contour>
        <pt x="139" y="631" on="0"/>
        <pt x="401" y="631" on="0"/>
        <pt x="514" y="483" on="0"/>
        <pt x="514" y="150" on="0"/>
        <pt x="398" y="-10" on="0"/>
        <pt x="138" y="-10" on="0"/>
        <pt x="24" y="148" on="0"/>
        <pt x="24" y="481" on="0"/>
      </contour>
      <contour>
        <pt x="342" y="408" on="0"/>
        <pt x="313" y="473" on="0"/>
        <pt x="224" y="473" on="0"/>
        <pt x="198" y="408" on="0"/>
        <pt x="198" y="317" on="1"/>
        <pt x="198" y="293" on="1"/>
        <pt x="198" y="196" on="0"/>
        <pt x="227" y="135" on="0"/>
        <pt x="316" y="135" on="0"/>
        <pt x="342" y="193" on="0"/>
        <pt x="342" y="284" on="1"/>
        <pt x="342" y="316" on="1"/>
      </contour>
      <contour>
        <pt x="160" y="663" on="0"/>
        <pt x="129" y="693" on="0"/>
        <pt x="129" y="744" on="0"/>
        <pt x="160" y="774" on="0"/>
        <pt x="216" y="774" on="0"/>
        <pt x="249" y="745" on="0"/>
        <pt x="249" y="719" on="1"/>
        <pt x="249" y="663" on="0"/>
        <pt x="186" y="663" on="1"/>
      </contour>
      <contour>
        <pt x="321" y="663" on="0"/>
        <pt x="289" y="693" on="0"/>
        <pt x="289" y="744" on="0"/>
        <pt x="321" y="774" on="0"/>
        <pt x="378" y="774" on="0"/>
        <pt x="410" y="745" on="0"/>
        <pt x="410" y="693" on="0"/>
        <pt x="378" y="663" on="0"/>
      </contour>
    </TTGlyph>
    <TTGlyph name="Ograve" xMin="24" yMin="-10" xMax="514" yMax="797">
      <contour>
        <pt x="139" y="631" on="0"/>
        <pt x="401" y="631" on="0"/>
        <pt x="514" y="483" on="0"/>
        <pt x="514" y="150" on="0"/>
        <pt x="398" y="-10" on="0"/>
        <pt x="138" y="-10" on="0"/>
        <pt x="24" y="148" on="0"/>
        <pt x="24" y="481" on="0"/>
      </contour>
      <contour>
        <pt x="342" y="408" on="0"/>
        <pt x="313" y="473" on="0"/>
        <pt x="224" y="473" on="0"/>
        <pt x="198" y="408" on="0"/>
        <pt x="198" y="317" on="1"/>
        <pt x="198" y="293" on="1"/>
        <pt x="198" y="196" on="0"/>
        <pt x="227" y="135" on="0"/>
        <pt x="316" y="135" on="0"/>
        <pt x="342" y="193" on="0"/>
        <pt x="342" y="284" on="1"/>
        <pt x="342" y="316" on="1"/>
      </contour>
      <contour>
        <pt x="229" y="664" on="1"/>
        <pt x="126" y="797" on="1"/>
        <pt x="276" y="797" on="1"/>
        <pt x="338" y="664" on="1"/>
      </contour>
    </TTGlyph>
    <TTGlyph name="Omega" xMin="32" yMin="0" xMax="518" yMax="631">
      <contour>
        <pt x="32" y="631" on="0"/>
        <pt x="516" y="631" on="0"/>
        <pt x="516" y="360" on="1"/>
        <pt x="516" y="287" on="0"/>
        <pt x="477" y="184" on="0"/>
        <pt x="437" y="137" on="1"/>
        <pt x="437" y="133" on="1"/>
        <pt x="518" y="133" on="1"/>
        <pt x="518" y="0" on="1"/>
        <pt x="291" y="0" on="1"/>
        <pt x="291" y="123" on="1"/>
        <pt x="346" y="201" on="0"/>
        <pt x="346" y="317" on="1"/>
        <pt x="346" y="420" on="0"/>
        <pt x="328" y="446" on="1"/>
        <pt x="311" y="473" on="0"/>
        <pt x="227" y="473" on="0"/>
        <pt x="201" y="400" on="0"/>
        <pt x="201" y="213" on="0"/>
        <pt x="257" y="124" on="1"/>
        <pt x="257" y="0" on="1"/>
        <pt x="32" y="0" on="1"/>
        <pt x="32" y="133" on="1"/>
        <pt x="106" y="133" on="1"/>
        <pt x="106" y="137" on="1"/>
        <pt x="32" y="238" on="0"/>
        <pt x="32" y="367" on="1"/>
      </contour>
    </TTGlyph>
    <TTGlyph name="Oslash" xMin="24" yMin="-71" xMax="514" yMax="683">
      <contour>
        <pt x="270" y="631" on="1"/>
        <pt x="296" y="631" on="0"/>
        <pt x="320" y="628" on="1"/>
        <pt x="342" y="683" on="1"/>
        <pt x="508" y="683" on="1"/>
        <pt x="458" y="556" on="1"/>
        <pt x="514" y="483" on="0"/>
        <pt x="514" y="150" on="0"/>
        <pt x="398" y="-10" on="0"/>
        <pt x="267" y="-10" on="1"/>
        <pt x="255" y="-10" on="0"/>
        <pt x="235" y="-8" on="1"/>
        <pt x="210" y="-71" on="1"/>
        <pt x="42" y="-71" on="1"/>
        <pt x="92" y="55" on="1"/>
        <pt x="24" y="132" on="0"/>
        <pt x="24" y="481" on="0"/>
        <pt x="139" y="631" on="0"/>
      </contour>
      <contour>
        <pt x="342" y="414" on="0"/>
        <pt x="313" y="479" on="0"/>
        <pt x="224" y="479" on="0"/>
        <pt x="198" y="414" on="0"/>
        <pt x="198" y="323" on="1"/>
        <pt x="198" y="299" on="1"/>
        <pt x="198" y="201" on="0"/>
        <pt x="227" y="135" on="0"/>
        <pt x="315" y="135" on="0"/>
        <pt x="342" y="198" on="0"/>
        <pt x="342" y="290" on="1"/>
        <pt x="342" y="322" on="1"/>
      </contour>
    </TTGlyph>
    <TTGlyph name="Otilde" xMin="24" yMin="-10" xMax="514" yMax="797">
      <contour>
        <pt x="139" y="631" on="0"/>
        <pt x="401" y="631" on="0"/>
        <pt x="514" y="483" on="0"/>
        <pt x="514" y="150" on="0"/>
        <pt x="398" y="-10" on="0"/>
        <pt x="138" y="-10" on="0"/>
        <pt x="24" y="148" on="0"/>
        <pt x="24" y="481" on="0"/>
      </contour>
      <contour>
        <pt x="342" y="408" on="0"/>
        <pt x="313" y="473" on="0"/>
        <pt x="224" y="473" on="0"/>
        <pt x="198" y="408" on="0"/>
        <pt x="198" y="317" on="1"/>
        <pt x="198" y="293" on="1"/>
        <pt x="198" y="196" on="0"/>
        <pt x="227" y="135" on="0"/>
        <pt x="316" y="135" on="0"/>
        <pt x="342" y="193" on="0"/>
        <pt x="342" y="284" on="1"/>
        <pt x="342" y="316" on="1"/>
      </contour>
      <contour>
        <pt x="406" y="797" on="1"/>
        <pt x="406" y="789" on="1"/>
        <pt x="406" y="729" on="0"/>
        <pt x="372" y="666" on="0"/>
        <pt x="320" y="666" on="1"/>
        <pt x="289" y="666" on="0"/>
        <pt x="244" y="681" on="1"/>
        <pt x="221" y="689" on="1"/>
        <pt x="221" y="655" on="1"/>
        <pt x="118" y="655" on="1"/>
        <pt x="118" y="665" on="1"/>
        <pt x="118" y="727" on="0"/>
        <pt x="154" y="788" on="0"/>
        <pt x="199" y="788" on="1"/>
        <pt x="217" y="788" on="0"/>
        <pt x="284" y="770" on="1"/>
        <pt x="303" y="766" on="1"/>
        <pt x="303" y="797" on="1"/>
      </contour>
    </TTGlyph>
    <TTGlyph name="P" xMin="44" yMin="0" xMax="458" yMax="621">
      <contour>
        <pt x="258" y="203" on="1"/>
        <pt x="212" y="203" on="1"/>
        <pt x="212" y="0" on="1"/>
        <pt x="44" y="0" on="1"/>
        <pt x="44" y="621" on="1"/>
        <pt x="247" y="621" on="1"/>
        <pt x="354" y="621" on="0"/>
        <pt x="458" y="523" on="0"/>
        <pt x="458" y="299" on="0"/>
        <pt x="360" y="203" on="0"/>
      </contour>
      <contour>
        <pt x="286" y="355" on="0"/>
        <pt x="286" y="443" on="0"/>
        <pt x="266" y="479" on="0"/>
        <pt x="236" y="479" on="1"/>
        <pt x="212" y="479" on="1"/>
        <pt x="212" y="321" on="1"/>
        <pt x="240" y="321" on="1"/>
        <pt x="268" y="321" on="0"/>
      </contour>
    </TTGlyph>
    <TTGlyph name="Q" xMin="24" yMin="-106" xMax="531" yMax="631">
      <contour>
        <pt x="139" y="631" on="0"/>
        <pt x="401" y="631" on="0"/>
        <pt x="514" y="483" on="0"/>
        <pt x="514" y="320" on="1"/>
        <pt x="514" y="214" on="0"/>
        <pt x="461" y="81" on="0"/>
        <pt x="405" y="38" on="1"/>
        <pt x="405" y="34" on="1"/>
        <pt x="531" y="23" on="1"/>
        <pt x="520" y="-106" on="1"/>
        <pt x="501" y="-106" on="1"/>
        <pt x="428" y="-106" on="0"/>
        <pt x="370" y="-72" on="1"/>
        <pt x="263" y="-10" on="1"/>
        <pt x="138" y="-10" on="0"/>
        <pt x="24" y="155" on="0"/>
        <pt x="24" y="481" on="0"/>
      </contour>
      <contour>
        <pt x="342" y="408" on="0"/>
        <pt x="313" y="473" on="0"/>
        <pt x="224" y="473" on="0"/>
        <pt x="198" y="408" on="0"/>
        <pt x="198" y="317" on="1"/>
        <pt x="198" y="293" on="1"/>
        <pt x="198" y="196" on="0"/>
        <pt x="227" y="135" on="0"/>
        <pt x="316" y="135" on="0"/>
        <pt x="342" y="193" on="0"/>
        <pt x="342" y="284" on="1"/>
        <pt x="342" y="316" on="1"/>
      </contour>
    </TTGlyph>
    <TTGlyph name="R" xMin="44" yMin="0" xMax="482" yMax="621">
      <contour>
        <pt x="469" y="424" on="1"/>
        <pt x="469" y="368" on="0"/>
        <pt x="435" y="294" on="0"/>
        <pt x="399" y="264" on="1"/>
        <pt x="482" y="0" on="1"/>
        <pt x="297" y="0" on="1"/>
        <pt x="235" y="224" on="1"/>
        <pt x="212" y="224" on="1"/>
        <pt x="212" y="0" on="1"/>
        <pt x="44" y="0" on="1"/>
        <pt x="44" y="621" on="1"/>
        <pt x="276" y="621" on="1"/>
        <pt x="376" y="621" on="0"/>
        <pt x="469" y="527" on="0"/>
      </contour>
      <contour>
        <pt x="264" y="329" on="0"/>
        <pt x="286" y="359" on="0"/>
        <pt x="286" y="438" on="0"/>
        <pt x="264" y="469" on="0"/>
        <pt x="239" y="469" on="1"/>
        <pt x="212" y="469" on="1"/>
        <pt x="212" y="329" on="1"/>
        <pt x="238" y="329" on="1"/>
      </contour>
    </TTGlyph>
    <TTGlyph name="Racute" xMin="44" yMin="0" xMax="482" yMax="797">
      <contour>
        <pt x="469" y="424" on="1"/>
        <pt x="469" y="368" on="0"/>
        <pt x="435" y="294" on="0"/>
        <pt x="399" y="264" on="1"/>
        <pt x="482" y="0" on="1"/>
        <pt x="297" y="0" on="1"/>
        <pt x="235" y="224" on="1"/>
        <pt x="212" y="224" on="1"/>
        <pt x="212" y="0" on="1"/>
        <pt x="44" y="0" on="1"/>
        <pt x="44" y="621" on="1"/>
        <pt x="276" y="621" on="1"/>
        <pt x="376" y="621" on="0"/>
        <pt x="469" y="527" on="0"/>
      </contour>
      <contour>
        <pt x="264" y="329" on="0"/>
        <pt x="286" y="359" on="0"/>
        <pt x="286" y="438" on="0"/>
        <pt x="264" y="469" on="0"/>
        <pt x="239" y="469" on="1"/>
        <pt x="212" y="469" on="1"/>
        <pt x="212" y="329" on="1"/>
        <pt x="238" y="329" on="1"/>
      </contour>
      <contour>
        <pt x="383" y="797" on="1"/>
        <pt x="281" y="664" on="1"/>
        <pt x="171" y="664" on="1"/>
        <pt x="231" y="797" on="1"/>
      </contour>
    </TTGlyph>
    <TTGlyph name="Rcaron" xMin="44" yMin="0" xMax="482" yMax="781">
      <contour>
        <pt x="469" y="424" on="1"/>
        <pt x="469" y="368" on="0"/>
        <pt x="435" y="294" on="0"/>
        <pt x="399" y="264" on="1"/>
        <pt x="482" y="0" on="1"/>
        <pt x="297" y="0" on="1"/>
        <pt x="235" y="224" on="1"/>
        <pt x="212" y="224" on="1"/>
        <pt x="212" y="0" on="1"/>
        <pt x="44" y="0" on="1"/>
        <pt x="44" y="621" on="1"/>
        <pt x="276" y="621" on="1"/>
        <pt x="376" y="621" on="0"/>
        <pt x="469" y="527" on="0"/>
      </contour>
      <contour>
        <pt x="264" y="329" on="0"/>
        <pt x="286" y="359" on="0"/>
        <pt x="286" y="438" on="0"/>
        <pt x="264" y="469" on="0"/>
        <pt x="239" y="469" on="1"/>
        <pt x="212" y="469" on="1"/>
        <pt x="212" y="329" on="1"/>
        <pt x="238" y="329" on="1"/>
      </contour>
      <contour>
        <pt x="172" y="652" on="1"/>
        <pt x="117" y="781" on="1"/>
        <pt x="210" y="781" on="1"/>
        <pt x="236" y="733" on="1"/>
        <pt x="263" y="781" on="1"/>
        <pt x="356" y="781" on="1"/>
        <pt x="302" y="652" on="1"/>
      </contour>
    </TTGlyph>
    <TTGlyph name="Rcommaaccent" xMin="44" yMin="-175" xMax="482" yMax="621">
      <contour>
        <pt x="469" y="424" on="1"/>
        <pt x="469" y="368" on="0"/>
        <pt x="435" y="294" on="0"/>
        <pt x="399" y="264" on="1"/>
        <pt x="482" y="0" on="1"/>
        <pt x="297" y="0" on="1"/>
        <pt x="235" y="224" on="1"/>
        <pt x="212" y="224" on="1"/>
        <pt x="212" y="0" on="1"/>
        <pt x="44" y="0" on="1"/>
        <pt x="44" y="621" on="1"/>
        <pt x="276" y="621" on="1"/>
        <pt x="376" y="621" on="0"/>
        <pt x="469" y="527" on="0"/>
      </contour>
      <contour>
        <pt x="264" y="329" on="0"/>
        <pt x="286" y="359" on="0"/>
        <pt x="286" y="438" on="0"/>
        <pt x="264" y="469" on="0"/>
        <pt x="239" y="469" on="1"/>
        <pt x="212" y="469" on="1"/>
        <pt x="212" y="329" on="1"/>
        <pt x="238" y="329" on="1"/>
      </contour>
      <contour>
        <pt x="165" y="-76" on="1"/>
        <pt x="165" y="-9" on="0"/>
        <pt x="349" y="-9" on="0"/>
        <pt x="349" y="-78" on="1"/>
        <pt x="349" y="-132" on="0"/>
        <pt x="272" y="-175" on="1"/>
        <pt x="192" y="-169" on="1"/>
        <pt x="228" y="-128" on="1"/>
        <pt x="200" y="-128" on="0"/>
        <pt x="165" y="-101" on="0"/>
      </contour>
    </TTGlyph>
    <TTGlyph name="S" xMin="16" yMin="-10" xMax="411" yMax="631">
      <contour>
        <pt x="16" y="523" on="0"/>
        <pt x="120" y="631" on="0"/>
        <pt x="301" y="631" on="0"/>
        <pt x="396" y="613" on="1"/>
        <pt x="376" y="453" on="1"/>
        <pt x="277" y="476" on="0"/>
        <pt x="240" y="476" on="1"/>
        <pt x="193" y="476" on="0"/>
        <pt x="193" y="438" on="1"/>
        <pt x="193" y="423" on="0"/>
        <pt x="238" y="395" on="0"/>
        <pt x="302" y="364" on="0"/>
        <pt x="366" y="321" on="0"/>
        <pt x="411" y="241" on="0"/>
        <pt x="411" y="189" on="1"/>
        <pt x="411" y="94" on="0"/>
        <pt x="309" y="-10" on="0"/>
        <pt x="122" y="-10" on="0"/>
        <pt x="33" y="19" on="1"/>
        <pt x="44" y="168" on="1"/>
        <pt x="151" y="137" on="0"/>
        <pt x="235" y="137" on="0"/>
        <pt x="235" y="174" on="1"/>
        <pt x="235" y="193" on="0"/>
        <pt x="190" y="225" on="0"/>
        <pt x="126" y="257" on="0"/>
        <pt x="61" y="299" on="0"/>
        <pt x="16" y="379" on="0"/>
        <pt x="16" y="434" on="1"/>
      </contour>
    </TTGlyph>
    <TTGlyph name="Scaron" xMin="16" yMin="-10" xMax="411" yMax="781">
      <contour>
        <pt x="16" y="523" on="0"/>
        <pt x="120" y="631" on="0"/>
        <pt x="301" y="631" on="0"/>
        <pt x="396" y="613" on="1"/>
        <pt x="376" y="453" on="1"/>
        <pt x="277" y="476" on="0"/>
        <pt x="240" y="476" on="1"/>
        <pt x="193" y="476" on="0"/>
        <pt x="193" y="438" on="1"/>
        <pt x="193" y="423" on="0"/>
        <pt x="238" y="395" on="0"/>
        <pt x="302" y="364" on="0"/>
        <pt x="366" y="321" on="0"/>
        <pt x="411" y="241" on="0"/>
        <pt x="411" y="189" on="1"/>
        <pt x="411" y="94" on="0"/>
        <pt x="309" y="-10" on="0"/>
        <pt x="122" y="-10" on="0"/>
        <pt x="33" y="19" on="1"/>
        <pt x="44" y="168" on="1"/>
        <pt x="151" y="137" on="0"/>
        <pt x="235" y="137" on="0"/>
        <pt x="235" y="174" on="1"/>
        <pt x="235" y="193" on="0"/>
        <pt x="190" y="225" on="0"/>
        <pt x="126" y="257" on="0"/>
        <pt x="61" y="299" on="0"/>
        <pt x="16" y="379" on="0"/>
        <pt x="16" y="434" on="1"/>
      </contour>
      <contour>
        <pt x="146" y="652" on="1"/>
        <pt x="91" y="781" on="1"/>
        <pt x="184" y="781" on="1"/>
        <pt x="210" y="733" on="1"/>
        <pt x="237" y="781" on="1"/>
        <pt x="330" y="781" on="1"/>
        <pt x="276" y="652" on="1"/>
      </contour>
    </TTGlyph>
    <TTGlyph name="T" xMin="-5" yMin="0" xMax="415" yMax="621">
      <contour>
        <pt x="405" y="470" on="1"/>
        <pt x="289" y="470" on="1"/>
        <pt x="289" y="0" on="1"/>
        <pt x="118" y="0" on="1"/>
        <pt x="118" y="470" on="1"/>
        <pt x="-5" y="470" on="1"/>
        <pt x="5" y="621" on="1"/>
        <pt x="415" y="621" on="1"/>
      </contour>
    </TTGlyph>
    <TTGlyph name="Thorn" xMin="44" yMin="0" xMax="450" yMax="621">
      <contour>
        <pt x="250" y="114" on="1"/>
        <pt x="212" y="114" on="1"/>
        <pt x="212" y="0" on="1"/>
        <pt x="44" y="0" on="1"/>
        <pt x="44" y="621" on="1"/>
        <pt x="212" y="621" on="1"/>
        <pt x="212" y="532" on="1"/>
        <pt x="239" y="532" on="1"/>
        <pt x="350" y="532" on="0"/>
        <pt x="450" y="435" on="0"/>
        <pt x="450" y="211" on="0"/>
        <pt x="354" y="114" on="0"/>
      </contour>
      <contour>
        <pt x="278" y="266" on="0"/>
        <pt x="278" y="354" on="0"/>
        <pt x="258" y="390" on="0"/>
        <pt x="228" y="390" on="1"/>
        <pt x="212" y="390" on="1"/>
        <pt x="212" y="232" on="1"/>
        <pt x="232" y="232" on="1"/>
        <pt x="260" y="232" on="0"/>
      </contour>
    </TTGlyph>
    <TTGlyph name="U" xMin="44" yMin="-10" xMax="499" yMax="621">
      <contour>
        <pt x="219" y="173" on="0"/>
        <pt x="245" y="143" on="0"/>
        <pt x="304" y="143" on="0"/>
        <pt x="327" y="172" on="0"/>
        <pt x="327" y="205" on="1"/>
        <pt x="327" y="621" on="1"/>
        <pt x="499" y="621" on="1"/>
        <pt x="499" y="195" on="1"/>
        <pt x="499" y="88" on="0"/>
        <pt x="382" y="-10" on="0"/>
        <pt x="155" y="-10" on="0"/>
        <pt x="44" y="87" on="0"/>
        <pt x="44" y="193" on="1"/>
        <pt x="44" y="621" on="1"/>
        <pt x="219" y="621" on="1"/>
        <pt x="219" y="204" on="1"/>
      </contour>
    </TTGlyph>
    <TTGlyph name="Uacute" xMin="44" yMin="-10" xMax="499" yMax="797">
      <contour>
        <pt x="219" y="173" on="0"/>
        <pt x="245" y="143" on="0"/>
        <pt x="304" y="143" on="0"/>
        <pt x="327" y="172" on="0"/>
        <pt x="327" y="205" on="1"/>
        <pt x="327" y="621" on="1"/>
        <pt x="499" y="621" on="1"/>
        <pt x="499" y="195" on="1"/>
        <pt x="499" y="88" on="0"/>
        <pt x="382" y="-10" on="0"/>
        <pt x="155" y="-10" on="0"/>
        <pt x="44" y="87" on="0"/>
        <pt x="44" y="193" on="1"/>
        <pt x="44" y="621" on="1"/>
        <pt x="219" y="621" on="1"/>
        <pt x="219" y="204" on="1"/>
      </contour>
      <contour>
        <pt x="425" y="797" on="1"/>
        <pt x="323" y="664" on="1"/>
        <pt x="213" y="664" on="1"/>
        <pt x="273" y="797" on="1"/>
      </contour>
    </TTGlyph>
    <TTGlyph name="Ucircumflex" xMin="44" yMin="-10" xMax="499" yMax="792">
      <contour>
        <pt x="219" y="173" on="0"/>
        <pt x="245" y="143" on="0"/>
        <pt x="304" y="143" on="0"/>
        <pt x="327" y="172" on="0"/>
        <pt x="327" y="205" on="1"/>
        <pt x="327" y="621" on="1"/>
        <pt x="499" y="621" on="1"/>
        <pt x="499" y="195" on="1"/>
        <pt x="499" y="88" on="0"/>
        <pt x="382" y="-10" on="0"/>
        <pt x="155" y="-10" on="0"/>
        <pt x="44" y="87" on="0"/>
        <pt x="44" y="193" on="1"/>
        <pt x="44" y="621" on="1"/>
        <pt x="219" y="621" on="1"/>
        <pt x="219" y="204" on="1"/>
      </contour>
      <contour>
        <pt x="345" y="792" on="1"/>
        <pt x="408" y="664" on="1"/>
        <pt x="307" y="664" on="1"/>
        <pt x="274" y="717" on="1"/>
        <pt x="241" y="664" on="1"/>
        <pt x="139" y="664" on="1"/>
        <pt x="202" y="792" on="1"/>
      </contour>
    </TTGlyph>
    <TTGlyph name="Udieresis" xMin="44" yMin="-10" xMax="499" yMax="774">
      <contour>
        <pt x="219" y="173" on="0"/>
        <pt x="245" y="143" on="0"/>
        <pt x="304" y="143" on="0"/>
        <pt x="327" y="172" on="0"/>
        <pt x="327" y="205" on="1"/>
        <pt x="327" y="621" on="1"/>
        <pt x="499" y="621" on="1"/>
        <pt x="499" y="195" on="1"/>
        <pt x="499" y="88" on="0"/>
        <pt x="382" y="-10" on="0"/>
        <pt x="155" y="-10" on="0"/>
        <pt x="44" y="87" on="0"/>
        <pt x="44" y="193" on="1"/>
        <pt x="44" y="621" on="1"/>
        <pt x="219" y="621" on="1"/>
        <pt x="219" y="204" on="1"/>
      </contour>
      <contour>
        <pt x="163" y="663" on="0"/>
        <pt x="132" y="693" on="0"/>
        <pt x="132" y="744" on="0"/>
        <pt x="163" y="774" on="0"/>
        <pt x="219" y="774" on="0"/>
        <pt x="252" y="745" on="0"/>
        <pt x="252" y="719" on="1"/>
        <pt x="252" y="663" on="0"/>
        <pt x="189" y="663" on="1"/>
      </contour>
      <contour>
        <pt x="324" y="663" on="0"/>
        <pt x="292" y="693" on="0"/>
        <pt x="292" y="744" on="0"/>
        <pt x="324" y="774" on="0"/>
        <pt x="381" y="774" on="0"/>
        <pt x="413" y="745" on="0"/>
        <pt x="413" y="693" on="0"/>
        <pt x="381" y="663" on="0"/>
      </contour>
    </TTGlyph>
    <TTGlyph name="Ugrave" xMin="44" yMin="-10" xMax="499" yMax="797">
      <contour>
        <pt x="219" y="173" on="0"/>
        <pt x="245" y="143" on="0"/>
        <pt x="304" y="143" on="0"/>
        <pt x="327" y="172" on="0"/>
        <pt x="327" y="205" on="1"/>
        <pt x="327" y="621" on="1"/>
        <pt x="499" y="621" on="1"/>
        <pt x="499" y="195" on="1"/>
        <pt x="499" y="88" on="0"/>
        <pt x="382" y="-10" on="0"/>
        <pt x="155" y="-10" on="0"/>
        <pt x="44" y="87" on="0"/>
        <pt x="44" y="193" on="1"/>
        <pt x="44" y="621" on="1"/>
        <pt x="219" y="621" on="1"/>
        <pt x="219" y="204" on="1"/>
      </contour>
      <contour>
        <pt x="226" y="664" on="1"/>
        <pt x="123" y="797" on="1"/>
        <pt x="273" y="797" on="1"/>
        <pt x="335" y="664" on="1"/>
      </contour>
    </TTGlyph>
    <TTGlyph name="V" xMin="12" yMin="0" xMax="493" yMax="621">
      <contour>
        <pt x="493" y="621" on="1"/>
        <pt x="388" y="0" on="1"/>
        <pt x="124" y="0" on="1"/>
        <pt x="12" y="621" on="1"/>
        <pt x="201" y="621" on="1"/>
        <pt x="255" y="214" on="1"/>
        <pt x="272" y="214" on="1"/>
        <pt x="313" y="621" on="1"/>
      </contour>
    </TTGlyph>
    <TTGlyph name="W" xMin="20" yMin="0" xMax="661" yMax="621">
      <contour>
        <pt x="661" y="621" on="1"/>
        <pt x="605" y="0" on="1"/>
        <pt x="399" y="0" on="1"/>
        <pt x="345" y="275" on="1"/>
        <pt x="337" y="275" on="1"/>
        <pt x="292" y="0" on="1"/>
        <pt x="85" y="0" on="1"/>
        <pt x="20" y="621" on="1"/>
        <pt x="184" y="621" on="1"/>
        <pt x="210" y="292" on="1"/>
        <pt x="220" y="292" on="1"/>
        <pt x="262" y="621" on="1"/>
        <pt x="429" y="621" on="1"/>
        <pt x="475" y="292" on="1"/>
        <pt x="485" y="292" on="1"/>
        <pt x="503" y="621" on="1"/>
      </contour>
    </TTGlyph>
    <TTGlyph name="X" xMin="6" yMin="0" xMax="482" yMax="621">
      <contour>
        <pt x="482" y="0" on="1"/>
        <pt x="287" y="0" on="1"/>
        <pt x="245" y="198" on="1"/>
        <pt x="237" y="198" on="1"/>
        <pt x="190" y="0" on="1"/>
        <pt x="6" y="0" on="1"/>
        <pt x="103" y="322" on="1"/>
        <pt x="14" y="621" on="1"/>
        <pt x="216" y="621" on="1"/>
        <pt x="250" y="437" on="1"/>
        <pt x="258" y="437" on="1"/>
        <pt x="295" y="621" on="1"/>
        <pt x="471" y="621" on="1"/>
        <pt x="390" y="322" on="1"/>
      </contour>
    </TTGlyph>
    <TTGlyph name="Y" xMin="0" yMin="0" xMax="464" yMax="621">
      <contour>
        <pt x="464" y="621" on="1"/>
        <pt x="316" y="192" on="1"/>
        <pt x="316" y="0" on="1"/>
        <pt x="146" y="0" on="1"/>
        <pt x="146" y="192" on="1"/>
        <pt x="0" y="621" on="1"/>
        <pt x="188" y="621" on="1"/>
        <pt x="233" y="419" on="1"/>
        <pt x="241" y="419" on="1"/>
        <pt x="284" y="621" on="1"/>
      </contour>
    </TTGlyph>
    <TTGlyph name="Yacute" xMin="0" yMin="0" xMax="464" yMax="787">
      <contour>
        <pt x="464" y="621" on="1"/>
        <pt x="316" y="192" on="1"/>
        <pt x="316" y="0" on="1"/>
        <pt x="146" y="0" on="1"/>
        <pt x="146" y="192" on="1"/>
        <pt x="0" y="621" on="1"/>
        <pt x="188" y="621" on="1"/>
        <pt x="233" y="419" on="1"/>
        <pt x="241" y="419" on="1"/>
        <pt x="284" y="621" on="1"/>
      </contour>
      <contour>
        <pt x="389" y="787" on="1"/>
        <pt x="287" y="654" on="1"/>
        <pt x="177" y="654" on="1"/>
        <pt x="237" y="787" on="1"/>
      </contour>
    </TTGlyph>
    <TTGlyph name="Ydieresis" xMin="0" yMin="0" xMax="464" yMax="774">
      <contour>
        <pt x="464" y="621" on="1"/>
        <pt x="316" y="192" on="1"/>
        <pt x="316" y="0" on="1"/>
        <pt x="146" y="0" on="1"/>
        <pt x="146" y="192" on="1"/>
        <pt x="0" y="621" on="1"/>
        <pt x="188" y="621" on="1"/>
        <pt x="233" y="419" on="1"/>
        <pt x="241" y="419" on="1"/>
        <pt x="284" y="621" on="1"/>
      </contour>
      <contour>
        <pt x="126" y="663" on="0"/>
        <pt x="95" y="693" on="0"/>
        <pt x="95" y="744" on="0"/>
        <pt x="126" y="774" on="0"/>
        <pt x="182" y="774" on="0"/>
        <pt x="215" y="745" on="0"/>
        <pt x="215" y="719" on="1"/>
        <pt x="215" y="663" on="0"/>
        <pt x="152" y="663" on="1"/>
      </contour>
      <contour>
        <pt x="287" y="663" on="0"/>
        <pt x="255" y="693" on="0"/>
        <pt x="255" y="744" on="0"/>
        <pt x="287" y="774" on="0"/>
        <pt x="344" y="774" on="0"/>
        <pt x="376" y="745" on="0"/>
        <pt x="376" y="693" on="0"/>
        <pt x="344" y="663" on="0"/>
      </contour>
    </TTGlyph>
    <TTGlyph name="Z" xMin="10" yMin="0" xMax="442" yMax="621">
      <contour>
        <pt x="442" y="0" on="1"/>
        <pt x="34" y="0" on="1"/>
        <pt x="30" y="92" on="1"/>
        <pt x="213" y="466" on="1"/>
        <pt x="20" y="466" on="1"/>
        <pt x="10" y="621" on="1"/>
        <pt x="432" y="621" on="1"/>
        <pt x="437" y="523" on="1"/>
        <pt x="263" y="143" on="1"/>
        <pt x="442" y="143" on="1"/>
      </contour>
    </TTGlyph>
    <TTGlyph name="Zcaron" xMin="10" yMin="0" xMax="442" yMax="781">
      <contour>
        <pt x="442" y="0" on="1"/>
        <pt x="34" y="0" on="1"/>
        <pt x="30" y="92" on="1"/>
        <pt x="213" y="466" on="1"/>
        <pt x="20" y="466" on="1"/>
        <pt x="10" y="621" on="1"/>
        <pt x="432" y="621" on="1"/>
        <pt x="437" y="523" on="1"/>
        <pt x="263" y="143" on="1"/>
        <pt x="442" y="143" on="1"/>
      </contour>
      <contour>
        <pt x="172" y="652" on="1"/>
        <pt x="117" y="781" on="1"/>
        <pt x="210" y="781" on="1"/>
        <pt x="236" y="733" on="1"/>
        <pt x="263" y="781" on="1"/>
        <pt x="356" y="781" on="1"/>
        <pt x="302" y="652" on="1"/>
      </contour>
    </TTGlyph>
    <TTGlyph name="a" xMin="14" yMin="-10" xMax="428" yMax="491">
      <contour>
        <pt x="391" y="354" on="1"/>
        <pt x="386" y="147" on="1"/>
        <pt x="386" y="128" on="0"/>
        <pt x="405" y="115" on="0"/>
        <pt x="428" y="115" on="1"/>
        <pt x="413" y="-6" on="1"/>
        <pt x="355" y="-10" on="0"/>
        <pt x="349" y="-10" on="1"/>
        <pt x="275" y="-10" on="0"/>
        <pt x="255" y="41" on="1"/>
        <pt x="250" y="41" on="1"/>
        <pt x="213" y="-10" on="0"/>
        <pt x="136" y="-10" on="1"/>
        <pt x="77" y="-10" on="0"/>
        <pt x="14" y="66" on="0"/>
        <pt x="14" y="132" on="1"/>
        <pt x="14" y="215" on="0"/>
        <pt x="117" y="279" on="0"/>
        <pt x="228" y="289" on="1"/>
        <pt x="228" y="313" on="1"/>
        <pt x="228" y="341" on="0"/>
        <pt x="200" y="341" on="1"/>
        <pt x="152" y="341" on="0"/>
        <pt x="50" y="312" on="1"/>
        <pt x="25" y="458" on="1"/>
        <pt x="153" y="491" on="0"/>
        <pt x="323" y="491" on="0"/>
        <pt x="391" y="425" on="0"/>
      </contour>
      <contour>
        <pt x="198" y="107" on="1"/>
        <pt x="235" y="107" on="0"/>
        <pt x="235" y="146" on="1"/>
        <pt x="235" y="195" on="1"/>
        <pt x="198" y="190" on="0"/>
        <pt x="167" y="169" on="0"/>
        <pt x="167" y="144" on="1"/>
        <pt x="167" y="107" on="0"/>
      </contour>
    </TTGlyph>
    <TTGlyph name="aacute" xMin="14" yMin="-10" xMax="428" yMax="660">
      <contour>
        <pt x="391" y="354" on="1"/>
        <pt x="386" y="147" on="1"/>
        <pt x="386" y="128" on="0"/>
        <pt x="405" y="115" on="0"/>
        <pt x="428" y="115" on="1"/>
        <pt x="413" y="-6" on="1"/>
        <pt x="355" y="-10" on="0"/>
        <pt x="349" y="-10" on="1"/>
        <pt x="275" y="-10" on="0"/>
        <pt x="255" y="41" on="1"/>
        <pt x="250" y="41" on="1"/>
        <pt x="213" y="-10" on="0"/>
        <pt x="136" y="-10" on="1"/>
        <pt x="77" y="-10" on="0"/>
        <pt x="14" y="66" on="0"/>
        <pt x="14" y="132" on="1"/>
        <pt x="14" y="215" on="0"/>
        <pt x="117" y="279" on="0"/>
        <pt x="228" y="289" on="1"/>
        <pt x="228" y="313" on="1"/>
        <pt x="228" y="341" on="0"/>
        <pt x="200" y="341" on="1"/>
        <pt x="152" y="341" on="0"/>
        <pt x="50" y="312" on="1"/>
        <pt x="25" y="458" on="1"/>
        <pt x="153" y="491" on="0"/>
        <pt x="323" y="491" on="0"/>
        <pt x="391" y="425" on="0"/>
      </contour>
      <contour>
        <pt x="198" y="107" on="1"/>
        <pt x="235" y="107" on="0"/>
        <pt x="235" y="146" on="1"/>
        <pt x="235" y="195" on="1"/>
        <pt x="198" y="190" on="0"/>
        <pt x="167" y="169" on="0"/>
        <pt x="167" y="144" on="1"/>
        <pt x="167" y="107" on="0"/>
      </contour>
      <contour>
        <pt x="363" y="660" on="1"/>
        <pt x="255" y="520" on="1"/>
        <pt x="140" y="520" on="1"/>
        <pt x="203" y="660" on="1"/>
      </contour>
    </TTGlyph>
    <TTGlyph name="acircumflex" xMin="14" yMin="-10" xMax="428" yMax="655">
      <contour>
        <pt x="391" y="354" on="1"/>
        <pt x="386" y="147" on="1"/>
        <pt x="386" y="128" on="0"/>
        <pt x="405" y="115" on="0"/>
        <pt x="428" y="115" on="1"/>
        <pt x="413" y="-6" on="1"/>
        <pt x="355" y="-10" on="0"/>
        <pt x="349" y="-10" on="1"/>
        <pt x="275" y="-10" on="0"/>
        <pt x="255" y="41" on="1"/>
        <pt x="250" y="41" on="1"/>
        <pt x="213" y="-10" on="0"/>
        <pt x="136" y="-10" on="1"/>
        <pt x="77" y="-10" on="0"/>
        <pt x="14" y="66" on="0"/>
        <pt x="14" y="132" on="1"/>
        <pt x="14" y="215" on="0"/>
        <pt x="117" y="279" on="0"/>
        <pt x="228" y="289" on="1"/>
        <pt x="228" y="313" on="1"/>
        <pt x="228" y="341" on="0"/>
        <pt x="200" y="341" on="1"/>
        <pt x="152" y="341" on="0"/>
        <pt x="50" y="312" on="1"/>
        <pt x="25" y="458" on="1"/>
        <pt x="153" y="491" on="0"/>
        <pt x="323" y="491" on="0"/>
        <pt x="391" y="425" on="0"/>
      </contour>
      <contour>
        <pt x="198" y="107" on="1"/>
        <pt x="235" y="107" on="0"/>
        <pt x="235" y="146" on="1"/>
        <pt x="235" y="195" on="1"/>
        <pt x="198" y="190" on="0"/>
        <pt x="167" y="169" on="0"/>
        <pt x="167" y="144" on="1"/>
        <pt x="167" y="107" on="0"/>
      </contour>
      <contour>
        <pt x="291" y="655" on="1"/>
        <pt x="357" y="520" on="1"/>
        <pt x="251" y="520" on="1"/>
        <pt x="216" y="576" on="1"/>
        <pt x="181" y="520" on="1"/>
        <pt x="74" y="520" on="1"/>
        <pt x="140" y="655" on="1"/>
      </contour>
    </TTGlyph>
    <TTGlyph name="acute" xMin="153" yMin="520" xMax="376" yMax="660">
      <contour>
        <pt x="376" y="660" on="1"/>
        <pt x="268" y="520" on="1"/>
        <pt x="153" y="520" on="1"/>
        <pt x="216" y="660" on="1"/>
      </contour>
    </TTGlyph>
    <TTGlyph name="adieresis" xMin="14" yMin="-10" xMax="428" yMax="636">
      <contour>
        <pt x="391" y="354" on="1"/>
        <pt x="386" y="147" on="1"/>
        <pt x="386" y="128" on="0"/>
        <pt x="405" y="115" on="0"/>
        <pt x="428" y="115" on="1"/>
        <pt x="413" y="-6" on="1"/>
        <pt x="355" y="-10" on="0"/>
        <pt x="349" y="-10" on="1"/>
        <pt x="275" y="-10" on="0"/>
        <pt x="255" y="41" on="1"/>
        <pt x="250" y="41" on="1"/>
        <pt x="213" y="-10" on="0"/>
        <pt x="136" y="-10" on="1"/>
        <pt x="77" y="-10" on="0"/>
        <pt x="14" y="66" on="0"/>
        <pt x="14" y="132" on="1"/>
        <pt x="14" y="215" on="0"/>
        <pt x="117" y="279" on="0"/>
        <pt x="228" y="289" on="1"/>
        <pt x="228" y="313" on="1"/>
        <pt x="228" y="341" on="0"/>
        <pt x="200" y="341" on="1"/>
        <pt x="152" y="341" on="0"/>
        <pt x="50" y="312" on="1"/>
        <pt x="25" y="458" on="1"/>
        <pt x="153" y="491" on="0"/>
        <pt x="323" y="491" on="0"/>
        <pt x="391" y="425" on="0"/>
      </contour>
      <contour>
        <pt x="198" y="107" on="1"/>
        <pt x="235" y="107" on="0"/>
        <pt x="235" y="146" on="1"/>
        <pt x="235" y="195" on="1"/>
        <pt x="198" y="190" on="0"/>
        <pt x="167" y="169" on="0"/>
        <pt x="167" y="144" on="1"/>
        <pt x="167" y="107" on="0"/>
      </contour>
      <contour>
        <pt x="96" y="519" on="0"/>
        <pt x="63" y="550" on="0"/>
        <pt x="63" y="605" on="0"/>
        <pt x="96" y="636" on="0"/>
        <pt x="156" y="636" on="0"/>
        <pt x="190" y="605" on="0"/>
        <pt x="190" y="578" on="1"/>
        <pt x="190" y="519" on="0"/>
        <pt x="124" y="519" on="1"/>
      </contour>
      <contour>
        <pt x="265" y="519" on="0"/>
        <pt x="232" y="550" on="0"/>
        <pt x="232" y="605" on="0"/>
        <pt x="266" y="636" on="0"/>
        <pt x="326" y="636" on="0"/>
        <pt x="359" y="605" on="0"/>
        <pt x="359" y="550" on="0"/>
        <pt x="326" y="519" on="0"/>
      </contour>
    </TTGlyph>
    <TTGlyph name="ae" xMin="14" yMin="-10" xMax="628" yMax="491">
      <contour>
        <pt x="81" y="-10" on="0"/>
        <pt x="14" y="65" on="0"/>
        <pt x="14" y="215" on="0"/>
        <pt x="117" y="279" on="0"/>
        <pt x="228" y="289" on="1"/>
        <pt x="228" y="313" on="1"/>
        <pt x="228" y="341" on="0"/>
        <pt x="200" y="341" on="1"/>
        <pt x="152" y="341" on="0"/>
        <pt x="50" y="312" on="1"/>
        <pt x="25" y="458" on="1"/>
        <pt x="153" y="491" on="0"/>
        <pt x="245" y="491" on="1"/>
        <pt x="298" y="491" on="0"/>
        <pt x="335" y="466" on="1"/>
        <pt x="377" y="491" on="0"/>
        <pt x="436" y="491" on="1"/>
        <pt x="539" y="491" on="0"/>
        <pt x="628" y="392" on="0"/>
        <pt x="628" y="300" on="1"/>
        <pt x="628" y="242" on="0"/>
        <pt x="622" y="196" on="1"/>
        <pt x="393" y="196" on="1"/>
        <pt x="393" y="117" on="0"/>
        <pt x="462" y="117" on="1"/>
        <pt x="495" y="117" on="0"/>
        <pt x="591" y="140" on="1"/>
        <pt x="609" y="18" on="1"/>
        <pt x="518" y="-10" on="0"/>
        <pt x="341" y="-10" on="0"/>
        <pt x="293" y="52" on="1"/>
        <pt x="289" y="52" on="1"/>
        <pt x="235" y="-10" on="0"/>
        <pt x="141" y="-10" on="1"/>
      </contour>
      <contour>
        <pt x="432" y="350" on="1"/>
        <pt x="406" y="350" on="0"/>
        <pt x="390" y="315" on="0"/>
        <pt x="390" y="279" on="1"/>
        <pt x="477" y="279" on="1"/>
        <pt x="477" y="303" on="1"/>
        <pt x="477" y="350" on="0"/>
      </contour>
      <contour>
        <pt x="198" y="107" on="1"/>
        <pt x="235" y="107" on="0"/>
        <pt x="235" y="146" on="1"/>
        <pt x="235" y="195" on="1"/>
        <pt x="198" y="190" on="0"/>
        <pt x="167" y="169" on="0"/>
        <pt x="167" y="144" on="1"/>
        <pt x="167" y="107" on="0"/>
      </contour>
    </TTGlyph>
    <TTGlyph name="agrave" xMin="14" yMin="-10" xMax="428" yMax="660">
      <contour>
        <pt x="391" y="354" on="1"/>
        <pt x="386" y="147" on="1"/>
        <pt x="386" y="128" on="0"/>
        <pt x="405" y="115" on="0"/>
        <pt x="428" y="115" on="1"/>
        <pt x="413" y="-6" on="1"/>
        <pt x="355" y="-10" on="0"/>
        <pt x="349" y="-10" on="1"/>
        <pt x="275" y="-10" on="0"/>
        <pt x="255" y="41" on="1"/>
        <pt x="250" y="41" on="1"/>
        <pt x="213" y="-10" on="0"/>
        <pt x="136" y="-10" on="1"/>
        <pt x="77" y="-10" on="0"/>
        <pt x="14" y="66" on="0"/>
        <pt x="14" y="132" on="1"/>
        <pt x="14" y="215" on="0"/>
        <pt x="117" y="279" on="0"/>
        <pt x="228" y="289" on="1"/>
        <pt x="228" y="313" on="1"/>
        <pt x="228" y="341" on="0"/>
        <pt x="200" y="341" on="1"/>
        <pt x="152" y="341" on="0"/>
        <pt x="50" y="312" on="1"/>
        <pt x="25" y="458" on="1"/>
        <pt x="153" y="491" on="0"/>
        <pt x="323" y="491" on="0"/>
        <pt x="391" y="425" on="0"/>
      </contour>
      <contour>
        <pt x="198" y="107" on="1"/>
        <pt x="235" y="107" on="0"/>
        <pt x="235" y="146" on="1"/>
        <pt x="235" y="195" on="1"/>
        <pt x="198" y="190" on="0"/>
        <pt x="167" y="169" on="0"/>
        <pt x="167" y="144" on="1"/>
        <pt x="167" y="107" on="0"/>
      </contour>
      <contour>
        <pt x="180" y="520" on="1"/>
        <pt x="72" y="660" on="1"/>
        <pt x="230" y="660" on="1"/>
        <pt x="295" y="520" on="1"/>
      </contour>
    </TTGlyph>
    <TTGlyph name="ampersand" xMin="32" yMin="-10" xMax="592" yMax="644">
      <contour>
        <pt x="389" y="25" on="1"/>
        <pt x="324" y="-10" on="0"/>
        <pt x="137" y="-10" on="0"/>
        <pt x="32" y="88" on="0"/>
        <pt x="32" y="182" on="1"/>
        <pt x="32" y="249" on="0"/>
        <pt x="86" y="324" on="0"/>
        <pt x="138" y="351" on="1"/>
        <pt x="89" y="412" on="0"/>
        <pt x="89" y="488" on="1"/>
        <pt x="89" y="644" on="0"/>
        <pt x="458" y="644" on="0"/>
        <pt x="458" y="488" on="1"/>
        <pt x="458" y="422" on="0"/>
        <pt x="408" y="346" on="0"/>
        <pt x="345" y="310" on="1"/>
        <pt x="421" y="215" on="1"/>
        <pt x="425" y="215" on="1"/>
        <pt x="437" y="240" on="0"/>
        <pt x="437" y="284" on="1"/>
        <pt x="437" y="327" on="1"/>
        <pt x="569" y="327" on="1"/>
        <pt x="569" y="293" on="1"/>
        <pt x="569" y="182" on="0"/>
        <pt x="510" y="122" on="1"/>
        <pt x="510" y="115" on="1"/>
        <pt x="592" y="115" on="1"/>
        <pt x="582" y="-10" on="1"/>
        <pt x="531" y="-10" on="1"/>
        <pt x="477" y="-10" on="0"/>
        <pt x="421" y="4" on="0"/>
      </contour>
      <contour>
        <pt x="249" y="123" on="1"/>
        <pt x="310" y="123" on="1"/>
        <pt x="310" y="127" on="1"/>
        <pt x="216" y="241" on="1"/>
        <pt x="191" y="220" on="0"/>
        <pt x="191" y="188" on="1"/>
        <pt x="191" y="123" on="0"/>
      </contour>
      <contour>
        <pt x="313" y="459" on="1"/>
        <pt x="313" y="496" on="0"/>
        <pt x="244" y="496" on="0"/>
        <pt x="244" y="461" on="1"/>
        <pt x="244" y="435" on="0"/>
        <pt x="277" y="402" on="1"/>
        <pt x="293" y="416" on="0"/>
        <pt x="298" y="422" on="1"/>
        <pt x="313" y="436" on="0"/>
      </contour>
    </TTGlyph>
    <TTGlyph name="approxequal" xMin="40" yMin="97" xMax="452" yMax="454">
      <contour>
        <pt x="452" y="263" on="1"/>
        <pt x="452" y="250" on="1"/>
        <pt x="452" y="179" on="0"/>
        <pt x="403" y="103" on="0"/>
        <pt x="329" y="103" on="1"/>
        <pt x="285" y="103" on="0"/>
        <pt x="201" y="131" on="1"/>
        <pt x="201" y="97" on="1"/>
        <pt x="48" y="97" on="1"/>
        <pt x="48" y="111" on="1"/>
        <pt x="48" y="183" on="0"/>
        <pt x="100" y="257" on="0"/>
        <pt x="166" y="257" on="1"/>
        <pt x="201" y="257" on="0"/>
        <pt x="299" y="229" on="1"/>
        <pt x="299" y="263" on="1"/>
      </contour>
      <contour>
        <pt x="444" y="454" on="1"/>
        <pt x="444" y="441" on="1"/>
        <pt x="444" y="370" on="0"/>
        <pt x="395" y="294" on="0"/>
        <pt x="321" y="294" on="1"/>
        <pt x="277" y="294" on="0"/>
        <pt x="193" y="322" on="1"/>
        <pt x="193" y="288" on="1"/>
        <pt x="40" y="288" on="1"/>
        <pt x="40" y="302" on="1"/>
        <pt x="40" y="374" on="0"/>
        <pt x="92" y="449" on="0"/>
        <pt x="158" y="449" on="1"/>
        <pt x="191" y="449" on="0"/>
        <pt x="291" y="421" on="1"/>
        <pt x="291" y="454" on="1"/>
      </contour>
    </TTGlyph>
    <TTGlyph name="aring" xMin="14" yMin="-10" xMax="428" yMax="671">
      <contour>
        <pt x="391" y="354" on="1"/>
        <pt x="386" y="147" on="1"/>
        <pt x="386" y="128" on="0"/>
        <pt x="405" y="115" on="0"/>
        <pt x="428" y="115" on="1"/>
        <pt x="413" y="-6" on="1"/>
        <pt x="355" y="-10" on="0"/>
        <pt x="349" y="-10" on="1"/>
        <pt x="275" y="-10" on="0"/>
        <pt x="255" y="41" on="1"/>
        <pt x="250" y="41" on="1"/>
        <pt x="213" y="-10" on="0"/>
        <pt x="136" y="-10" on="1"/>
        <pt x="77" y="-10" on="0"/>
        <pt x="14" y="66" on="0"/>
        <pt x="14" y="132" on="1"/>
        <pt x="14" y="215" on="0"/>
        <pt x="117" y="279" on="0"/>
        <pt x="228" y="289" on="1"/>
        <pt x="228" y="313" on="1"/>
        <pt x="228" y="341" on="0"/>
        <pt x="200" y="341" on="1"/>
        <pt x="152" y="341" on="0"/>
        <pt x="50" y="312" on="1"/>
        <pt x="25" y="458" on="1"/>
        <pt x="153" y="491" on="0"/>
        <pt x="323" y="491" on="0"/>
        <pt x="391" y="425" on="0"/>
      </contour>
      <contour>
        <pt x="198" y="107" on="1"/>
        <pt x="235" y="107" on="0"/>
        <pt x="235" y="146" on="1"/>
        <pt x="235" y="195" on="1"/>
        <pt x="198" y="190" on="0"/>
        <pt x="167" y="169" on="0"/>
        <pt x="167" y="144" on="1"/>
        <pt x="167" y="107" on="0"/>
      </contour>
      <contour>
        <pt x="125" y="628" on="0"/>
        <pt x="173" y="671" on="0"/>
        <pt x="251" y="671" on="0"/>
        <pt x="297" y="630" on="0"/>
        <pt x="297" y="556" on="0"/>
        <pt x="251" y="513" on="0"/>
        <pt x="173" y="513" on="0"/>
        <pt x="125" y="555" on="0"/>
      </contour>
      <contour>
        <pt x="233" y="622" on="0"/>
        <pt x="189" y="622" on="0"/>
        <pt x="189" y="563" on="0"/>
        <pt x="233" y="563" on="0"/>
      </contour>
    </TTGlyph>
    <TTGlyph name="asciicircum" xMin="109" yMin="520" xMax="391" yMax="655">
      <contour>
        <pt x="326" y="655" on="1"/>
        <pt x="391" y="520" on="1"/>
        <pt x="286" y="520" on="1"/>
        <pt x="251" y="576" on="1"/>
        <pt x="216" y="520" on="1"/>
        <pt x="109" y="520" on="1"/>
        <pt x="175" y="655" on="1"/>
      </contour>
    </TTGlyph>
    <TTGlyph name="asciitilde" xMin="108" yMin="511" xMax="411" yMax="660">
      <contour>
        <pt x="411" y="660" on="1"/>
        <pt x="411" y="652" on="1"/>
        <pt x="411" y="588" on="0"/>
        <pt x="375" y="522" on="0"/>
        <pt x="321" y="522" on="1"/>
        <pt x="285" y="522" on="0"/>
        <pt x="241" y="538" on="1"/>
        <pt x="217" y="546" on="1"/>
        <pt x="217" y="511" on="1"/>
        <pt x="108" y="511" on="1"/>
        <pt x="108" y="521" on="1"/>
        <pt x="108" y="586" on="0"/>
        <pt x="146" y="651" on="0"/>
        <pt x="194" y="651" on="1"/>
        <pt x="210" y="651" on="0"/>
        <pt x="283" y="632" on="1"/>
        <pt x="303" y="627" on="1"/>
        <pt x="303" y="660" on="1"/>
      </contour>
    </TTGlyph>
    <TTGlyph name="asterisk" xMin="20" yMin="257" xMax="404" yMax="622">
      <contour>
        <pt x="404" y="446" on="1"/>
        <pt x="307" y="410" on="1"/>
        <pt x="379" y="317" on="1"/>
        <pt x="289" y="257" on="1"/>
        <pt x="216" y="341" on="1"/>
        <pt x="147" y="258" on="1"/>
        <pt x="56" y="318" on="1"/>
        <pt x="115" y="411" on="1"/>
        <pt x="20" y="447" on="1"/>
        <pt x="47" y="545" on="1"/>
        <pt x="149" y="523" on="1"/>
        <pt x="159" y="622" on="1"/>
        <pt x="269" y="622" on="1"/>
        <pt x="278" y="522" on="1"/>
        <pt x="375" y="542" on="1"/>
      </contour>
    </TTGlyph>
    <TTGlyph name="at" xMin="24" yMin="-182" xMax="862" yMax="664">
      <contour>
        <pt x="627" y="354" on="1"/>
        <pt x="622" y="151" on="1"/>
        <pt x="622" y="115" on="0"/>
        <pt x="647" y="115" on="1"/>
        <pt x="680" y="115" on="0"/>
        <pt x="723" y="206" on="0"/>
        <pt x="723" y="279" on="1"/>
        <pt x="723" y="397" on="0"/>
        <pt x="586" y="540" on="0"/>
        <pt x="463" y="540" on="1"/>
        <pt x="316" y="540" on="0"/>
        <pt x="163" y="373" on="0"/>
        <pt x="163" y="84" on="0"/>
        <pt x="312" y="-63" on="0"/>
        <pt x="442" y="-63" on="1"/>
        <pt x="513" y="-63" on="0"/>
        <pt x="622" y="-43" on="1"/>
        <pt x="622" y="-160" on="1"/>
        <pt x="531" y="-182" on="0"/>
        <pt x="347" y="-182" on="0"/>
        <pt x="202" y="-134" on="0"/>
        <pt x="88" y="-37" on="0"/>
        <pt x="24" y="125" on="0"/>
        <pt x="24" y="230" on="1"/>
        <pt x="24" y="416" on="0"/>
        <pt x="266" y="664" on="0"/>
        <pt x="654" y="664" on="0"/>
        <pt x="862" y="454" on="0"/>
        <pt x="862" y="276" on="1"/>
        <pt x="862" y="152" on="0"/>
        <pt x="732" y="-10" on="0"/>
        <pt x="614" y="-10" on="1"/>
        <pt x="605" y="-10" on="1"/>
        <pt x="521" y="-10" on="0"/>
        <pt x="491" y="41" on="1"/>
        <pt x="486" y="41" on="1"/>
        <pt x="449" y="-10" on="0"/>
        <pt x="372" y="-10" on="1"/>
        <pt x="313" y="-10" on="0"/>
        <pt x="250" y="66" on="0"/>
        <pt x="250" y="132" on="1"/>
        <pt x="250" y="215" on="0"/>
        <pt x="353" y="279" on="0"/>
        <pt x="464" y="289" on="1"/>
        <pt x="464" y="313" on="1"/>
        <pt x="464" y="341" on="0"/>
        <pt x="436" y="341" on="1"/>
        <pt x="392" y="341" on="0"/>
        <pt x="290" y="312" on="1"/>
        <pt x="266" y="455" on="1"/>
        <pt x="406" y="491" on="0"/>
        <pt x="559" y="491" on="0"/>
        <pt x="627" y="425" on="0"/>
      </contour>
      <contour>
        <pt x="434" y="107" on="1"/>
        <pt x="471" y="107" on="0"/>
        <pt x="471" y="146" on="1"/>
        <pt x="471" y="195" on="1"/>
        <pt x="434" y="190" on="0"/>
        <pt x="403" y="169" on="0"/>
        <pt x="403" y="144" on="1"/>
        <pt x="403" y="107" on="0"/>
      </contour>
    </TTGlyph>
    <TTGlyph name="atilde" xMin="14" yMin="-10" xMax="428" yMax="660">
      <contour>
        <pt x="391" y="354" on="1"/>
        <pt x="386" y="147" on="1"/>
        <pt x="386" y="128" on="0"/>
        <pt x="405" y="115" on="0"/>
        <pt x="428" y="115" on="1"/>
        <pt x="413" y="-6" on="1"/>
        <pt x="355" y="-10" on="0"/>
        <pt x="349" y="-10" on="1"/>
        <pt x="275" y="-10" on="0"/>
        <pt x="255" y="41" on="1"/>
        <pt x="250" y="41" on="1"/>
        <pt x="213" y="-10" on="0"/>
        <pt x="136" y="-10" on="1"/>
        <pt x="77" y="-10" on="0"/>
        <pt x="14" y="66" on="0"/>
        <pt x="14" y="132" on="1"/>
        <pt x="14" y="215" on="0"/>
        <pt x="117" y="279" on="0"/>
        <pt x="228" y="289" on="1"/>
        <pt x="228" y="313" on="1"/>
        <pt x="228" y="341" on="0"/>
        <pt x="200" y="341" on="1"/>
        <pt x="152" y="341" on="0"/>
        <pt x="50" y="312" on="1"/>
        <pt x="25" y="458" on="1"/>
        <pt x="153" y="491" on="0"/>
        <pt x="323" y="491" on="0"/>
        <pt x="391" y="425" on="0"/>
      </contour>
      <contour>
        <pt x="198" y="107" on="1"/>
        <pt x="235" y="107" on="0"/>
        <pt x="235" y="146" on="1"/>
        <pt x="235" y="195" on="1"/>
        <pt x="198" y="190" on="0"/>
        <pt x="167" y="169" on="0"/>
        <pt x="167" y="144" on="1"/>
        <pt x="167" y="107" on="0"/>
      </contour>
      <contour>
        <pt x="359" y="660" on="1"/>
        <pt x="359" y="652" on="1"/>
        <pt x="359" y="588" on="0"/>
        <pt x="323" y="522" on="0"/>
        <pt x="269" y="522" on="1"/>
        <pt x="233" y="522" on="0"/>
        <pt x="189" y="538" on="1"/>
        <pt x="165" y="546" on="1"/>
        <pt x="165" y="511" on="1"/>
        <pt x="56" y="511" on="1"/>
        <pt x="56" y="521" on="1"/>
        <pt x="56" y="586" on="0"/>
        <pt x="94" y="651" on="0"/>
        <pt x="142" y="651" on="1"/>
        <pt x="158" y="651" on="0"/>
        <pt x="231" y="632" on="1"/>
        <pt x="251" y="627" on="1"/>
        <pt x="251" y="660" on="1"/>
      </contour>
    </TTGlyph>
    <TTGlyph name="b" xMin="30" yMin="-10" xMax="442" yMax="641">
      <contour>
        <pt x="380" y="490" on="0"/>
        <pt x="442" y="381" on="0"/>
        <pt x="442" y="116" on="0"/>
        <pt x="376" y="-10" on="0"/>
        <pt x="280" y="-10" on="1"/>
        <pt x="205" y="-10" on="0"/>
        <pt x="175" y="29" on="1"/>
        <pt x="171" y="29" on="1"/>
        <pt x="161" y="0" on="1"/>
        <pt x="30" y="0" on="1"/>
        <pt x="30" y="641" on="1"/>
        <pt x="197" y="641" on="1"/>
        <pt x="197" y="468" on="1"/>
        <pt x="201" y="468" on="1"/>
        <pt x="234" y="490" on="0"/>
        <pt x="286" y="490" on="1"/>
      </contour>
      <contour>
        <pt x="272" y="168" on="0"/>
        <pt x="274" y="202" on="0"/>
        <pt x="274" y="297" on="0"/>
        <pt x="260" y="348" on="0"/>
        <pt x="217" y="348" on="0"/>
        <pt x="196" y="336" on="1"/>
        <pt x="196" y="129" on="1"/>
        <pt x="215" y="120" on="0"/>
        <pt x="250" y="120" on="0"/>
        <pt x="265" y="133" on="0"/>
      </contour>
    </TTGlyph>
    <TTGlyph name="backslash" xMin="-10" yMin="-147" xMax="371" yMax="621">
      <contour>
        <pt x="206" y="-147" on="1"/>
        <pt x="-10" y="621" on="1"/>
        <pt x="156" y="621" on="1"/>
        <pt x="371" y="-147" on="1"/>
      </contour>
    </TTGlyph>
    <TTGlyph name="bar" xMin="90" yMin="-147" xMax="247" yMax="621">
      <contour>
        <pt x="247" y="-147" on="1"/>
        <pt x="90" y="-147" on="1"/>
        <pt x="90" y="621" on="1"/>
        <pt x="247" y="621" on="1"/>
      </contour>
    </TTGlyph>
    <TTGlyph name="braceleft" xMin="8" yMin="-137" xMax="293" yMax="641">
      <contour>
        <pt x="293" y="-137" on="1"/>
        <pt x="183" y="-137" on="1"/>
        <pt x="118" y="-137" on="0"/>
        <pt x="62" y="-77" on="0"/>
        <pt x="62" y="-8" on="1"/>
        <pt x="62" y="156" on="1"/>
        <pt x="62" y="183" on="0"/>
        <pt x="44" y="194" on="0"/>
        <pt x="8" y="194" on="1"/>
        <pt x="8" y="322" on="1"/>
        <pt x="44" y="322" on="0"/>
        <pt x="62" y="332" on="0"/>
        <pt x="62" y="359" on="1"/>
        <pt x="62" y="504" on="1"/>
        <pt x="62" y="580" on="0"/>
        <pt x="116" y="641" on="0"/>
        <pt x="183" y="641" on="1"/>
        <pt x="293" y="641" on="1"/>
        <pt x="293" y="508" on="1"/>
        <pt x="225" y="508" on="1"/>
        <pt x="225" y="348" on="1"/>
        <pt x="225" y="308" on="0"/>
        <pt x="203" y="273" on="0"/>
        <pt x="177" y="260" on="1"/>
        <pt x="177" y="253" on="1"/>
        <pt x="203" y="242" on="0"/>
        <pt x="225" y="205" on="0"/>
        <pt x="225" y="167" on="1"/>
        <pt x="225" y="-10" on="1"/>
        <pt x="293" y="-10" on="1"/>
      </contour>
    </TTGlyph>
    <TTGlyph name="braceright" xMin="42" yMin="-137" xMax="327" yMax="641">
      <contour>
        <pt x="152" y="-137" on="1"/>
        <pt x="42" y="-137" on="1"/>
        <pt x="42" y="-10" on="1"/>
        <pt x="110" y="-10" on="1"/>
        <pt x="110" y="167" on="1"/>
        <pt x="110" y="205" on="0"/>
        <pt x="132" y="242" on="0"/>
        <pt x="158" y="253" on="1"/>
        <pt x="158" y="260" on="1"/>
        <pt x="132" y="273" on="0"/>
        <pt x="110" y="308" on="0"/>
        <pt x="110" y="348" on="1"/>
        <pt x="110" y="508" on="1"/>
        <pt x="42" y="508" on="1"/>
        <pt x="42" y="641" on="1"/>
        <pt x="152" y="641" on="1"/>
        <pt x="219" y="641" on="0"/>
        <pt x="273" y="580" on="0"/>
        <pt x="273" y="504" on="1"/>
        <pt x="273" y="359" on="1"/>
        <pt x="273" y="332" on="0"/>
        <pt x="290" y="322" on="0"/>
        <pt x="327" y="322" on="1"/>
        <pt x="327" y="194" on="1"/>
        <pt x="292" y="194" on="0"/>
        <pt x="273" y="183" on="0"/>
        <pt x="273" y="156" on="1"/>
        <pt x="273" y="-8" on="1"/>
        <pt x="273" y="-77" on="0"/>
        <pt x="217" y="-137" on="0"/>
      </contour>
    </TTGlyph>
    <TTGlyph name="bracketleft" xMin="48" yMin="-137" xMax="284" yMax="641">
      <contour>
        <pt x="284" y="-137" on="1"/>
        <pt x="48" y="-137" on="1"/>
        <pt x="48" y="641" on="1"/>
        <pt x="284" y="641" on="1"/>
        <pt x="284" y="512" on="1"/>
        <pt x="218" y="512" on="1"/>
        <pt x="218" y="-9" on="1"/>
        <pt x="284" y="-9" on="1"/>
      </contour>
    </TTGlyph>
    <TTGlyph name="bracketright" xMin="32" yMin="-137" xMax="268" yMax="641">
      <contour>
        <pt x="268" y="-137" on="1"/>
        <pt x="32" y="-137" on="1"/>
        <pt x="32" y="-9" on="1"/>
        <pt x="98" y="-9" on="1"/>
        <pt x="98" y="512" on="1"/>
        <pt x="32" y="512" on="1"/>
        <pt x="32" y="641" on="1"/>
        <pt x="268" y="641" on="1"/>
      </contour>
    </TTGlyph>
    <TTGlyph name="breve" xMin="131" yMin="506" xMax="405" yMax="663">
      <contour>
        <pt x="242" y="616" on="0"/>
        <pt x="296" y="616" on="0"/>
        <pt x="296" y="663" on="1"/>
        <pt x="405" y="663" on="1"/>
        <pt x="402" y="506" on="0"/>
        <pt x="131" y="506" on="0"/>
        <pt x="131" y="663" on="1"/>
        <pt x="242" y="663" on="1"/>
      </contour>
    </TTGlyph>
    <TTGlyph name="brokenbar" xMin="90" yMin="-147" xMax="247" yMax="621">
      <contour>
        <pt x="247" y="-147" on="1"/>
        <pt x="90" y="-147" on="1"/>
        <pt x="90" y="177" on="1"/>
        <pt x="247" y="177" on="1"/>
      </contour>
      <contour>
        <pt x="247" y="621" on="1"/>
        <pt x="247" y="325" on="1"/>
        <pt x="90" y="325" on="1"/>
        <pt x="90" y="621" on="1"/>
      </contour>
    </TTGlyph>
    <TTGlyph name="bullet" xMin="82" yMin="171" xMax="331" yMax="430">
      <contour>
        <pt x="209" y="171" on="1"/>
        <pt x="82" y="171" on="0"/>
        <pt x="82" y="430" on="0"/>
        <pt x="209" y="430" on="1"/>
        <pt x="331" y="430" on="0"/>
        <pt x="331" y="171" on="0"/>
      </contour>
    </TTGlyph>
    <TTGlyph name="c" xMin="22" yMin="-10" xMax="345" yMax="491">
      <contour>
        <pt x="210" y="345" on="0"/>
        <pt x="190" y="292" on="0"/>
        <pt x="190" y="180" on="0"/>
        <pt x="209" y="130" on="0"/>
        <pt x="270" y="130" on="0"/>
        <pt x="319" y="141" on="1"/>
        <pt x="337" y="13" on="1"/>
        <pt x="268" y="-10" on="0"/>
        <pt x="214" y="-10" on="1"/>
        <pt x="119" y="-10" on="0"/>
        <pt x="22" y="118" on="0"/>
        <pt x="22" y="348" on="0"/>
        <pt x="122" y="491" on="0"/>
        <pt x="217" y="491" on="1"/>
        <pt x="288" y="491" on="0"/>
        <pt x="345" y="467" on="1"/>
        <pt x="327" y="320" on="1"/>
        <pt x="269" y="345" on="0"/>
      </contour>
    </TTGlyph>
    <TTGlyph name="caron" xMin="124" yMin="518" xMax="376" yMax="654">
      <contour>
        <pt x="182" y="518" on="1"/>
        <pt x="124" y="654" on="1"/>
        <pt x="222" y="654" on="1"/>
        <pt x="250" y="603" on="1"/>
        <pt x="278" y="654" on="1"/>
        <pt x="376" y="654" on="1"/>
        <pt x="319" y="518" on="1"/>
      </contour>
    </TTGlyph>
    <TTGlyph name="ccedilla" xMin="15" yMin="-171" xMax="338" yMax="491">
      <contour>
        <pt x="320" y="324" on="1"/>
        <pt x="262" y="349" on="0"/>
        <pt x="203" y="349" on="0"/>
        <pt x="183" y="293" on="0"/>
        <pt x="183" y="180" on="0"/>
        <pt x="202" y="130" on="0"/>
        <pt x="269" y="130" on="0"/>
        <pt x="318" y="141" on="1"/>
        <pt x="336" y="13" on="1"/>
        <pt x="278" y="-6" on="0"/>
        <pt x="228" y="-9" on="1"/>
        <pt x="221" y="-18" on="0"/>
        <pt x="221" y="-32" on="0"/>
        <pt x="237" y="-40" on="1"/>
        <pt x="285" y="-64" on="0"/>
        <pt x="285" y="-132" on="0"/>
        <pt x="236" y="-171" on="0"/>
        <pt x="140" y="-171" on="0"/>
        <pt x="96" y="-142" on="1"/>
        <pt x="130" y="-79" on="1"/>
        <pt x="171" y="-110" on="0"/>
        <pt x="203" y="-110" on="0"/>
        <pt x="203" y="-91" on="0"/>
        <pt x="190" y="-84" on="1"/>
        <pt x="173" y="-74" on="1"/>
        <pt x="150" y="-62" on="0"/>
        <pt x="150" y="-23" on="0"/>
        <pt x="165" y="-6" on="1"/>
        <pt x="91" y="7" on="0"/>
        <pt x="15" y="131" on="0"/>
        <pt x="15" y="348" on="0"/>
        <pt x="115" y="491" on="0"/>
        <pt x="210" y="491" on="1"/>
        <pt x="281" y="491" on="0"/>
        <pt x="338" y="467" on="1"/>
      </contour>
    </TTGlyph>
    <TTGlyph name="cedilla" xMin="163" yMin="-171" xMax="352" yMax="-8">
      <contour>
        <pt x="320" y="-48" on="0"/>
        <pt x="352" y="-77" on="0"/>
        <pt x="352" y="-132" on="0"/>
        <pt x="303" y="-171" on="0"/>
        <pt x="206" y="-171" on="0"/>
        <pt x="163" y="-142" on="1"/>
        <pt x="197" y="-79" on="1"/>
        <pt x="238" y="-110" on="0"/>
        <pt x="270" y="-110" on="0"/>
        <pt x="270" y="-91" on="0"/>
        <pt x="257" y="-84" on="1"/>
        <pt x="240" y="-74" on="1"/>
        <pt x="217" y="-62" on="0"/>
        <pt x="217" y="-21" on="0"/>
        <pt x="232" y="-8" on="1"/>
        <pt x="297" y="-8" on="1"/>
        <pt x="288" y="-17" on="0"/>
        <pt x="288" y="-32" on="0"/>
      </contour>
    </TTGlyph>
    <TTGlyph name="cent" xMin="34" yMin="-79" xMax="357" yMax="568">
      <contour>
        <pt x="222" y="345" on="0"/>
        <pt x="202" y="292" on="0"/>
        <pt x="202" y="180" on="0"/>
        <pt x="221" y="130" on="0"/>
        <pt x="282" y="130" on="0"/>
        <pt x="331" y="141" on="1"/>
        <pt x="349" y="13" on="1"/>
        <pt x="318" y="2" on="0"/>
        <pt x="280" y="-5" on="1"/>
        <pt x="280" y="-79" on="1"/>
        <pt x="148" y="-79" on="1"/>
        <pt x="148" y="5" on="1"/>
        <pt x="34" y="53" on="0"/>
        <pt x="34" y="231" on="1"/>
        <pt x="34" y="318" on="0"/>
        <pt x="92" y="445" on="0"/>
        <pt x="148" y="473" on="1"/>
        <pt x="148" y="568" on="1"/>
        <pt x="280" y="568" on="1"/>
        <pt x="280" y="487" on="1"/>
        <pt x="320" y="483" on="0"/>
        <pt x="357" y="467" on="1"/>
        <pt x="339" y="320" on="1"/>
        <pt x="281" y="345" on="0"/>
      </contour>
    </TTGlyph>
    <TTGlyph name="circumflex" xMin="115" yMin="520" xMax="398" yMax="655">
      <contour>
        <pt x="332" y="655" on="1"/>
        <pt x="398" y="520" on="1"/>
        <pt x="292" y="520" on="1"/>
        <pt x="257" y="576" on="1"/>
        <pt x="222" y="520" on="1"/>
        <pt x="115" y="520" on="1"/>
        <pt x="181" y="655" on="1"/>
      </contour>
    </TTGlyph>
    <TTGlyph name="colon" xMin="75" yMin="-11" xMax="251" yMax="440">
      <contour>
        <pt x="75" y="68" on="1"/>
        <pt x="75" y="108" on="0"/>
        <pt x="117" y="147" on="0"/>
        <pt x="209" y="147" on="0"/>
        <pt x="251" y="108" on="0"/>
        <pt x="251" y="66" on="1"/>
        <pt x="251" y="-11" on="0"/>
        <pt x="75" y="-11" on="0"/>
      </contour>
      <contour>
        <pt x="75" y="361" on="1"/>
        <pt x="75" y="401" on="0"/>
        <pt x="117" y="440" on="0"/>
        <pt x="209" y="440" on="0"/>
        <pt x="251" y="401" on="0"/>
        <pt x="251" y="359" on="1"/>
        <pt x="251" y="282" on="0"/>
        <pt x="75" y="282" on="0"/>
      </contour>
    </TTGlyph>
    <TTGlyph name="comma" xMin="75" yMin="-113" xMax="259" yMax="148">
      <contour>
        <pt x="166" y="148" on="1"/>
        <pt x="259" y="148" on="0"/>
        <pt x="259" y="56" on="1"/>
        <pt x="259" y="21" on="0"/>
        <pt x="219" y="-44" on="0"/>
        <pt x="175" y="-83" on="0"/>
        <pt x="134" y="-113" on="1"/>
        <pt x="75" y="-91" on="1"/>
        <pt x="138" y="-8" on="1"/>
        <pt x="136" y="-3" on="1"/>
        <pt x="82" y="12" on="0"/>
        <pt x="82" y="68" on="1"/>
        <pt x="82" y="148" on="0"/>
      </contour>
    </TTGlyph>
    <TTGlyph name="commaaccent" xMin="161" yMin="-175" xMax="345" yMax="-9">
      <contour>
        <pt x="161" y="-76" on="1"/>
        <pt x="161" y="-9" on="0"/>
        <pt x="345" y="-9" on="0"/>
        <pt x="345" y="-78" on="1"/>
        <pt x="345" y="-132" on="0"/>
        <pt x="268" y="-175" on="1"/>
        <pt x="188" y="-169" on="1"/>
        <pt x="224" y="-128" on="1"/>
        <pt x="196" y="-128" on="0"/>
        <pt x="161" y="-101" on="0"/>
      </contour>
    </TTGlyph>
    <TTGlyph name="copyright" xMin="40" yMin="-198" xMax="900" yMax="667">
      <contour>
        <pt x="466" y="519" on="1"/>
        <pt x="200" y="519" on="0"/>
        <pt x="200" y="-55" on="0"/>
        <pt x="469" y="-55" on="1"/>
        <pt x="603" y="-55" on="0"/>
        <pt x="735" y="88" on="0"/>
        <pt x="735" y="369" on="0"/>
        <pt x="601" y="519" on="0"/>
      </contour>
      <contour>
        <pt x="40" y="435" on="0"/>
        <pt x="269" y="667" on="0"/>
        <pt x="672" y="667" on="0"/>
        <pt x="900" y="435" on="0"/>
        <pt x="900" y="33" on="0"/>
        <pt x="664" y="-198" on="0"/>
        <pt x="262" y="-198" on="0"/>
        <pt x="40" y="29" on="0"/>
      </contour>
      <contour>
        <pt x="439" y="172" on="0"/>
        <pt x="459" y="125" on="0"/>
        <pt x="514" y="125" on="0"/>
        <pt x="571" y="141" on="1"/>
        <pt x="594" y="15" on="1"/>
        <pt x="517" y="-10" on="0"/>
        <pt x="465" y="-10" on="1"/>
        <pt x="372" y="-10" on="0"/>
        <pt x="288" y="112" on="0"/>
        <pt x="288" y="351" on="0"/>
        <pt x="376" y="478" on="0"/>
        <pt x="476" y="478" on="1"/>
        <pt x="534" y="478" on="0"/>
        <pt x="594" y="449" on="1"/>
        <pt x="570" y="315" on="1"/>
        <pt x="507" y="336" on="0"/>
        <pt x="458" y="336" on="0"/>
        <pt x="439" y="287" on="0"/>
      </contour>
    </TTGlyph>
    <TTGlyph name="currency" xMin="48" yMin="72" xMax="731" yMax="542">
      <contour>
        <pt x="84" y="76" on="1"/>
        <pt x="54" y="126" on="1"/>
        <pt x="178" y="198" on="1"/>
        <pt x="161" y="252" on="0"/>
        <pt x="161" y="350" on="0"/>
        <pt x="173" y="395" on="1"/>
        <pt x="48" y="468" on="1"/>
        <pt x="79" y="521" on="1"/>
        <pt x="199" y="452" on="1"/>
        <pt x="268" y="542" on="0"/>
        <pt x="519" y="542" on="0"/>
        <pt x="587" y="454" on="1"/>
        <pt x="701" y="521" on="1"/>
        <pt x="731" y="468" on="1"/>
        <pt x="614" y="400" on="1"/>
        <pt x="627" y="355" on="0"/>
        <pt x="627" y="255" on="0"/>
        <pt x="607" y="197" on="1"/>
        <pt x="727" y="126" on="1"/>
        <pt x="695" y="75" on="1"/>
        <pt x="575" y="146" on="1"/>
        <pt x="506" y="72" on="0"/>
        <pt x="274" y="72" on="0"/>
        <pt x="206" y="148" on="1"/>
        <pt x="163" y="124" on="0"/>
      </contour>
      <contour>
        <pt x="391" y="122" on="1"/>
        <pt x="565" y="122" on="0"/>
        <pt x="565" y="306" on="1"/>
        <pt x="565" y="394" on="0"/>
        <pt x="478" y="490" on="0"/>
        <pt x="391" y="490" on="1"/>
        <pt x="219" y="490" on="0"/>
        <pt x="219" y="305" on="1"/>
        <pt x="219" y="214" on="0"/>
        <pt x="309" y="122" on="0"/>
      </contour>
    </TTGlyph>
    <TTGlyph name="d" xMin="24" yMin="-10" xMax="469" yMax="641">
      <contour>
        <pt x="454" y="-6" on="1"/>
        <pt x="387" y="-10" on="1"/>
        <pt x="310" y="-10" on="0"/>
        <pt x="293" y="41" on="1"/>
        <pt x="288" y="41" on="1"/>
        <pt x="255" y="-10" on="0"/>
        <pt x="187" y="-10" on="1"/>
        <pt x="97" y="-10" on="0"/>
        <pt x="24" y="116" on="0"/>
        <pt x="24" y="365" on="0"/>
        <pt x="106" y="491" on="0"/>
        <pt x="183" y="491" on="1"/>
        <pt x="236" y="491" on="0"/>
        <pt x="265" y="466" on="1"/>
        <pt x="265" y="641" on="1"/>
        <pt x="432" y="641" on="1"/>
        <pt x="432" y="147" on="1"/>
        <pt x="432" y="128" on="0"/>
        <pt x="448" y="115" on="0"/>
        <pt x="469" y="115" on="1"/>
      </contour>
      <contour>
        <pt x="206" y="350" on="0"/>
        <pt x="192" y="299" on="0"/>
        <pt x="192" y="204" on="0"/>
        <pt x="194" y="170" on="0"/>
        <pt x="201" y="135" on="0"/>
        <pt x="216" y="122" on="0"/>
        <pt x="251" y="122" on="0"/>
        <pt x="270" y="131" on="1"/>
        <pt x="270" y="338" on="1"/>
        <pt x="249" y="350" on="0"/>
      </contour>
    </TTGlyph>
    <TTGlyph name="dagger" xMin="30" yMin="-149" xMax="375" yMax="608">
      <contour>
        <pt x="30" y="333" on="1"/>
        <pt x="30" y="466" on="1"/>
        <pt x="126" y="466" on="1"/>
        <pt x="126" y="608" on="1"/>
        <pt x="274" y="608" on="1"/>
        <pt x="274" y="466" on="1"/>
        <pt x="375" y="466" on="1"/>
        <pt x="375" y="333" on="1"/>
        <pt x="274" y="333" on="1"/>
        <pt x="274" y="-149" on="1"/>
        <pt x="126" y="-149" on="1"/>
        <pt x="126" y="333" on="1"/>
      </contour>
    </TTGlyph>
    <TTGlyph name="daggerdbl" xMin="30" yMin="-149" xMax="375" yMax="608">
      <contour>
        <pt x="30" y="7" on="1"/>
        <pt x="30" y="141" on="1"/>
        <pt x="126" y="141" on="1"/>
        <pt x="126" y="333" on="1"/>
        <pt x="30" y="333" on="1"/>
        <pt x="30" y="466" on="1"/>
        <pt x="126" y="466" on="1"/>
        <pt x="126" y="608" on="1"/>
        <pt x="274" y="608" on="1"/>
        <pt x="274" y="466" on="1"/>
        <pt x="375" y="466" on="1"/>
        <pt x="375" y="333" on="1"/>
        <pt x="274" y="333" on="1"/>
        <pt x="274" y="141" on="1"/>
        <pt x="374" y="141" on="1"/>
        <pt x="374" y="7" on="1"/>
        <pt x="274" y="7" on="1"/>
        <pt x="274" y="-149" on="1"/>
        <pt x="126" y="-149" on="1"/>
        <pt x="126" y="7" on="1"/>
      </contour>
    </TTGlyph>
    <TTGlyph name="degree" xMin="36" yMin="382" xMax="266" yMax="631">
      <contour>
        <pt x="212" y="631" on="0"/>
        <pt x="266" y="571" on="0"/>
        <pt x="266" y="442" on="0"/>
        <pt x="212" y="382" on="0"/>
        <pt x="90" y="382" on="0"/>
        <pt x="36" y="442" on="0"/>
        <pt x="36" y="569" on="0"/>
        <pt x="91" y="631" on="0"/>
      </contour>
      <contour>
        <pt x="176" y="487" on="0"/>
        <pt x="176" y="525" on="0"/>
        <pt x="165" y="542" on="0"/>
        <pt x="136" y="542" on="0"/>
        <pt x="125" y="526" on="0"/>
        <pt x="125" y="487" on="0"/>
        <pt x="136" y="472" on="0"/>
        <pt x="164" y="472" on="0"/>
      </contour>
    </TTGlyph>
    <TTGlyph name="dieresis" xMin="109" yMin="519" xMax="405" yMax="636">
      <contour>
        <pt x="142" y="519" on="0"/>
        <pt x="109" y="550" on="0"/>
        <pt x="109" y="605" on="0"/>
        <pt x="142" y="636" on="0"/>
        <pt x="202" y="636" on="0"/>
        <pt x="236" y="605" on="0"/>
        <pt x="236" y="578" on="1"/>
        <pt x="236" y="519" on="0"/>
        <pt x="170" y="519" on="1"/>
      </contour>
      <contour>
        <pt x="311" y="519" on="0"/>
        <pt x="278" y="550" on="0"/>
        <pt x="278" y="605" on="0"/>
        <pt x="312" y="636" on="0"/>
        <pt x="372" y="636" on="0"/>
        <pt x="405" y="605" on="0"/>
        <pt x="405" y="550" on="0"/>
        <pt x="372" y="519" on="0"/>
      </contour>
    </TTGlyph>
    <TTGlyph name="divide" xMin="52" yMin="6" xMax="430" yMax="578">
      <contour>
        <pt x="430" y="231" on="1"/>
        <pt x="52" y="231" on="1"/>
        <pt x="52" y="357" on="1"/>
        <pt x="430" y="357" on="1"/>
      </contour>
      <contour>
        <pt x="154" y="85" on="1"/>
        <pt x="154" y="125" on="0"/>
        <pt x="196" y="164" on="0"/>
        <pt x="288" y="164" on="0"/>
        <pt x="330" y="125" on="0"/>
        <pt x="330" y="83" on="1"/>
        <pt x="330" y="6" on="0"/>
        <pt x="154" y="6" on="0"/>
      </contour>
      <contour>
        <pt x="154" y="499" on="1"/>
        <pt x="154" y="539" on="0"/>
        <pt x="196" y="578" on="0"/>
        <pt x="288" y="578" on="0"/>
        <pt x="330" y="539" on="0"/>
        <pt x="330" y="497" on="1"/>
        <pt x="330" y="420" on="0"/>
        <pt x="154" y="420" on="0"/>
      </contour>
    </TTGlyph>
    <TTGlyph name="dollar" xMin="32" yMin="-79" xMax="427" yMax="718">
      <contour>
        <pt x="77" y="299" on="0"/>
        <pt x="32" y="379" on="0"/>
        <pt x="32" y="507" on="0"/>
        <pt x="103" y="608" on="0"/>
        <pt x="168" y="624" on="1"/>
        <pt x="168" y="718" on="1"/>
        <pt x="300" y="718" on="1"/>
        <pt x="300" y="628" on="1"/>
        <pt x="350" y="624" on="0"/>
        <pt x="412" y="613" on="1"/>
        <pt x="392" y="453" on="1"/>
        <pt x="293" y="476" on="0"/>
        <pt x="256" y="476" on="1"/>
        <pt x="209" y="476" on="0"/>
        <pt x="209" y="438" on="1"/>
        <pt x="209" y="423" on="0"/>
        <pt x="254" y="395" on="0"/>
        <pt x="318" y="364" on="0"/>
        <pt x="382" y="321" on="0"/>
        <pt x="427" y="241" on="0"/>
        <pt x="427" y="114" on="0"/>
        <pt x="362" y="15" on="0"/>
        <pt x="300" y="-1" on="1"/>
        <pt x="300" y="-79" on="1"/>
        <pt x="168" y="-79" on="1"/>
        <pt x="168" y="-7" on="1"/>
        <pt x="104" y="0" on="0"/>
        <pt x="49" y="19" on="1"/>
        <pt x="60" y="168" on="1"/>
        <pt x="167" y="137" on="0"/>
        <pt x="251" y="137" on="0"/>
        <pt x="251" y="174" on="1"/>
        <pt x="251" y="193" on="0"/>
        <pt x="206" y="225" on="0"/>
        <pt x="142" y="257" on="0"/>
      </contour>
    </TTGlyph>
    <TTGlyph name="dotaccent" xMin="169" yMin="494" xMax="349" yMax="648">
      <contour>
        <pt x="169" y="530" on="0"/>
        <pt x="169" y="610" on="0"/>
        <pt x="211" y="648" on="0"/>
        <pt x="307" y="648" on="0"/>
        <pt x="349" y="610" on="0"/>
        <pt x="349" y="531" on="0"/>
        <pt x="307" y="494" on="0"/>
        <pt x="211" y="494" on="0"/>
      </contour>
    </TTGlyph>
    <TTGlyph name="dotaccentcmb" xMin="169" yMin="494" xMax="349" yMax="648">
      <contour>
        <pt x="169" y="530" on="0"/>
        <pt x="169" y="610" on="0"/>
        <pt x="211" y="648" on="0"/>
        <pt x="307" y="648" on="0"/>
        <pt x="349" y="610" on="0"/>
        <pt x="349" y="531" on="0"/>
        <pt x="307" y="494" on="0"/>
        <pt x="211" y="494" on="0"/>
      </contour>
    </TTGlyph>
    <TTGlyph name="dotlessi" xMin="34" yMin="0" xMax="199" yMax="474">
      <contour>
        <pt x="199" y="0" on="1"/>
        <pt x="34" y="0" on="1"/>
        <pt x="34" y="474" on="1"/>
        <pt x="199" y="474" on="1"/>
      </contour>
    </TTGlyph>
    <TTGlyph name="e" xMin="22" yMin="-10" xMax="426" yMax="491">
      <contour>
        <pt x="230" y="348" on="1"/>
        <pt x="204" y="348" on="0"/>
        <pt x="188" y="313" on="0"/>
        <pt x="188" y="277" on="1"/>
        <pt x="275" y="277" on="1"/>
        <pt x="275" y="301" on="1"/>
        <pt x="275" y="348" on="0"/>
      </contour>
      <contour>
        <pt x="234" y="491" on="1"/>
        <pt x="337" y="491" on="0"/>
        <pt x="426" y="392" on="0"/>
        <pt x="426" y="300" on="1"/>
        <pt x="426" y="288" on="0"/>
        <pt x="419" y="192" on="1"/>
        <pt x="191" y="192" on="1"/>
        <pt x="191" y="117" on="0"/>
        <pt x="260" y="117" on="1"/>
        <pt x="293" y="117" on="0"/>
        <pt x="389" y="140" on="1"/>
        <pt x="403" y="16" on="1"/>
        <pt x="319" y="-10" on="0"/>
        <pt x="235" y="-10" on="1"/>
        <pt x="132" y="-10" on="0"/>
        <pt x="22" y="125" on="0"/>
        <pt x="22" y="241" on="1"/>
        <pt x="22" y="491" on="0"/>
      </contour>
    </TTGlyph>
    <TTGlyph name="eacute" xMin="24" yMin="-10" xMax="428" yMax="660">
      <contour>
        <pt x="232" y="348" on="1"/>
        <pt x="206" y="348" on="0"/>
        <pt x="190" y="313" on="0"/>
        <pt x="190" y="277" on="1"/>
        <pt x="277" y="277" on="1"/>
        <pt x="277" y="301" on="1"/>
        <pt x="277" y="348" on="0"/>
      </contour>
      <contour>
        <pt x="236" y="491" on="1"/>
        <pt x="339" y="491" on="0"/>
        <pt x="428" y="392" on="0"/>
        <pt x="428" y="300" on="1"/>
        <pt x="428" y="288" on="0"/>
        <pt x="421" y="192" on="1"/>
        <pt x="193" y="192" on="1"/>
        <pt x="193" y="117" on="0"/>
        <pt x="262" y="117" on="1"/>
        <pt x="295" y="117" on="0"/>
        <pt x="391" y="140" on="1"/>
        <pt x="405" y="16" on="1"/>
        <pt x="321" y="-10" on="0"/>
        <pt x="237" y="-10" on="1"/>
        <pt x="134" y="-10" on="0"/>
        <pt x="24" y="125" on="0"/>
        <pt x="24" y="241" on="1"/>
        <pt x="24" y="491" on="0"/>
      </contour>
      <contour>
        <pt x="392" y="660" on="1"/>
        <pt x="284" y="520" on="1"/>
        <pt x="169" y="520" on="1"/>
        <pt x="232" y="660" on="1"/>
      </contour>
    </TTGlyph>
    <TTGlyph name="ecircumflex" xMin="24" yMin="-10" xMax="428" yMax="655">
      <contour>
        <pt x="232" y="348" on="1"/>
        <pt x="206" y="348" on="0"/>
        <pt x="190" y="313" on="0"/>
        <pt x="190" y="277" on="1"/>
        <pt x="277" y="277" on="1"/>
        <pt x="277" y="301" on="1"/>
        <pt x="277" y="348" on="0"/>
      </contour>
      <contour>
        <pt x="236" y="491" on="1"/>
        <pt x="339" y="491" on="0"/>
        <pt x="428" y="392" on="0"/>
        <pt x="428" y="300" on="1"/>
        <pt x="428" y="288" on="0"/>
        <pt x="421" y="192" on="1"/>
        <pt x="193" y="192" on="1"/>
        <pt x="193" y="117" on="0"/>
        <pt x="262" y="117" on="1"/>
        <pt x="295" y="117" on="0"/>
        <pt x="391" y="140" on="1"/>
        <pt x="405" y="16" on="1"/>
        <pt x="321" y="-10" on="0"/>
        <pt x="237" y="-10" on="1"/>
        <pt x="134" y="-10" on="0"/>
        <pt x="24" y="125" on="0"/>
        <pt x="24" y="241" on="1"/>
        <pt x="24" y="491" on="0"/>
      </contour>
      <contour>
        <pt x="313" y="655" on="1"/>
        <pt x="379" y="520" on="1"/>
        <pt x="273" y="520" on="1"/>
        <pt x="238" y="576" on="1"/>
        <pt x="203" y="520" on="1"/>
        <pt x="96" y="520" on="1"/>
        <pt x="162" y="655" on="1"/>
      </contour>
    </TTGlyph>
    <TTGlyph name="edieresis" xMin="24" yMin="-10" xMax="428" yMax="636">
      <contour>
        <pt x="232" y="348" on="1"/>
        <pt x="206" y="348" on="0"/>
        <pt x="190" y="313" on="0"/>
        <pt x="190" y="277" on="1"/>
        <pt x="277" y="277" on="1"/>
        <pt x="277" y="301" on="1"/>
        <pt x="277" y="348" on="0"/>
      </contour>
      <contour>
        <pt x="236" y="491" on="1"/>
        <pt x="339" y="491" on="0"/>
        <pt x="428" y="392" on="0"/>
        <pt x="428" y="300" on="1"/>
        <pt x="428" y="288" on="0"/>
        <pt x="421" y="192" on="1"/>
        <pt x="193" y="192" on="1"/>
        <pt x="193" y="117" on="0"/>
        <pt x="262" y="117" on="1"/>
        <pt x="295" y="117" on="0"/>
        <pt x="391" y="140" on="1"/>
        <pt x="405" y="16" on="1"/>
        <pt x="321" y="-10" on="0"/>
        <pt x="237" y="-10" on="1"/>
        <pt x="134" y="-10" on="0"/>
        <pt x="24" y="125" on="0"/>
        <pt x="24" y="241" on="1"/>
        <pt x="24" y="491" on="0"/>
      </contour>
      <contour>
        <pt x="117" y="519" on="0"/>
        <pt x="84" y="550" on="0"/>
        <pt x="84" y="605" on="0"/>
        <pt x="117" y="636" on="0"/>
        <pt x="177" y="636" on="0"/>
        <pt x="211" y="605" on="0"/>
        <pt x="211" y="578" on="1"/>
        <pt x="211" y="519" on="0"/>
        <pt x="145" y="519" on="1"/>
      </contour>
      <contour>
        <pt x="286" y="519" on="0"/>
        <pt x="253" y="550" on="0"/>
        <pt x="253" y="605" on="0"/>
        <pt x="287" y="636" on="0"/>
        <pt x="347" y="636" on="0"/>
        <pt x="380" y="605" on="0"/>
        <pt x="380" y="550" on="0"/>
        <pt x="347" y="519" on="0"/>
      </contour>
    </TTGlyph>
    <TTGlyph name="egrave" xMin="24" yMin="-10" xMax="428" yMax="660">
      <contour>
        <pt x="232" y="348" on="1"/>
        <pt x="206" y="348" on="0"/>
        <pt x="190" y="313" on="0"/>
        <pt x="190" y="277" on="1"/>
        <pt x="277" y="277" on="1"/>
        <pt x="277" y="301" on="1"/>
        <pt x="277" y="348" on="0"/>
      </contour>
      <contour>
        <pt x="236" y="491" on="1"/>
        <pt x="339" y="491" on="0"/>
        <pt x="428" y="392" on="0"/>
        <pt x="428" y="300" on="1"/>
        <pt x="428" y="288" on="0"/>
        <pt x="421" y="192" on="1"/>
        <pt x="193" y="192" on="1"/>
        <pt x="193" y="117" on="0"/>
        <pt x="262" y="117" on="1"/>
        <pt x="295" y="117" on="0"/>
        <pt x="391" y="140" on="1"/>
        <pt x="405" y="16" on="1"/>
        <pt x="321" y="-10" on="0"/>
        <pt x="237" y="-10" on="1"/>
        <pt x="134" y="-10" on="0"/>
        <pt x="24" y="125" on="0"/>
        <pt x="24" y="241" on="1"/>
        <pt x="24" y="491" on="0"/>
      </contour>
      <contour>
        <pt x="204" y="520" on="1"/>
        <pt x="96" y="660" on="1"/>
        <pt x="254" y="660" on="1"/>
        <pt x="319" y="520" on="1"/>
      </contour>
    </TTGlyph>
    <TTGlyph name="eight" xMin="22" yMin="-10" xMax="442" yMax="631">
      <contour>
        <pt x="27" y="543" on="0"/>
        <pt x="134" y="631" on="0"/>
        <pt x="330" y="631" on="0"/>
        <pt x="435" y="544" on="0"/>
        <pt x="435" y="466" on="1"/>
        <pt x="435" y="411" on="0"/>
        <pt x="403" y="355" on="0"/>
        <pt x="360" y="321" on="1"/>
        <pt x="360" y="317" on="1"/>
        <pt x="403" y="292" on="0"/>
        <pt x="442" y="227" on="0"/>
        <pt x="442" y="176" on="1"/>
        <pt x="442" y="-10" on="0"/>
        <pt x="231" y="-10" on="1"/>
        <pt x="135" y="-10" on="0"/>
        <pt x="22" y="81" on="0"/>
        <pt x="22" y="266" on="0"/>
        <pt x="102" y="310" on="1"/>
        <pt x="102" y="314" on="1"/>
        <pt x="61" y="350" on="0"/>
        <pt x="27" y="410" on="0"/>
        <pt x="27" y="467" on="1"/>
      </contour>
      <contour>
        <pt x="235" y="119" on="1"/>
        <pt x="283" y="119" on="0"/>
        <pt x="283" y="170" on="1"/>
        <pt x="283" y="194" on="0"/>
        <pt x="257" y="224" on="0"/>
        <pt x="224" y="248" on="1"/>
        <pt x="198" y="224" on="0"/>
        <pt x="184" y="193" on="0"/>
        <pt x="184" y="177" on="1"/>
        <pt x="184" y="119" on="0"/>
      </contour>
      <contour>
        <pt x="234" y="495" on="1"/>
        <pt x="187" y="495" on="0"/>
        <pt x="187" y="448" on="1"/>
        <pt x="187" y="416" on="0"/>
        <pt x="211" y="396" on="1"/>
        <pt x="220" y="389" on="0"/>
        <pt x="241" y="374" on="1"/>
        <pt x="264" y="393" on="0"/>
        <pt x="285" y="421" on="0"/>
        <pt x="285" y="441" on="1"/>
        <pt x="285" y="495" on="0"/>
      </contour>
    </TTGlyph>
    <TTGlyph name="ellipsis" xMin="66" yMin="-11" xMax="716" yMax="147">
      <contour>
        <pt x="66" y="68" on="1"/>
        <pt x="66" y="108" on="0"/>
        <pt x="108" y="147" on="0"/>
        <pt x="200" y="147" on="0"/>
        <pt x="242" y="108" on="0"/>
        <pt x="242" y="66" on="1"/>
        <pt x="242" y="-11" on="0"/>
        <pt x="66" y="-11" on="0"/>
      </contour>
      <contour>
        <pt x="301" y="68" on="1"/>
        <pt x="301" y="108" on="0"/>
        <pt x="343" y="147" on="0"/>
        <pt x="435" y="147" on="0"/>
        <pt x="477" y="108" on="0"/>
        <pt x="477" y="66" on="1"/>
        <pt x="477" y="-11" on="0"/>
        <pt x="301" y="-11" on="0"/>
      </contour>
      <contour>
        <pt x="540" y="68" on="1"/>
        <pt x="540" y="108" on="0"/>
        <pt x="582" y="147" on="0"/>
        <pt x="674" y="147" on="0"/>
        <pt x="716" y="108" on="0"/>
        <pt x="716" y="66" on="1"/>
        <pt x="716" y="-11" on="0"/>
        <pt x="540" y="-11" on="0"/>
      </contour>
    </TTGlyph>
    <TTGlyph name="emdash" xMin="48" yMin="186" xMax="591" yMax="320">
      <contour>
        <pt x="591" y="186" on="1"/>
        <pt x="48" y="186" on="1"/>
        <pt x="48" y="320" on="1"/>
        <pt x="591" y="320" on="1"/>
      </contour>
    </TTGlyph>
    <TTGlyph name="endash" xMin="48" yMin="186" xMax="381" yMax="320">
      <contour>
        <pt x="381" y="186" on="1"/>
        <pt x="48" y="186" on="1"/>
        <pt x="48" y="320" on="1"/>
        <pt x="381" y="320" on="1"/>
      </contour>
    </TTGlyph>
    <TTGlyph name="equal" xMin="54" yMin="91" xMax="400" yMax="429">
      <contour>
        <pt x="400" y="293" on="1"/>
        <pt x="54" y="293" on="1"/>
        <pt x="54" y="429" on="1"/>
        <pt x="400" y="429" on="1"/>
      </contour>
      <contour>
        <pt x="400" y="91" on="1"/>
        <pt x="54" y="91" on="1"/>
        <pt x="54" y="227" on="1"/>
        <pt x="400" y="227" on="1"/>
      </contour>
    </TTGlyph>
    <TTGlyph name="eth" xMin="22" yMin="-10" xMax="450" yMax="659">
      <contour>
        <pt x="183" y="400" on="1"/>
        <pt x="221" y="400" on="0"/>
        <pt x="257" y="394" on="1"/>
        <pt x="260" y="397" on="1"/>
        <pt x="247" y="434" on="0"/>
        <pt x="220" y="457" on="1"/>
        <pt x="114" y="402" on="1"/>
        <pt x="114" y="494" on="1"/>
        <pt x="136" y="506" on="1"/>
        <pt x="103" y="512" on="0"/>
        <pt x="63" y="512" on="1"/>
        <pt x="63" y="643" on="1"/>
        <pt x="205" y="643" on="0"/>
        <pt x="279" y="613" on="1"/>
        <pt x="372" y="659" on="1"/>
        <pt x="372" y="548" on="1"/>
        <pt x="356" y="539" on="1"/>
        <pt x="450" y="445" on="0"/>
        <pt x="450" y="265" on="1"/>
        <pt x="450" y="126" on="0"/>
        <pt x="344" y="-10" on="0"/>
        <pt x="228" y="-10" on="1"/>
        <pt x="22" y="-10" on="0"/>
        <pt x="22" y="208" on="1"/>
        <pt x="22" y="302" on="0"/>
        <pt x="109" y="400" on="0"/>
      </contour>
      <contour>
        <pt x="233" y="281" on="1"/>
        <pt x="208" y="281" on="0"/>
        <pt x="190" y="239" on="0"/>
        <pt x="190" y="158" on="0"/>
        <pt x="208" y="122" on="0"/>
        <pt x="259" y="122" on="0"/>
        <pt x="275" y="166" on="0"/>
        <pt x="275" y="208" on="1"/>
        <pt x="275" y="281" on="0"/>
      </contour>
    </TTGlyph>
    <TTGlyph name="exclam" xMin="78" yMin="-11" xMax="254" yMax="621">
      <contour>
        <pt x="91" y="190" on="1"/>
        <pt x="80" y="621" on="1"/>
        <pt x="250" y="621" on="1"/>
        <pt x="236" y="190" on="1"/>
      </contour>
      <contour>
        <pt x="78" y="68" on="1"/>
        <pt x="78" y="108" on="0"/>
        <pt x="120" y="147" on="0"/>
        <pt x="212" y="147" on="0"/>
        <pt x="254" y="108" on="0"/>
        <pt x="254" y="66" on="1"/>
        <pt x="254" y="-11" on="0"/>
        <pt x="78" y="-11" on="0"/>
      </contour>
    </TTGlyph>
    <TTGlyph name="exclamdown" xMin="54" yMin="-137" xMax="230" yMax="495">
      <contour>
        <pt x="217" y="294" on="1"/>
        <pt x="228" y="-137" on="1"/>
        <pt x="58" y="-137" on="1"/>
        <pt x="72" y="294" on="1"/>
      </contour>
      <contour>
        <pt x="230" y="416" on="1"/>
        <pt x="230" y="376" on="0"/>
        <pt x="188" y="337" on="0"/>
        <pt x="96" y="337" on="0"/>
        <pt x="54" y="376" on="0"/>
        <pt x="54" y="418" on="1"/>
        <pt x="54" y="495" on="0"/>
        <pt x="230" y="495" on="0"/>
      </contour>
    </TTGlyph>
    <TTGlyph name="f" xMin="9" yMin="0" xMax="318" yMax="648">
      <contour>
        <pt x="188" y="648" on="1"/>
        <pt x="250" y="648" on="0"/>
        <pt x="318" y="642" on="1"/>
        <pt x="304" y="496" on="1"/>
        <pt x="259" y="501" on="0"/>
        <pt x="218" y="501" on="0"/>
        <pt x="218" y="483" on="1"/>
        <pt x="218" y="465" on="1"/>
        <pt x="300" y="465" on="1"/>
        <pt x="292" y="341" on="1"/>
        <pt x="220" y="341" on="1"/>
        <pt x="220" y="0" on="1"/>
        <pt x="53" y="0" on="1"/>
        <pt x="53" y="341" on="1"/>
        <pt x="9" y="341" on="1"/>
        <pt x="9" y="465" on="1"/>
        <pt x="53" y="465" on="1"/>
        <pt x="53" y="515" on="1"/>
        <pt x="53" y="648" on="0"/>
      </contour>
    </TTGlyph>
    <TTGlyph name="ff" xMin="9" yMin="0" xMax="578" yMax="655">
      <contour>
        <pt x="448" y="655" on="1"/>
        <pt x="510" y="655" on="0"/>
        <pt x="578" y="649" on="1"/>
        <pt x="564" y="503" on="1"/>
        <pt x="519" y="508" on="0"/>
        <pt x="478" y="508" on="0"/>
        <pt x="478" y="490" on="1"/>
        <pt x="478" y="465" on="1"/>
        <pt x="560" y="465" on="1"/>
        <pt x="552" y="341" on="1"/>
        <pt x="480" y="341" on="1"/>
        <pt x="480" y="0" on="1"/>
        <pt x="313" y="0" on="1"/>
        <pt x="313" y="341" on="1"/>
        <pt x="220" y="341" on="1"/>
        <pt x="220" y="0" on="1"/>
        <pt x="53" y="0" on="1"/>
        <pt x="53" y="341" on="1"/>
        <pt x="9" y="341" on="1"/>
        <pt x="9" y="465" on="1"/>
        <pt x="53" y="465" on="1"/>
        <pt x="53" y="522" on="1"/>
        <pt x="53" y="655" on="0"/>
        <pt x="188" y="655" on="1"/>
        <pt x="224" y="655" on="0"/>
        <pt x="290" y="651" on="1"/>
        <pt x="278" y="505" on="1"/>
        <pt x="245" y="508" on="0"/>
        <pt x="236" y="508" on="1"/>
        <pt x="218" y="508" on="0"/>
        <pt x="218" y="490" on="1"/>
        <pt x="218" y="465" on="1"/>
        <pt x="313" y="465" on="1"/>
        <pt x="313" y="522" on="1"/>
        <pt x="313" y="655" on="0"/>
      </contour>
    </TTGlyph>
    <TTGlyph name="ffi" xMin="9" yMin="0" xMax="739" yMax="655">
      <contour>
        <pt x="448" y="655" on="1"/>
        <pt x="494" y="655" on="0"/>
        <pt x="550" y="651" on="1"/>
        <pt x="538" y="505" on="1"/>
        <pt x="503" y="508" on="0"/>
        <pt x="496" y="508" on="1"/>
        <pt x="478" y="508" on="0"/>
        <pt x="478" y="490" on="1"/>
        <pt x="478" y="465" on="1"/>
        <pt x="738" y="465" on="1"/>
        <pt x="738" y="0" on="1"/>
        <pt x="573" y="0" on="1"/>
        <pt x="573" y="341" on="1"/>
        <pt x="480" y="341" on="1"/>
        <pt x="480" y="0" on="1"/>
        <pt x="313" y="0" on="1"/>
        <pt x="313" y="341" on="1"/>
        <pt x="220" y="341" on="1"/>
        <pt x="220" y="0" on="1"/>
        <pt x="53" y="0" on="1"/>
        <pt x="53" y="341" on="1"/>
        <pt x="9" y="341" on="1"/>
        <pt x="9" y="465" on="1"/>
        <pt x="53" y="465" on="1"/>
        <pt x="53" y="522" on="1"/>
        <pt x="53" y="655" on="0"/>
        <pt x="188" y="655" on="1"/>
        <pt x="224" y="655" on="0"/>
        <pt x="290" y="651" on="1"/>
        <pt x="278" y="505" on="1"/>
        <pt x="245" y="508" on="0"/>
        <pt x="236" y="508" on="1"/>
        <pt x="218" y="508" on="0"/>
        <pt x="218" y="490" on="1"/>
        <pt x="218" y="465" on="1"/>
        <pt x="313" y="465" on="1"/>
        <pt x="313" y="522" on="1"/>
        <pt x="313" y="655" on="0"/>
      </contour>
      <contour>
        <pt x="559" y="536" on="0"/>
        <pt x="559" y="616" on="0"/>
        <pt x="601" y="654" on="0"/>
        <pt x="697" y="654" on="0"/>
        <pt x="739" y="616" on="0"/>
        <pt x="739" y="537" on="0"/>
        <pt x="697" y="500" on="0"/>
        <pt x="601" y="500" on="0"/>
      </contour>
    </TTGlyph>
    <TTGlyph name="ffl" xMin="9" yMin="-10" xMax="772" yMax="655">
      <contour>
        <pt x="448" y="655" on="1"/>
        <pt x="502" y="655" on="0"/>
        <pt x="550" y="651" on="1"/>
        <pt x="538" y="505" on="1"/>
        <pt x="503" y="508" on="0"/>
        <pt x="496" y="508" on="1"/>
        <pt x="478" y="508" on="0"/>
        <pt x="478" y="490" on="1"/>
        <pt x="478" y="465" on="1"/>
        <pt x="573" y="465" on="1"/>
        <pt x="573" y="641" on="1"/>
        <pt x="738" y="641" on="1"/>
        <pt x="738" y="163" on="1"/>
        <pt x="738" y="146" on="0"/>
        <pt x="753" y="132" on="0"/>
        <pt x="772" y="132" on="1"/>
        <pt x="759" y="-10" on="1"/>
        <pt x="704" y="-10" on="1"/>
        <pt x="638" y="-10" on="0"/>
        <pt x="573" y="45" on="0"/>
        <pt x="573" y="110" on="1"/>
        <pt x="573" y="341" on="1"/>
        <pt x="480" y="341" on="1"/>
        <pt x="480" y="0" on="1"/>
        <pt x="313" y="0" on="1"/>
        <pt x="313" y="341" on="1"/>
        <pt x="220" y="341" on="1"/>
        <pt x="220" y="0" on="1"/>
        <pt x="53" y="0" on="1"/>
        <pt x="53" y="341" on="1"/>
        <pt x="9" y="341" on="1"/>
        <pt x="9" y="465" on="1"/>
        <pt x="53" y="465" on="1"/>
        <pt x="53" y="522" on="1"/>
        <pt x="53" y="655" on="0"/>
        <pt x="188" y="655" on="1"/>
        <pt x="224" y="655" on="0"/>
        <pt x="290" y="651" on="1"/>
        <pt x="278" y="505" on="1"/>
        <pt x="245" y="508" on="0"/>
        <pt x="236" y="508" on="1"/>
        <pt x="218" y="508" on="0"/>
        <pt x="218" y="490" on="1"/>
        <pt x="218" y="465" on="1"/>
        <pt x="313" y="465" on="1"/>
        <pt x="313" y="522" on="1"/>
        <pt x="313" y="655" on="0"/>
      </contour>
    </TTGlyph>
    <TTGlyph name="fi" xMin="9" yMin="0" xMax="485" yMax="648">
      <contour>
        <pt x="188" y="648" on="1"/>
        <pt x="234" y="648" on="0"/>
        <pt x="290" y="644" on="1"/>
        <pt x="278" y="498" on="1"/>
        <pt x="243" y="501" on="0"/>
        <pt x="236" y="501" on="1"/>
        <pt x="218" y="501" on="0"/>
        <pt x="218" y="483" on="1"/>
        <pt x="218" y="465" on="1"/>
        <pt x="478" y="465" on="1"/>
        <pt x="478" y="0" on="1"/>
        <pt x="313" y="0" on="1"/>
        <pt x="313" y="341" on="1"/>
        <pt x="220" y="341" on="1"/>
        <pt x="220" y="0" on="1"/>
        <pt x="53" y="0" on="1"/>
        <pt x="53" y="341" on="1"/>
        <pt x="9" y="341" on="1"/>
        <pt x="9" y="465" on="1"/>
        <pt x="53" y="465" on="1"/>
        <pt x="53" y="515" on="1"/>
        <pt x="53" y="648" on="0"/>
      </contour>
      <contour>
        <pt x="305" y="530" on="0"/>
        <pt x="305" y="610" on="0"/>
        <pt x="347" y="648" on="0"/>
        <pt x="443" y="648" on="0"/>
        <pt x="485" y="610" on="0"/>
        <pt x="485" y="531" on="0"/>
        <pt x="443" y="494" on="0"/>
        <pt x="347" y="494" on="0"/>
      </contour>
    </TTGlyph>
    <TTGlyph name="five" xMin="31" yMin="-10" xMax="396" yMax="621">
      <contour>
        <pt x="396" y="211" on="1"/>
        <pt x="396" y="-10" on="0"/>
        <pt x="200" y="-10" on="1"/>
        <pt x="109" y="-10" on="0"/>
        <pt x="31" y="21" on="1"/>
        <pt x="43" y="176" on="1"/>
        <pt x="146" y="145" on="0"/>
        <pt x="182" y="145" on="1"/>
        <pt x="233" y="145" on="0"/>
        <pt x="233" y="256" on="0"/>
        <pt x="194" y="256" on="1"/>
        <pt x="175" y="256" on="0"/>
        <pt x="165" y="236" on="1"/>
        <pt x="32" y="256" on="1"/>
        <pt x="32" y="621" on="1"/>
        <pt x="368" y="621" on="1"/>
        <pt x="368" y="472" on="1"/>
        <pt x="187" y="472" on="1"/>
        <pt x="187" y="383" on="1"/>
        <pt x="213" y="397" on="0"/>
        <pt x="253" y="397" on="1"/>
        <pt x="396" y="397" on="0"/>
      </contour>
    </TTGlyph>
    <TTGlyph name="fj" xMin="9" yMin="-147" xMax="485" yMax="664">
      <contour>
        <pt x="478" y="465" on="1"/>
        <pt x="478" y="-12" on="1"/>
        <pt x="478" y="-90" on="0"/>
        <pt x="409" y="-147" on="0"/>
        <pt x="315" y="-147" on="1"/>
        <pt x="265" y="-147" on="1"/>
        <pt x="251" y="-9" on="1"/>
        <pt x="285" y="-9" on="1"/>
        <pt x="302" y="-9" on="0"/>
        <pt x="311" y="0" on="0"/>
        <pt x="311" y="15" on="1"/>
        <pt x="311" y="341" on="1"/>
        <pt x="220" y="341" on="1"/>
        <pt x="220" y="0" on="1"/>
        <pt x="53" y="0" on="1"/>
        <pt x="53" y="341" on="1"/>
        <pt x="9" y="341" on="1"/>
        <pt x="9" y="465" on="1"/>
        <pt x="53" y="465" on="1"/>
        <pt x="53" y="522" on="1"/>
        <pt x="53" y="655" on="0"/>
        <pt x="188" y="655" on="1"/>
        <pt x="224" y="655" on="0"/>
        <pt x="290" y="651" on="1"/>
        <pt x="278" y="505" on="1"/>
        <pt x="243" y="508" on="0"/>
        <pt x="236" y="508" on="1"/>
        <pt x="218" y="508" on="0"/>
        <pt x="218" y="490" on="1"/>
        <pt x="218" y="465" on="1"/>
      </contour>
      <contour>
        <pt x="305" y="546" on="0"/>
        <pt x="305" y="626" on="0"/>
        <pt x="347" y="664" on="0"/>
        <pt x="443" y="664" on="0"/>
        <pt x="485" y="626" on="0"/>
        <pt x="485" y="547" on="0"/>
        <pt x="443" y="510" on="0"/>
        <pt x="347" y="510" on="0"/>
      </contour>
    </TTGlyph>
    <TTGlyph name="fl" xMin="9" yMin="-10" xMax="512" yMax="655">
      <contour>
        <pt x="188" y="655" on="1"/>
        <pt x="242" y="655" on="0"/>
        <pt x="290" y="651" on="1"/>
        <pt x="278" y="505" on="1"/>
        <pt x="243" y="508" on="0"/>
        <pt x="236" y="508" on="1"/>
        <pt x="218" y="508" on="0"/>
        <pt x="218" y="490" on="1"/>
        <pt x="218" y="465" on="1"/>
        <pt x="313" y="465" on="1"/>
        <pt x="313" y="641" on="1"/>
        <pt x="478" y="641" on="1"/>
        <pt x="478" y="163" on="1"/>
        <pt x="478" y="146" on="0"/>
        <pt x="493" y="132" on="0"/>
        <pt x="512" y="132" on="1"/>
        <pt x="499" y="-10" on="1"/>
        <pt x="444" y="-10" on="1"/>
        <pt x="378" y="-10" on="0"/>
        <pt x="313" y="45" on="0"/>
        <pt x="313" y="110" on="1"/>
        <pt x="313" y="341" on="1"/>
        <pt x="220" y="341" on="1"/>
        <pt x="220" y="0" on="1"/>
        <pt x="53" y="0" on="1"/>
        <pt x="53" y="341" on="1"/>
        <pt x="9" y="341" on="1"/>
        <pt x="9" y="465" on="1"/>
        <pt x="53" y="465" on="1"/>
        <pt x="53" y="522" on="1"/>
        <pt x="53" y="655" on="0"/>
      </contour>
    </TTGlyph>
    <TTGlyph name="florin" xMin="6" yMin="-147" xMax="363" yMax="648">
      <contour>
        <pt x="92" y="-147" on="1"/>
        <pt x="51" y="-147" on="0"/>
        <pt x="6" y="-137" on="1"/>
        <pt x="13" y="6" on="1"/>
        <pt x="49" y="0" on="0"/>
        <pt x="62" y="0" on="1"/>
        <pt x="72" y="0" on="0"/>
        <pt x="74" y="15" on="1"/>
        <pt x="99" y="324" on="1"/>
        <pt x="42" y="324" on="1"/>
        <pt x="51" y="423" on="1"/>
        <pt x="106" y="423" on="1"/>
        <pt x="112" y="496" on="1"/>
        <pt x="118" y="568" on="0"/>
        <pt x="198" y="648" on="0"/>
        <pt x="309" y="648" on="0"/>
        <pt x="363" y="639" on="1"/>
        <pt x="341" y="484" on="1"/>
        <pt x="301" y="493" on="0"/>
        <pt x="283" y="493" on="0"/>
        <pt x="281" y="480" on="1"/>
        <pt x="276" y="423" on="1"/>
        <pt x="336" y="423" on="1"/>
        <pt x="326" y="324" on="1"/>
        <pt x="268" y="324" on="1"/>
        <pt x="242" y="7" on="1"/>
        <pt x="236" y="-67" on="0"/>
        <pt x="160" y="-147" on="0"/>
      </contour>
    </TTGlyph>
    <TTGlyph name="foundryicon" xMin="40" yMin="23" xMax="1201" yMax="569">
      <contour>
        <pt x="186" y="157" on="1"/>
        <pt x="40" y="300" on="1"/>
        <pt x="186" y="441" on="1"/>
        <pt x="226" y="409" on="1"/>
        <pt x="138" y="325" on="1"/>
        <pt x="386" y="325" on="1"/>
        <pt x="380" y="355" on="0"/>
        <pt x="380" y="387" on="1"/>
        <pt x="380" y="469" on="0"/>
        <pt x="465" y="569" on="0"/>
        <pt x="535" y="569" on="1"/>
        <pt x="584" y="569" on="0"/>
        <pt x="643" y="536" on="0"/>
        <pt x="668" y="501" on="1"/>
        <pt x="714" y="569" on="0"/>
        <pt x="804" y="569" on="1"/>
        <pt x="875" y="569" on="0"/>
        <pt x="957" y="469" on="0"/>
        <pt x="957" y="387" on="1"/>
        <pt x="957" y="360" on="0"/>
        <pt x="950" y="325" on="1"/>
        <pt x="1151" y="325" on="1"/>
        <pt x="1151" y="441" on="1"/>
        <pt x="1201" y="441" on="1"/>
        <pt x="1201" y="157" on="1"/>
        <pt x="1151" y="157" on="1"/>
        <pt x="1151" y="273" on="1"/>
        <pt x="935" y="273" on="1"/>
        <pt x="895" y="171" on="0"/>
        <pt x="713" y="23" on="0"/>
        <pt x="618" y="23" on="0"/>
        <pt x="440" y="170" on="0"/>
        <pt x="401" y="273" on="1"/>
        <pt x="139" y="273" on="1"/>
        <pt x="226" y="188" on="1"/>
      </contour>
      <contour>
        <pt x="668" y="73" on="1"/>
        <pt x="695" y="77" on="0"/>
        <pt x="773" y="130" on="0"/>
        <pt x="850" y="210" on="0"/>
        <pt x="905" y="323" on="0"/>
        <pt x="905" y="444" on="0"/>
        <pt x="845" y="521" on="0"/>
        <pt x="790" y="521" on="1"/>
        <pt x="707" y="521" on="0"/>
        <pt x="676" y="437" on="1"/>
        <pt x="660" y="437" on="1"/>
        <pt x="629" y="521" on="0"/>
        <pt x="546" y="521" on="1"/>
        <pt x="492" y="521" on="0"/>
        <pt x="432" y="443" on="0"/>
        <pt x="432" y="376" on="1"/>
        <pt x="432" y="352" on="0"/>
        <pt x="437" y="325" on="1"/>
        <pt x="635" y="325" on="1"/>
        <pt x="635" y="273" on="1"/>
        <pt x="455" y="273" on="1"/>
        <pt x="488" y="196" on="0"/>
        <pt x="621" y="80" on="0"/>
      </contour>
    </TTGlyph>
    <TTGlyph name="four" xMin="10" yMin="0" xMax="498" yMax="621">
      <contour>
        <pt x="491" y="121" on="1"/>
        <pt x="421" y="121" on="1"/>
        <pt x="421" y="0" on="1"/>
        <pt x="254" y="0" on="1"/>
        <pt x="254" y="121" on="1"/>
        <pt x="27" y="121" on="1"/>
        <pt x="10" y="240" on="1"/>
        <pt x="215" y="621" on="1"/>
        <pt x="421" y="621" on="1"/>
        <pt x="421" y="256" on="1"/>
        <pt x="498" y="256" on="1"/>
      </contour>
      <contour>
        <pt x="259" y="256" on="1"/>
        <pt x="259" y="409" on="1"/>
        <pt x="253" y="409" on="1"/>
        <pt x="171" y="256" on="1"/>
      </contour>
    </TTGlyph>
    <TTGlyph name="fraction" xMin="-10" yMin="-147" xMax="371" yMax="621">
      <contour>
        <pt x="371" y="621" on="1"/>
        <pt x="155" y="-147" on="1"/>
        <pt x="-10" y="-147" on="1"/>
        <pt x="205" y="621" on="1"/>
      </contour>
    </TTGlyph>
    <TTGlyph name="g" xMin="19" yMin="-147" xMax="451" yMax="491">
      <contour>
        <pt x="175" y="-44" on="1"/>
        <pt x="278" y="-44" on="1"/>
        <pt x="296" y="-44" on="0"/>
        <pt x="296" y="-28" on="1"/>
        <pt x="296" y="-24" on="1"/>
        <pt x="296" y="-9" on="0"/>
        <pt x="278" y="-9" on="1"/>
        <pt x="175" y="-9" on="1"/>
        <pt x="159" y="-9" on="0"/>
        <pt x="159" y="-25" on="1"/>
        <pt x="159" y="-29" on="1"/>
        <pt x="159" y="-44" on="0"/>
      </contour>
      <contour>
        <pt x="215" y="491" on="1"/>
        <pt x="451" y="491" on="1"/>
        <pt x="451" y="379" on="1"/>
        <pt x="379" y="379" on="1"/>
        <pt x="379" y="374" on="1"/>
        <pt x="411" y="346" on="0"/>
        <pt x="411" y="301" on="1"/>
        <pt x="411" y="141" on="0"/>
        <pt x="230" y="141" on="1"/>
        <pt x="182" y="141" on="1"/>
        <pt x="164" y="141" on="0"/>
        <pt x="164" y="108" on="0"/>
        <pt x="181" y="108" on="1"/>
        <pt x="317" y="108" on="1"/>
        <pt x="432" y="108" on="0"/>
        <pt x="432" y="8" on="1"/>
        <pt x="432" y="-74" on="0"/>
        <pt x="322" y="-147" on="0"/>
        <pt x="128" y="-147" on="0"/>
        <pt x="29" y="-106" on="0"/>
        <pt x="29" y="-50" on="1"/>
        <pt x="29" y="-19" on="0"/>
        <pt x="68" y="2" on="1"/>
        <pt x="68" y="6" on="1"/>
        <pt x="19" y="33" on="0"/>
        <pt x="19" y="84" on="1"/>
        <pt x="19" y="144" on="0"/>
        <pt x="96" y="175" on="1"/>
        <pt x="60" y="201" on="0"/>
        <pt x="25" y="270" on="0"/>
        <pt x="25" y="327" on="1"/>
        <pt x="25" y="406" on="0"/>
        <pt x="128" y="491" on="0"/>
      </contour>
      <contour>
        <pt x="259" y="331" on="0"/>
        <pt x="244" y="360" on="0"/>
        <pt x="204" y="360" on="0"/>
        <pt x="189" y="331" on="0"/>
        <pt x="189" y="301" on="1"/>
        <pt x="189" y="240" on="0"/>
        <pt x="225" y="240" on="1"/>
        <pt x="259" y="240" on="0"/>
        <pt x="259" y="299" on="1"/>
      </contour>
    </TTGlyph>
    <TTGlyph name="germandbls" xMin="9" yMin="-10" xMax="500" yMax="655">
      <contour>
        <pt x="246" y="135" on="1"/>
        <pt x="282" y="132" on="1"/>
        <pt x="327" y="132" on="0"/>
        <pt x="327" y="191" on="1"/>
        <pt x="327" y="261" on="0"/>
        <pt x="241" y="261" on="1"/>
        <pt x="241" y="386" on="1"/>
        <pt x="275" y="386" on="0"/>
        <pt x="305" y="417" on="0"/>
        <pt x="305" y="449" on="1"/>
        <pt x="305" y="508" on="0"/>
        <pt x="257" y="508" on="1"/>
        <pt x="220" y="508" on="0"/>
        <pt x="220" y="469" on="1"/>
        <pt x="220" y="0" on="1"/>
        <pt x="53" y="0" on="1"/>
        <pt x="53" y="341" on="1"/>
        <pt x="9" y="341" on="1"/>
        <pt x="9" y="465" on="1"/>
        <pt x="53" y="465" on="1"/>
        <pt x="53" y="481" on="1"/>
        <pt x="53" y="571" on="0"/>
        <pt x="156" y="655" on="0"/>
        <pt x="367" y="655" on="0"/>
        <pt x="479" y="562" on="0"/>
        <pt x="479" y="385" on="0"/>
        <pt x="418" y="341" on="1"/>
        <pt x="418" y="337" on="1"/>
        <pt x="500" y="295" on="0"/>
        <pt x="500" y="179" on="1"/>
        <pt x="500" y="88" on="0"/>
        <pt x="414" y="-10" on="0"/>
        <pt x="328" y="-10" on="1"/>
        <pt x="297" y="-10" on="0"/>
        <pt x="241" y="0" on="1"/>
      </contour>
    </TTGlyph>
    <TTGlyph name="grave" xMin="115" yMin="520" xMax="338" yMax="660">
      <contour>
        <pt x="223" y="520" on="1"/>
        <pt x="115" y="660" on="1"/>
        <pt x="273" y="660" on="1"/>
        <pt x="338" y="520" on="1"/>
      </contour>
    </TTGlyph>
    <TTGlyph name="greater" xMin="30" yMin="3" xMax="361" yMax="532">
      <contour>
        <pt x="361" y="232" on="1"/>
        <pt x="116" y="3" on="1"/>
        <pt x="30" y="118" on="1"/>
        <pt x="196" y="267" on="1"/>
        <pt x="30" y="419" on="1"/>
        <pt x="112" y="532" on="1"/>
        <pt x="361" y="301" on="1"/>
      </contour>
    </TTGlyph>
    <TTGlyph name="greaterequal" xMin="48" yMin="0" xMax="426" yMax="600">
      <contour>
        <pt x="426" y="299" on="1"/>
        <pt x="48" y="157" on="1"/>
        <pt x="48" y="316" on="1"/>
        <pt x="270" y="377" on="1"/>
        <pt x="48" y="440" on="1"/>
        <pt x="48" y="600" on="1"/>
        <pt x="426" y="453" on="1"/>
      </contour>
      <contour>
        <pt x="426" y="0" on="1"/>
        <pt x="48" y="0" on="1"/>
        <pt x="48" y="127" on="1"/>
        <pt x="426" y="127" on="1"/>
      </contour>
    </TTGlyph>
    <TTGlyph name="guillemotleft" xMin="24" yMin="4" xMax="485" yMax="477">
      <contour>
        <pt x="24" y="207" on="1"/>
        <pt x="24" y="269" on="1"/>
        <pt x="200" y="477" on="1"/>
        <pt x="275" y="417" on="1"/>
        <pt x="170" y="242" on="1"/>
        <pt x="276" y="67" on="1"/>
        <pt x="194" y="4" on="1"/>
      </contour>
      <contour>
        <pt x="234" y="207" on="1"/>
        <pt x="234" y="269" on="1"/>
        <pt x="407" y="477" on="1"/>
        <pt x="484" y="417" on="1"/>
        <pt x="379" y="242" on="1"/>
        <pt x="485" y="67" on="1"/>
        <pt x="401" y="4" on="1"/>
      </contour>
    </TTGlyph>
    <TTGlyph name="guillemotright" xMin="42" yMin="4" xMax="503" yMax="477">
      <contour>
        <pt x="503" y="269" on="1"/>
        <pt x="503" y="207" on="1"/>
        <pt x="333" y="4" on="1"/>
        <pt x="251" y="67" on="1"/>
        <pt x="357" y="242" on="1"/>
        <pt x="252" y="417" on="1"/>
        <pt x="327" y="477" on="1"/>
      </contour>
      <contour>
        <pt x="293" y="269" on="1"/>
        <pt x="293" y="207" on="1"/>
        <pt x="126" y="4" on="1"/>
        <pt x="42" y="67" on="1"/>
        <pt x="148" y="242" on="1"/>
        <pt x="43" y="417" on="1"/>
        <pt x="120" y="477" on="1"/>
      </contour>
    </TTGlyph>
    <TTGlyph name="guilsinglleft" xMin="24" yMin="4" xMax="276" yMax="477">
      <contour>
        <pt x="24" y="207" on="1"/>
        <pt x="24" y="269" on="1"/>
        <pt x="200" y="477" on="1"/>
        <pt x="275" y="417" on="1"/>
        <pt x="170" y="242" on="1"/>
        <pt x="276" y="67" on="1"/>
        <pt x="194" y="4" on="1"/>
      </contour>
    </TTGlyph>
    <TTGlyph name="guilsinglright" xMin="42" yMin="4" xMax="293" yMax="477">
      <contour>
        <pt x="293" y="269" on="1"/>
        <pt x="293" y="207" on="1"/>
        <pt x="126" y="4" on="1"/>
        <pt x="42" y="67" on="1"/>
        <pt x="148" y="242" on="1"/>
        <pt x="43" y="417" on="1"/>
        <pt x="120" y="477" on="1"/>
      </contour>
    </TTGlyph>
    <TTGlyph name="h" xMin="30" yMin="0" xMax="437" yMax="641">
      <contour>
        <pt x="201" y="444" on="1"/>
        <pt x="256" y="491" on="0"/>
        <pt x="384" y="491" on="0"/>
        <pt x="437" y="430" on="0"/>
        <pt x="437" y="369" on="1"/>
        <pt x="437" y="0" on="1"/>
        <pt x="267" y="0" on="1"/>
        <pt x="267" y="312" on="1"/>
        <pt x="267" y="337" on="0"/>
        <pt x="245" y="337" on="1"/>
        <pt x="217" y="337" on="0"/>
        <pt x="198" y="323" on="1"/>
        <pt x="198" y="0" on="1"/>
        <pt x="30" y="0" on="1"/>
        <pt x="30" y="641" on="1"/>
        <pt x="197" y="641" on="1"/>
        <pt x="197" y="444" on="1"/>
      </contour>
    </TTGlyph>
    <TTGlyph name="hbar" xMin="0" yMin="0" xMax="437" yMax="641">
      <contour>
        <pt x="201" y="444" on="1"/>
        <pt x="256" y="491" on="0"/>
        <pt x="384" y="491" on="0"/>
        <pt x="437" y="430" on="0"/>
        <pt x="437" y="369" on="1"/>
        <pt x="437" y="0" on="1"/>
        <pt x="267" y="0" on="1"/>
        <pt x="267" y="312" on="1"/>
        <pt x="267" y="337" on="0"/>
        <pt x="245" y="337" on="1"/>
        <pt x="217" y="337" on="0"/>
        <pt x="198" y="323" on="1"/>
        <pt x="198" y="0" on="1"/>
        <pt x="30" y="0" on="1"/>
        <pt x="30" y="506" on="1"/>
        <pt x="0" y="506" on="1"/>
        <pt x="0" y="601" on="1"/>
        <pt x="30" y="601" on="1"/>
        <pt x="30" y="641" on="1"/>
        <pt x="197" y="641" on="1"/>
        <pt x="197" y="601" on="1"/>
        <pt x="270" y="601" on="1"/>
        <pt x="270" y="506" on="1"/>
        <pt x="197" y="506" on="1"/>
        <pt x="197" y="444" on="1"/>
      </contour>
    </TTGlyph>
    <TTGlyph name="hungarumlaut" xMin="93" yMin="508" xMax="451" yMax="659">
      <contour>
        <pt x="291" y="659" on="1"/>
        <pt x="181" y="508" on="1"/>
        <pt x="93" y="508" on="1"/>
        <pt x="170" y="659" on="1"/>
      </contour>
      <contour>
        <pt x="451" y="659" on="1"/>
        <pt x="331" y="508" on="1"/>
        <pt x="241" y="508" on="1"/>
        <pt x="319" y="659" on="1"/>
      </contour>
    </TTGlyph>
    <TTGlyph name="hyphen" xMin="48" yMin="193" xMax="355" yMax="327">
      <contour>
        <pt x="355" y="193" on="1"/>
        <pt x="48" y="193" on="1"/>
        <pt x="48" y="327" on="1"/>
        <pt x="355" y="327" on="1"/>
      </contour>
    </TTGlyph>
    <TTGlyph name="i" xMin="26" yMin="0" xMax="206" yMax="648">
      <contour>
        <pt x="199" y="0" on="1"/>
        <pt x="34" y="0" on="1"/>
        <pt x="34" y="474" on="1"/>
        <pt x="199" y="474" on="1"/>
      </contour>
      <contour>
        <pt x="26" y="530" on="0"/>
        <pt x="26" y="610" on="0"/>
        <pt x="68" y="648" on="0"/>
        <pt x="164" y="648" on="0"/>
        <pt x="206" y="610" on="0"/>
        <pt x="206" y="531" on="0"/>
        <pt x="164" y="494" on="0"/>
        <pt x="68" y="494" on="0"/>
      </contour>
    </TTGlyph>
    <TTGlyph name="iacute" xMin="33" yMin="0" xMax="262" yMax="660">
      <contour>
        <pt x="198" y="0" on="1"/>
        <pt x="33" y="0" on="1"/>
        <pt x="33" y="474" on="1"/>
        <pt x="198" y="474" on="1"/>
      </contour>
      <contour>
        <pt x="262" y="660" on="1"/>
        <pt x="154" y="520" on="1"/>
        <pt x="39" y="520" on="1"/>
        <pt x="102" y="660" on="1"/>
      </contour>
    </TTGlyph>
    <TTGlyph name="icircumflex" xMin="-25" yMin="0" xMax="258" yMax="655">
      <contour>
        <pt x="198" y="0" on="1"/>
        <pt x="33" y="0" on="1"/>
        <pt x="33" y="474" on="1"/>
        <pt x="198" y="474" on="1"/>
      </contour>
      <contour>
        <pt x="192" y="655" on="1"/>
        <pt x="258" y="520" on="1"/>
        <pt x="152" y="520" on="1"/>
        <pt x="117" y="576" on="1"/>
        <pt x="82" y="520" on="1"/>
        <pt x="-25" y="520" on="1"/>
        <pt x="41" y="655" on="1"/>
      </contour>
    </TTGlyph>
    <TTGlyph name="idieresis" xMin="-32" yMin="0" xMax="264" yMax="636">
      <contour>
        <pt x="198" y="0" on="1"/>
        <pt x="33" y="0" on="1"/>
        <pt x="33" y="474" on="1"/>
        <pt x="198" y="474" on="1"/>
      </contour>
      <contour>
        <pt x="1" y="519" on="0"/>
        <pt x="-32" y="550" on="0"/>
        <pt x="-32" y="605" on="0"/>
        <pt x="1" y="636" on="0"/>
        <pt x="61" y="636" on="0"/>
        <pt x="95" y="605" on="0"/>
        <pt x="95" y="578" on="1"/>
        <pt x="95" y="519" on="0"/>
        <pt x="29" y="519" on="1"/>
      </contour>
      <contour>
        <pt x="170" y="519" on="0"/>
        <pt x="137" y="550" on="0"/>
        <pt x="137" y="605" on="0"/>
        <pt x="171" y="636" on="0"/>
        <pt x="231" y="636" on="0"/>
        <pt x="264" y="605" on="0"/>
        <pt x="264" y="550" on="0"/>
        <pt x="231" y="519" on="0"/>
      </contour>
    </TTGlyph>
    <TTGlyph name="igrave" xMin="-25" yMin="0" xMax="199" yMax="660">
      <contour>
        <pt x="199" y="0" on="1"/>
        <pt x="34" y="0" on="1"/>
        <pt x="34" y="474" on="1"/>
        <pt x="199" y="474" on="1"/>
      </contour>
      <contour>
        <pt x="83" y="520" on="1"/>
        <pt x="-25" y="660" on="1"/>
        <pt x="133" y="660" on="1"/>
        <pt x="198" y="520" on="1"/>
      </contour>
    </TTGlyph>
    <TTGlyph name="ij" xMin="26" yMin="-147" xMax="445" yMax="648">
      <contour>
        <pt x="439" y="474" on="1"/>
        <pt x="439" y="-12" on="1"/>
        <pt x="439" y="-90" on="0"/>
        <pt x="370" y="-147" on="0"/>
        <pt x="276" y="-147" on="1"/>
        <pt x="226" y="-147" on="1"/>
        <pt x="212" y="-9" on="1"/>
        <pt x="246" y="-9" on="1"/>
        <pt x="263" y="-9" on="0"/>
        <pt x="272" y="0" on="0"/>
        <pt x="272" y="15" on="1"/>
        <pt x="272" y="474" on="1"/>
      </contour>
      <contour>
        <pt x="199" y="0" on="1"/>
        <pt x="34" y="0" on="1"/>
        <pt x="34" y="474" on="1"/>
        <pt x="199" y="474" on="1"/>
      </contour>
      <contour>
        <pt x="26" y="530" on="0"/>
        <pt x="26" y="610" on="0"/>
        <pt x="68" y="648" on="0"/>
        <pt x="164" y="648" on="0"/>
        <pt x="206" y="610" on="0"/>
        <pt x="206" y="531" on="0"/>
        <pt x="164" y="494" on="0"/>
        <pt x="68" y="494" on="0"/>
      </contour>
      <contour>
        <pt x="265" y="530" on="0"/>
        <pt x="265" y="610" on="0"/>
        <pt x="307" y="648" on="0"/>
        <pt x="403" y="648" on="0"/>
        <pt x="445" y="610" on="0"/>
        <pt x="445" y="531" on="0"/>
        <pt x="403" y="494" on="0"/>
        <pt x="307" y="494" on="0"/>
      </contour>
    </TTGlyph>
    <TTGlyph name="infinity" xMin="44" yMin="79" xMax="623" yMax="458">
      <contour>
        <pt x="196" y="458" on="1"/>
        <pt x="277" y="458" on="0"/>
        <pt x="327" y="381" on="1"/>
        <pt x="331" y="381" on="1"/>
        <pt x="381" y="458" on="0"/>
        <pt x="468" y="458" on="1"/>
        <pt x="539" y="458" on="0"/>
        <pt x="623" y="359" on="0"/>
        <pt x="623" y="178" on="0"/>
        <pt x="539" y="79" on="0"/>
        <pt x="468" y="79" on="1"/>
        <pt x="383" y="79" on="0"/>
        <pt x="335" y="159" on="1"/>
        <pt x="330" y="159" on="1"/>
        <pt x="275" y="79" on="0"/>
        <pt x="126" y="79" on="0"/>
        <pt x="44" y="177" on="0"/>
        <pt x="44" y="356" on="0"/>
        <pt x="127" y="458" on="0"/>
      </contour>
      <contour>
        <pt x="278" y="268" on="1"/>
        <pt x="242" y="336" on="0"/>
        <pt x="169" y="336" on="0"/>
        <pt x="169" y="200" on="0"/>
        <pt x="205" y="200" on="1"/>
        <pt x="245" y="200" on="0"/>
      </contour>
      <contour>
        <pt x="460" y="336" on="1"/>
        <pt x="443" y="336" on="0"/>
        <pt x="404" y="298" on="0"/>
        <pt x="389" y="266" on="1"/>
        <pt x="421" y="200" on="0"/>
        <pt x="460" y="200" on="1"/>
        <pt x="497" y="200" on="0"/>
        <pt x="497" y="336" on="0"/>
      </contour>
    </TTGlyph>
    <TTGlyph name="integral" xMin="-8" yMin="-142" xMax="476" yMax="835">
      <contour>
        <pt x="145" y="167" on="1"/>
        <pt x="164" y="592" on="1"/>
        <pt x="170" y="710" on="0"/>
        <pt x="287" y="835" on="0"/>
        <pt x="417" y="835" on="1"/>
        <pt x="476" y="835" on="1"/>
        <pt x="468" y="705" on="1"/>
        <pt x="390" y="705" on="0"/>
        <pt x="338" y="636" on="0"/>
        <pt x="334" y="552" on="1"/>
        <pt x="313" y="104" on="1"/>
        <pt x="307" y="-30" on="0"/>
        <pt x="191" y="-142" on="0"/>
        <pt x="46" y="-142" on="1"/>
        <pt x="-8" y="-142" on="1"/>
        <pt x="-6" y="-113" on="0"/>
        <pt x="4" y="-23" on="0"/>
        <pt x="6" y="1" on="1"/>
        <pt x="39" y="2" on="0"/>
        <pt x="84" y="8" on="0"/>
        <pt x="115" y="29" on="0"/>
        <pt x="131" y="46" on="0"/>
        <pt x="136" y="70" on="1"/>
        <pt x="142" y="105" on="0"/>
      </contour>
    </TTGlyph>
    <TTGlyph name="itilde" xMin="-35" yMin="0" xMax="268" yMax="660">
      <contour>
        <pt x="199" y="0" on="1"/>
        <pt x="34" y="0" on="1"/>
        <pt x="34" y="474" on="1"/>
        <pt x="199" y="474" on="1"/>
      </contour>
      <contour>
        <pt x="268" y="660" on="1"/>
        <pt x="268" y="652" on="1"/>
        <pt x="268" y="588" on="0"/>
        <pt x="232" y="522" on="0"/>
        <pt x="178" y="522" on="1"/>
        <pt x="142" y="522" on="0"/>
        <pt x="98" y="538" on="1"/>
        <pt x="74" y="546" on="1"/>
        <pt x="74" y="511" on="1"/>
        <pt x="-35" y="511" on="1"/>
        <pt x="-35" y="521" on="1"/>
        <pt x="-35" y="586" on="0"/>
        <pt x="3" y="651" on="0"/>
        <pt x="51" y="651" on="1"/>
        <pt x="67" y="651" on="0"/>
        <pt x="140" y="632" on="1"/>
        <pt x="160" y="627" on="1"/>
        <pt x="160" y="660" on="1"/>
      </contour>
    </TTGlyph>
    <TTGlyph name="j" xMin="-18" yMin="-147" xMax="213" yMax="648">
      <contour>
        <pt x="209" y="474" on="1"/>
        <pt x="209" y="-12" on="1"/>
        <pt x="209" y="-90" on="0"/>
        <pt x="140" y="-147" on="0"/>
        <pt x="46" y="-147" on="1"/>
        <pt x="-4" y="-147" on="1"/>
        <pt x="-18" y="-9" on="1"/>
        <pt x="16" y="-9" on="1"/>
        <pt x="33" y="-9" on="0"/>
        <pt x="42" y="0" on="0"/>
        <pt x="42" y="15" on="1"/>
        <pt x="42" y="474" on="1"/>
      </contour>
      <contour>
        <pt x="33" y="530" on="0"/>
        <pt x="33" y="610" on="0"/>
        <pt x="75" y="648" on="0"/>
        <pt x="171" y="648" on="0"/>
        <pt x="213" y="610" on="0"/>
        <pt x="213" y="531" on="0"/>
        <pt x="171" y="494" on="0"/>
        <pt x="75" y="494" on="0"/>
      </contour>
    </TTGlyph>
    <TTGlyph name="jcircumflex" xMin="-18" yMin="-147" xMax="266" yMax="655">
      <contour>
        <pt x="209" y="474" on="1"/>
        <pt x="209" y="-12" on="1"/>
        <pt x="209" y="-90" on="0"/>
        <pt x="140" y="-147" on="0"/>
        <pt x="46" y="-147" on="1"/>
        <pt x="-4" y="-147" on="1"/>
        <pt x="-18" y="-9" on="1"/>
        <pt x="16" y="-9" on="1"/>
        <pt x="33" y="-9" on="0"/>
        <pt x="42" y="0" on="0"/>
        <pt x="42" y="15" on="1"/>
        <pt x="42" y="474" on="1"/>
      </contour>
      <contour>
        <pt x="200" y="655" on="1"/>
        <pt x="266" y="520" on="1"/>
        <pt x="160" y="520" on="1"/>
        <pt x="125" y="576" on="1"/>
        <pt x="90" y="520" on="1"/>
        <pt x="-17" y="520" on="1"/>
        <pt x="49" y="655" on="1"/>
      </contour>
    </TTGlyph>
    <TTGlyph name="k" xMin="30" yMin="0" xMax="447" yMax="641">
      <contour>
        <pt x="443" y="0" on="1"/>
        <pt x="258" y="0" on="1"/>
        <pt x="197" y="184" on="1"/>
        <pt x="193" y="184" on="1"/>
        <pt x="193" y="0" on="1"/>
        <pt x="30" y="0" on="1"/>
        <pt x="30" y="641" on="1"/>
        <pt x="195" y="641" on="1"/>
        <pt x="195" y="288" on="1"/>
        <pt x="199" y="288" on="1"/>
        <pt x="272" y="479" on="1"/>
        <pt x="447" y="479" on="1"/>
        <pt x="346" y="240" on="1"/>
      </contour>
    </TTGlyph>
    <TTGlyph name="kcommaaccent" xMin="30" yMin="-175" xMax="447" yMax="641">
      <contour>
        <pt x="443" y="0" on="1"/>
        <pt x="258" y="0" on="1"/>
        <pt x="197" y="184" on="1"/>
        <pt x="193" y="184" on="1"/>
        <pt x="193" y="0" on="1"/>
        <pt x="30" y="0" on="1"/>
        <pt x="30" y="641" on="1"/>
        <pt x="195" y="641" on="1"/>
        <pt x="195" y="288" on="1"/>
        <pt x="199" y="288" on="1"/>
        <pt x="272" y="479" on="1"/>
        <pt x="447" y="479" on="1"/>
        <pt x="346" y="240" on="1"/>
      </contour>
      <contour>
        <pt x="129" y="-76" on="1"/>
        <pt x="129" y="-9" on="0"/>
        <pt x="313" y="-9" on="0"/>
        <pt x="313" y="-78" on="1"/>
        <pt x="313" y="-132" on="0"/>
        <pt x="236" y="-175" on="1"/>
        <pt x="156" y="-169" on="1"/>
        <pt x="192" y="-128" on="1"/>
        <pt x="164" y="-128" on="0"/>
        <pt x="129" y="-101" on="0"/>
      </contour>
    </TTGlyph>
    <TTGlyph name="kgreenlandic" xMin="30" yMin="0" xMax="447" yMax="491">
      <contour>
        <pt x="447" y="0" on="1"/>
        <pt x="262" y="0" on="1"/>
        <pt x="200" y="170" on="1"/>
        <pt x="196" y="170" on="1"/>
        <pt x="196" y="0" on="1"/>
        <pt x="30" y="0" on="1"/>
        <pt x="30" y="480" on="1"/>
        <pt x="198" y="480" on="1"/>
        <pt x="198" y="288" on="1"/>
        <pt x="202" y="288" on="1"/>
        <pt x="248" y="408" on="0"/>
        <pt x="276" y="434" on="1"/>
        <pt x="321" y="476" on="0"/>
        <pt x="392" y="491" on="0"/>
        <pt x="428" y="491" on="1"/>
        <pt x="421" y="325" on="1"/>
        <pt x="403" y="325" on="0"/>
        <pt x="376" y="303" on="0"/>
        <pt x="363" y="277" on="0"/>
        <pt x="348" y="244" on="1"/>
      </contour>
    </TTGlyph>
    <TTGlyph name="l" xMin="30" yMin="-10" xMax="229" yMax="641">
      <contour>
        <pt x="30" y="110" on="1"/>
        <pt x="30" y="641" on="1"/>
        <pt x="195" y="641" on="1"/>
        <pt x="195" y="163" on="1"/>
        <pt x="195" y="146" on="0"/>
        <pt x="210" y="132" on="0"/>
        <pt x="229" y="132" on="1"/>
        <pt x="216" y="-10" on="1"/>
        <pt x="161" y="-10" on="1"/>
        <pt x="95" y="-10" on="0"/>
        <pt x="30" y="45" on="0"/>
      </contour>
    </TTGlyph>
    <TTGlyph name="ldot" xMin="30" yMin="-10" xMax="416" yMax="641">
      <contour>
        <pt x="30" y="110" on="1"/>
        <pt x="30" y="641" on="1"/>
        <pt x="195" y="641" on="1"/>
        <pt x="195" y="163" on="1"/>
        <pt x="195" y="146" on="0"/>
        <pt x="210" y="132" on="0"/>
        <pt x="229" y="132" on="1"/>
        <pt x="216" y="-10" on="1"/>
        <pt x="161" y="-10" on="1"/>
        <pt x="95" y="-10" on="0"/>
        <pt x="30" y="45" on="0"/>
      </contour>
      <contour>
        <pt x="416" y="216" on="0"/>
        <pt x="224" y="216" on="0"/>
        <pt x="224" y="395" on="0"/>
        <pt x="416" y="395" on="0"/>
      </contour>
    </TTGlyph>
    <TTGlyph name="less" xMin="33" yMin="3" xMax="364" yMax="532">
      <contour>
        <pt x="278" y="3" on="1"/>
        <pt x="33" y="232" on="1"/>
        <pt x="33" y="301" on="1"/>
        <pt x="282" y="532" on="1"/>
        <pt x="364" y="419" on="1"/>
        <pt x="198" y="267" on="1"/>
        <pt x="364" y="118" on="1"/>
      </contour>
    </TTGlyph>
    <TTGlyph name="lessequal" xMin="48" yMin="0" xMax="426" yMax="600">
      <contour>
        <pt x="426" y="157" on="1"/>
        <pt x="48" y="299" on="1"/>
        <pt x="48" y="453" on="1"/>
        <pt x="426" y="600" on="1"/>
        <pt x="426" y="440" on="1"/>
        <pt x="204" y="377" on="1"/>
        <pt x="426" y="316" on="1"/>
      </contour>
      <contour>
        <pt x="426" y="0" on="1"/>
        <pt x="48" y="0" on="1"/>
        <pt x="48" y="127" on="1"/>
        <pt x="426" y="127" on="1"/>
      </contour>
    </TTGlyph>
    <TTGlyph name="logicalnot" xMin="52" yMin="130" xMax="430" yMax="357">
      <contour>
        <pt x="288" y="130" on="1"/>
        <pt x="288" y="231" on="1"/>
        <pt x="52" y="231" on="1"/>
        <pt x="52" y="357" on="1"/>
        <pt x="430" y="357" on="1"/>
        <pt x="430" y="130" on="1"/>
      </contour>
    </TTGlyph>
    <TTGlyph name="lozenge" xMin="46" yMin="-57" xMax="541" yMax="653">
      <contour>
        <pt x="541" y="298" on="1"/>
        <pt x="351" y="-57" on="1"/>
        <pt x="233" y="-57" on="1"/>
        <pt x="46" y="298" on="1"/>
        <pt x="235" y="653" on="1"/>
        <pt x="351" y="653" on="1"/>
      </contour>
      <contour>
        <pt x="386" y="298" on="1"/>
        <pt x="293" y="487" on="1"/>
        <pt x="202" y="298" on="1"/>
        <pt x="293" y="108" on="1"/>
      </contour>
    </TTGlyph>
    <TTGlyph name="lslash" xMin="0" yMin="-10" xMax="233" yMax="641">
      <contour>
        <pt x="34" y="110" on="1"/>
        <pt x="34" y="179" on="1"/>
        <pt x="0" y="158" on="1"/>
        <pt x="0" y="306" on="1"/>
        <pt x="34" y="327" on="1"/>
        <pt x="34" y="641" on="1"/>
        <pt x="199" y="641" on="1"/>
        <pt x="199" y="432" on="1"/>
        <pt x="233" y="454" on="1"/>
        <pt x="233" y="306" on="1"/>
        <pt x="199" y="284" on="1"/>
        <pt x="199" y="163" on="1"/>
        <pt x="199" y="146" on="0"/>
        <pt x="214" y="132" on="0"/>
        <pt x="233" y="132" on="1"/>
        <pt x="220" y="-10" on="1"/>
        <pt x="165" y="-10" on="1"/>
        <pt x="99" y="-10" on="0"/>
        <pt x="34" y="45" on="0"/>
      </contour>
    </TTGlyph>
    <TTGlyph name="m" xMin="30" yMin="0" xMax="676" yMax="491">
      <contour>
        <pt x="436" y="444" on="1"/>
        <pt x="491" y="491" on="0"/>
        <pt x="623" y="491" on="0"/>
        <pt x="676" y="430" on="0"/>
        <pt x="676" y="369" on="1"/>
        <pt x="676" y="0" on="1"/>
        <pt x="506" y="0" on="1"/>
        <pt x="506" y="312" on="1"/>
        <pt x="506" y="337" on="0"/>
        <pt x="484" y="337" on="1"/>
        <pt x="456" y="337" on="0"/>
        <pt x="437" y="323" on="1"/>
        <pt x="437" y="0" on="1"/>
        <pt x="267" y="0" on="1"/>
        <pt x="267" y="312" on="1"/>
        <pt x="267" y="337" on="0"/>
        <pt x="245" y="337" on="1"/>
        <pt x="217" y="337" on="0"/>
        <pt x="198" y="323" on="1"/>
        <pt x="198" y="0" on="1"/>
        <pt x="30" y="0" on="1"/>
        <pt x="30" y="479" on="1"/>
        <pt x="183" y="479" on="1"/>
        <pt x="193" y="444" on="1"/>
        <pt x="197" y="444" on="1"/>
        <pt x="252" y="491" on="0"/>
        <pt x="403" y="491" on="0"/>
        <pt x="426" y="435" on="1"/>
      </contour>
    </TTGlyph>
    <TTGlyph name="macron" xMin="125" yMin="530" xMax="395" yMax="645">
      <contour>
        <pt x="395" y="530" on="1"/>
        <pt x="125" y="530" on="1"/>
        <pt x="125" y="645" on="1"/>
        <pt x="395" y="645" on="1"/>
      </contour>
    </TTGlyph>
    <TTGlyph name="minus" xMin="52" yMin="231" xMax="430" yMax="357">
      <contour>
        <pt x="430" y="231" on="1"/>
        <pt x="52" y="231" on="1"/>
        <pt x="52" y="357" on="1"/>
        <pt x="430" y="357" on="1"/>
      </contour>
    </TTGlyph>
    <TTGlyph name="mu" xMin="30" yMin="-144" xMax="511" yMax="474">
      <contour>
        <pt x="242" y="-10" on="1"/>
        <pt x="218" y="-10" on="0"/>
        <pt x="196" y="0" on="1"/>
        <pt x="196" y="-144" on="1"/>
        <pt x="30" y="-144" on="1"/>
        <pt x="30" y="474" on="1"/>
        <pt x="198" y="474" on="1"/>
        <pt x="198" y="184" on="1"/>
        <pt x="198" y="132" on="0"/>
        <pt x="295" y="132" on="0"/>
        <pt x="295" y="184" on="1"/>
        <pt x="295" y="474" on="1"/>
        <pt x="465" y="474" on="1"/>
        <pt x="465" y="144" on="1"/>
        <pt x="465" y="113" on="0"/>
        <pt x="511" y="113" on="1"/>
        <pt x="490" y="-10" on="1"/>
        <pt x="453" y="-10" on="1"/>
        <pt x="384" y="-10" on="0"/>
        <pt x="349" y="28" on="1"/>
        <pt x="345" y="28" on="1"/>
        <pt x="307" y="-10" on="0"/>
      </contour>
    </TTGlyph>
    <TTGlyph name="multiply" xMin="52" yMin="109" xMax="424" yMax="481">
      <contour>
        <pt x="334" y="110" on="1"/>
        <pt x="240" y="209" on="1"/>
        <pt x="144" y="109" on="1"/>
        <pt x="52" y="201" on="1"/>
        <pt x="152" y="297" on="1"/>
        <pt x="52" y="392" on="1"/>
        <pt x="142" y="481" on="1"/>
        <pt x="237" y="382" on="1"/>
        <pt x="332" y="481" on="1"/>
        <pt x="424" y="389" on="1"/>
        <pt x="325" y="294" on="1"/>
        <pt x="423" y="199" on="1"/>
      </contour>
    </TTGlyph>
    <TTGlyph name="n" xMin="30" yMin="0" xMax="437" yMax="491">
      <contour>
        <pt x="197" y="444" on="1"/>
        <pt x="252" y="491" on="0"/>
        <pt x="384" y="491" on="0"/>
        <pt x="437" y="430" on="0"/>
        <pt x="437" y="369" on="1"/>
        <pt x="437" y="0" on="1"/>
        <pt x="267" y="0" on="1"/>
        <pt x="267" y="312" on="1"/>
        <pt x="267" y="337" on="0"/>
        <pt x="245" y="337" on="1"/>
        <pt x="217" y="337" on="0"/>
        <pt x="198" y="323" on="1"/>
        <pt x="198" y="0" on="1"/>
        <pt x="30" y="0" on="1"/>
        <pt x="30" y="479" on="1"/>
        <pt x="183" y="479" on="1"/>
        <pt x="193" y="444" on="1"/>
      </contour>
    </TTGlyph>
    <TTGlyph name="nacute" xMin="30" yMin="0" xMax="437" yMax="660">
      <contour>
        <pt x="197" y="444" on="1"/>
        <pt x="252" y="491" on="0"/>
        <pt x="384" y="491" on="0"/>
        <pt x="437" y="430" on="0"/>
        <pt x="437" y="369" on="1"/>
        <pt x="437" y="0" on="1"/>
        <pt x="267" y="0" on="1"/>
        <pt x="267" y="312" on="1"/>
        <pt x="267" y="337" on="0"/>
        <pt x="245" y="337" on="1"/>
        <pt x="217" y="337" on="0"/>
        <pt x="198" y="323" on="1"/>
        <pt x="198" y="0" on="1"/>
        <pt x="30" y="0" on="1"/>
        <pt x="30" y="479" on="1"/>
        <pt x="183" y="479" on="1"/>
        <pt x="193" y="444" on="1"/>
      </contour>
      <contour>
        <pt x="385" y="660" on="1"/>
        <pt x="277" y="520" on="1"/>
        <pt x="162" y="520" on="1"/>
        <pt x="225" y="660" on="1"/>
      </contour>
    </TTGlyph>
    <TTGlyph name="nine" xMin="12" yMin="-10" xMax="434" yMax="631">
      <contour>
        <pt x="183" y="232" on="1"/>
        <pt x="12" y="232" on="0"/>
        <pt x="12" y="425" on="1"/>
        <pt x="12" y="631" on="0"/>
        <pt x="215" y="631" on="1"/>
        <pt x="331" y="631" on="0"/>
        <pt x="434" y="505" on="0"/>
        <pt x="434" y="370" on="1"/>
        <pt x="434" y="177" on="0"/>
        <pt x="263" y="-10" on="0"/>
        <pt x="56" y="-10" on="1"/>
        <pt x="66" y="132" on="1"/>
        <pt x="158" y="132" on="0"/>
        <pt x="245" y="181" on="0"/>
        <pt x="260" y="237" on="1"/>
        <pt x="258" y="242" on="1"/>
        <pt x="220" y="232" on="0"/>
      </contour>
      <contour>
        <pt x="190" y="352" on="0"/>
        <pt x="246" y="352" on="0"/>
        <pt x="269" y="361" on="1"/>
        <pt x="270" y="369" on="0"/>
        <pt x="270" y="438" on="0"/>
        <pt x="247" y="489" on="0"/>
        <pt x="212" y="489" on="1"/>
        <pt x="166" y="489" on="0"/>
        <pt x="166" y="423" on="1"/>
        <pt x="166" y="386" on="0"/>
      </contour>
    </TTGlyph>
    <TTGlyph name="notequal" xMin="54" yMin="-26" xMax="400" yMax="549">
      <contour>
        <pt x="400" y="91" on="1"/>
        <pt x="246" y="91" on="1"/>
        <pt x="208" y="-26" on="1"/>
        <pt x="57" y="-26" on="1"/>
        <pt x="95" y="91" on="1"/>
        <pt x="54" y="91" on="1"/>
        <pt x="54" y="227" on="1"/>
        <pt x="140" y="227" on="1"/>
        <pt x="161" y="293" on="1"/>
        <pt x="54" y="293" on="1"/>
        <pt x="54" y="429" on="1"/>
        <pt x="206" y="429" on="1"/>
        <pt x="246" y="549" on="1"/>
        <pt x="396" y="549" on="1"/>
        <pt x="357" y="429" on="1"/>
        <pt x="400" y="429" on="1"/>
        <pt x="400" y="293" on="1"/>
        <pt x="312" y="293" on="1"/>
        <pt x="291" y="227" on="1"/>
        <pt x="400" y="227" on="1"/>
      </contour>
    </TTGlyph>
    <TTGlyph name="ntilde" xMin="33" yMin="0" xMax="440" yMax="660">
      <contour>
        <pt x="200" y="444" on="1"/>
        <pt x="255" y="491" on="0"/>
        <pt x="387" y="491" on="0"/>
        <pt x="440" y="430" on="0"/>
        <pt x="440" y="369" on="1"/>
        <pt x="440" y="0" on="1"/>
        <pt x="270" y="0" on="1"/>
        <pt x="270" y="312" on="1"/>
        <pt x="270" y="337" on="0"/>
        <pt x="248" y="337" on="1"/>
        <pt x="220" y="337" on="0"/>
        <pt x="201" y="323" on="1"/>
        <pt x="201" y="0" on="1"/>
        <pt x="33" y="0" on="1"/>
        <pt x="33" y="479" on="1"/>
        <pt x="186" y="479" on="1"/>
        <pt x="196" y="444" on="1"/>
      </contour>
      <contour>
        <pt x="379" y="660" on="1"/>
        <pt x="379" y="652" on="1"/>
        <pt x="379" y="588" on="0"/>
        <pt x="343" y="522" on="0"/>
        <pt x="289" y="522" on="1"/>
        <pt x="253" y="522" on="0"/>
        <pt x="209" y="538" on="1"/>
        <pt x="185" y="546" on="1"/>
        <pt x="185" y="511" on="1"/>
        <pt x="76" y="511" on="1"/>
        <pt x="76" y="521" on="1"/>
        <pt x="76" y="586" on="0"/>
        <pt x="114" y="651" on="0"/>
        <pt x="162" y="651" on="1"/>
        <pt x="178" y="651" on="0"/>
        <pt x="251" y="632" on="1"/>
        <pt x="271" y="627" on="1"/>
        <pt x="271" y="660" on="1"/>
      </contour>
    </TTGlyph>
    <TTGlyph name="numbersign" xMin="24" yMin="0" xMax="472" yMax="596">
      <contour>
        <pt x="472" y="322" on="1"/>
        <pt x="394" y="322" on="1"/>
        <pt x="386" y="279" on="1"/>
        <pt x="451" y="279" on="1"/>
        <pt x="451" y="154" on="1"/>
        <pt x="370" y="154" on="1"/>
        <pt x="350" y="0" on="1"/>
        <pt x="224" y="0" on="1"/>
        <pt x="242" y="154" on="1"/>
        <pt x="213" y="154" on="1"/>
        <pt x="190" y="0" on="1"/>
        <pt x="58" y="0" on="1"/>
        <pt x="81" y="154" on="1"/>
        <pt x="24" y="154" on="1"/>
        <pt x="24" y="279" on="1"/>
        <pt x="98" y="279" on="1"/>
        <pt x="106" y="322" on="1"/>
        <pt x="46" y="322" on="1"/>
        <pt x="46" y="445" on="1"/>
        <pt x="121" y="445" on="1"/>
        <pt x="143" y="596" on="1"/>
        <pt x="273" y="596" on="1"/>
        <pt x="253" y="445" on="1"/>
        <pt x="280" y="445" on="1"/>
        <pt x="300" y="596" on="1"/>
        <pt x="430" y="596" on="1"/>
        <pt x="410" y="445" on="1"/>
        <pt x="472" y="445" on="1"/>
      </contour>
      <contour>
        <pt x="271" y="328" on="1"/>
        <pt x="232" y="328" on="1"/>
        <pt x="223" y="273" on="1"/>
        <pt x="262" y="273" on="1"/>
      </contour>
    </TTGlyph>
    <TTGlyph name="o" xMin="22" yMin="-10" xMax="436" yMax="491">
      <contour>
        <pt x="22" y="373" on="0"/>
        <pt x="123" y="491" on="0"/>
        <pt x="338" y="491" on="0"/>
        <pt x="436" y="375" on="0"/>
        <pt x="436" y="110" on="0"/>
        <pt x="340" y="-10" on="0"/>
        <pt x="122" y="-10" on="0"/>
        <pt x="22" y="110" on="0"/>
      </contour>
      <contour>
        <pt x="256" y="356" on="0"/>
        <pt x="204" y="356" on="0"/>
        <pt x="190" y="316" on="0"/>
        <pt x="190" y="252" on="1"/>
        <pt x="190" y="228" on="1"/>
        <pt x="190" y="157" on="0"/>
        <pt x="204" y="115" on="0"/>
        <pt x="255" y="115" on="0"/>
        <pt x="269" y="157" on="0"/>
        <pt x="269" y="222" on="1"/>
        <pt x="269" y="251" on="1"/>
        <pt x="269" y="316" on="0"/>
      </contour>
    </TTGlyph>
    <TTGlyph name="oacute" xMin="24" yMin="-10" xMax="438" yMax="660">
      <contour>
        <pt x="24" y="373" on="0"/>
        <pt x="125" y="491" on="0"/>
        <pt x="340" y="491" on="0"/>
        <pt x="438" y="375" on="0"/>
        <pt x="438" y="110" on="0"/>
        <pt x="342" y="-10" on="0"/>
        <pt x="124" y="-10" on="0"/>
        <pt x="24" y="110" on="0"/>
      </contour>
      <contour>
        <pt x="258" y="356" on="0"/>
        <pt x="206" y="356" on="0"/>
        <pt x="192" y="316" on="0"/>
        <pt x="192" y="252" on="1"/>
        <pt x="192" y="228" on="1"/>
        <pt x="192" y="157" on="0"/>
        <pt x="206" y="115" on="0"/>
        <pt x="257" y="115" on="0"/>
        <pt x="271" y="157" on="0"/>
        <pt x="271" y="222" on="1"/>
        <pt x="271" y="251" on="1"/>
        <pt x="271" y="316" on="0"/>
      </contour>
      <contour>
        <pt x="382" y="660" on="1"/>
        <pt x="274" y="520" on="1"/>
        <pt x="159" y="520" on="1"/>
        <pt x="222" y="660" on="1"/>
      </contour>
    </TTGlyph>
    <TTGlyph name="ocircumflex" xMin="24" yMin="-10" xMax="438" yMax="655">
      <contour>
        <pt x="24" y="373" on="0"/>
        <pt x="125" y="491" on="0"/>
        <pt x="340" y="491" on="0"/>
        <pt x="438" y="375" on="0"/>
        <pt x="438" y="110" on="0"/>
        <pt x="342" y="-10" on="0"/>
        <pt x="124" y="-10" on="0"/>
        <pt x="24" y="110" on="0"/>
      </contour>
      <contour>
        <pt x="258" y="356" on="0"/>
        <pt x="206" y="356" on="0"/>
        <pt x="192" y="316" on="0"/>
        <pt x="192" y="252" on="1"/>
        <pt x="192" y="228" on="1"/>
        <pt x="192" y="157" on="0"/>
        <pt x="206" y="115" on="0"/>
        <pt x="257" y="115" on="0"/>
        <pt x="271" y="157" on="0"/>
        <pt x="271" y="222" on="1"/>
        <pt x="271" y="251" on="1"/>
        <pt x="271" y="316" on="0"/>
      </contour>
      <contour>
        <pt x="308" y="655" on="1"/>
        <pt x="374" y="520" on="1"/>
        <pt x="268" y="520" on="1"/>
        <pt x="233" y="576" on="1"/>
        <pt x="198" y="520" on="1"/>
        <pt x="91" y="520" on="1"/>
        <pt x="157" y="655" on="1"/>
      </contour>
    </TTGlyph>
    <TTGlyph name="odieresis" xMin="24" yMin="-10" xMax="438" yMax="636">
      <contour>
        <pt x="24" y="373" on="0"/>
        <pt x="125" y="491" on="0"/>
        <pt x="340" y="491" on="0"/>
        <pt x="438" y="375" on="0"/>
        <pt x="438" y="110" on="0"/>
        <pt x="342" y="-10" on="0"/>
        <pt x="124" y="-10" on="0"/>
        <pt x="24" y="110" on="0"/>
      </contour>
      <contour>
        <pt x="258" y="356" on="0"/>
        <pt x="206" y="356" on="0"/>
        <pt x="192" y="316" on="0"/>
        <pt x="192" y="252" on="1"/>
        <pt x="192" y="228" on="1"/>
        <pt x="192" y="157" on="0"/>
        <pt x="206" y="115" on="0"/>
        <pt x="257" y="115" on="0"/>
        <pt x="271" y="157" on="0"/>
        <pt x="271" y="222" on="1"/>
        <pt x="271" y="251" on="1"/>
        <pt x="271" y="316" on="0"/>
      </contour>
      <contour>
        <pt x="116" y="519" on="0"/>
        <pt x="83" y="550" on="0"/>
        <pt x="83" y="605" on="0"/>
        <pt x="116" y="636" on="0"/>
        <pt x="176" y="636" on="0"/>
        <pt x="210" y="605" on="0"/>
        <pt x="210" y="578" on="1"/>
        <pt x="210" y="519" on="0"/>
        <pt x="144" y="519" on="1"/>
      </contour>
      <contour>
        <pt x="285" y="519" on="0"/>
        <pt x="252" y="550" on="0"/>
        <pt x="252" y="605" on="0"/>
        <pt x="286" y="636" on="0"/>
        <pt x="346" y="636" on="0"/>
        <pt x="379" y="605" on="0"/>
        <pt x="379" y="550" on="0"/>
        <pt x="346" y="519" on="0"/>
      </contour>
    </TTGlyph>
    <TTGlyph name="oe" xMin="17" yMin="-10" xMax="669" yMax="491">
      <contour>
        <pt x="352" y="451" on="1"/>
        <pt x="395" y="491" on="0"/>
        <pt x="488" y="491" on="1"/>
        <pt x="669" y="491" on="0"/>
        <pt x="669" y="300" on="1"/>
        <pt x="669" y="242" on="0"/>
        <pt x="663" y="196" on="1"/>
        <pt x="434" y="196" on="1"/>
        <pt x="434" y="117" on="0"/>
        <pt x="503" y="117" on="1"/>
        <pt x="536" y="117" on="0"/>
        <pt x="632" y="140" on="1"/>
        <pt x="650" y="18" on="1"/>
        <pt x="559" y="-10" on="0"/>
        <pt x="398" y="-10" on="0"/>
        <pt x="355" y="33" on="1"/>
        <pt x="316" y="-10" on="0"/>
        <pt x="117" y="-10" on="0"/>
        <pt x="17" y="110" on="0"/>
        <pt x="17" y="373" on="0"/>
        <pt x="118" y="491" on="0"/>
        <pt x="226" y="491" on="1"/>
        <pt x="312" y="491" on="0"/>
      </contour>
      <contour>
        <pt x="251" y="356" on="0"/>
        <pt x="199" y="356" on="0"/>
        <pt x="185" y="316" on="0"/>
        <pt x="185" y="252" on="1"/>
        <pt x="185" y="228" on="1"/>
        <pt x="185" y="157" on="0"/>
        <pt x="199" y="115" on="0"/>
        <pt x="250" y="115" on="0"/>
        <pt x="264" y="157" on="0"/>
        <pt x="264" y="222" on="1"/>
        <pt x="264" y="251" on="1"/>
        <pt x="264" y="316" on="0"/>
      </contour>
      <contour>
        <pt x="473" y="350" on="1"/>
        <pt x="447" y="350" on="0"/>
        <pt x="431" y="315" on="0"/>
        <pt x="431" y="279" on="1"/>
        <pt x="518" y="279" on="1"/>
        <pt x="518" y="303" on="1"/>
        <pt x="518" y="350" on="0"/>
      </contour>
    </TTGlyph>
    <TTGlyph name="ogonek" xMin="176" yMin="-163" xMax="349" yMax="0">
      <contour>
        <pt x="176" y="-93" on="1"/>
        <pt x="176" y="-46" on="0"/>
        <pt x="232" y="0" on="1"/>
        <pt x="316" y="0" on="1"/>
        <pt x="273" y="-50" on="0"/>
        <pt x="273" y="-74" on="1"/>
        <pt x="273" y="-83" on="0"/>
        <pt x="298" y="-83" on="0"/>
        <pt x="317" y="-64" on="1"/>
        <pt x="349" y="-120" on="1"/>
        <pt x="304" y="-163" on="0"/>
        <pt x="251" y="-163" on="1"/>
        <pt x="218" y="-163" on="0"/>
        <pt x="176" y="-128" on="0"/>
      </contour>
    </TTGlyph>
    <TTGlyph name="ograve" xMin="24" yMin="-10" xMax="438" yMax="660">
      <contour>
        <pt x="24" y="373" on="0"/>
        <pt x="125" y="491" on="0"/>
        <pt x="340" y="491" on="0"/>
        <pt x="438" y="375" on="0"/>
        <pt x="438" y="110" on="0"/>
        <pt x="342" y="-10" on="0"/>
        <pt x="124" y="-10" on="0"/>
        <pt x="24" y="110" on="0"/>
      </contour>
      <contour>
        <pt x="258" y="356" on="0"/>
        <pt x="206" y="356" on="0"/>
        <pt x="192" y="316" on="0"/>
        <pt x="192" y="252" on="1"/>
        <pt x="192" y="228" on="1"/>
        <pt x="192" y="157" on="0"/>
        <pt x="206" y="115" on="0"/>
        <pt x="257" y="115" on="0"/>
        <pt x="271" y="157" on="0"/>
        <pt x="271" y="222" on="1"/>
        <pt x="271" y="251" on="1"/>
        <pt x="271" y="316" on="0"/>
      </contour>
      <contour>
        <pt x="206" y="520" on="1"/>
        <pt x="98" y="660" on="1"/>
        <pt x="256" y="660" on="1"/>
        <pt x="321" y="520" on="1"/>
      </contour>
    </TTGlyph>
    <TTGlyph name="one" xMin="18" yMin="0" xMax="257" yMax="621">
      <contour>
        <pt x="257" y="0" on="1"/>
        <pt x="90" y="0" on="1"/>
        <pt x="90" y="462" on="1"/>
        <pt x="18" y="462" on="1"/>
        <pt x="18" y="567" on="1"/>
        <pt x="120" y="621" on="1"/>
        <pt x="257" y="621" on="1"/>
      </contour>
    </TTGlyph>
    <TTGlyph name="onehalf" xMin="44" yMin="-10" xMax="732" yMax="631">
      <contour>
        <pt x="493" y="631" on="1"/>
        <pt x="313" y="-10" on="1"/>
        <pt x="196" y="-10" on="1"/>
        <pt x="375" y="631" on="1"/>
      </contour>
      <contour>
        <pt x="211" y="186" on="1"/>
        <pt x="94" y="186" on="1"/>
        <pt x="94" y="509" on="1"/>
        <pt x="44" y="509" on="1"/>
        <pt x="44" y="583" on="1"/>
        <pt x="115" y="621" on="1"/>
        <pt x="211" y="621" on="1"/>
      </contour>
      <contour>
        <pt x="458" y="405" on="1"/>
        <pt x="526" y="442" on="0"/>
        <pt x="660" y="442" on="0"/>
        <pt x="731" y="373" on="0"/>
        <pt x="731" y="309" on="1"/>
        <pt x="731" y="266" on="0"/>
        <pt x="703" y="193" on="0"/>
        <pt x="669" y="147" on="0"/>
        <pt x="628" y="100" on="1"/>
        <pt x="732" y="100" on="1"/>
        <pt x="732" y="0" on="1"/>
        <pt x="475" y="0" on="1"/>
        <pt x="469" y="71" on="1"/>
        <pt x="519" y="123" on="0"/>
        <pt x="569" y="181" on="0"/>
        <pt x="612" y="255" on="0"/>
        <pt x="612" y="279" on="1"/>
        <pt x="612" y="326" on="0"/>
        <pt x="572" y="326" on="1"/>
        <pt x="544" y="326" on="0"/>
        <pt x="480" y="297" on="1"/>
      </contour>
    </TTGlyph>
    <TTGlyph name="onequarter" xMin="44" yMin="-10" xMax="756" yMax="631">
      <contour>
        <pt x="493" y="631" on="1"/>
        <pt x="313" y="-10" on="1"/>
        <pt x="196" y="-10" on="1"/>
        <pt x="375" y="631" on="1"/>
      </contour>
      <contour>
        <pt x="751" y="85" on="1"/>
        <pt x="702" y="85" on="1"/>
        <pt x="702" y="0" on="1"/>
        <pt x="585" y="0" on="1"/>
        <pt x="585" y="85" on="1"/>
        <pt x="426" y="85" on="1"/>
        <pt x="414" y="168" on="1"/>
        <pt x="557" y="435" on="1"/>
        <pt x="702" y="435" on="1"/>
        <pt x="702" y="179" on="1"/>
        <pt x="756" y="179" on="1"/>
      </contour>
      <contour>
        <pt x="588" y="179" on="1"/>
        <pt x="588" y="286" on="1"/>
        <pt x="584" y="286" on="1"/>
        <pt x="527" y="179" on="1"/>
      </contour>
      <contour>
        <pt x="211" y="186" on="1"/>
        <pt x="94" y="186" on="1"/>
        <pt x="94" y="509" on="1"/>
        <pt x="44" y="509" on="1"/>
        <pt x="44" y="583" on="1"/>
        <pt x="115" y="621" on="1"/>
        <pt x="211" y="621" on="1"/>
      </contour>
    </TTGlyph>
    <TTGlyph name="onesuperior" xMin="44" yMin="186" xMax="211" yMax="621">
      <contour>
        <pt x="211" y="186" on="1"/>
        <pt x="94" y="186" on="1"/>
        <pt x="94" y="509" on="1"/>
        <pt x="44" y="509" on="1"/>
        <pt x="44" y="583" on="1"/>
        <pt x="115" y="621" on="1"/>
        <pt x="211" y="621" on="1"/>
      </contour>
    </TTGlyph>
    <TTGlyph name="ordfeminine" xMin="50" yMin="288" xMax="340" yMax="639">
      <contour>
        <pt x="314" y="543" on="1"/>
        <pt x="310" y="398" on="1"/>
        <pt x="310" y="385" on="0"/>
        <pt x="324" y="375" on="0"/>
        <pt x="340" y="375" on="1"/>
        <pt x="329" y="291" on="1"/>
        <pt x="299" y="288" on="0"/>
        <pt x="284" y="288" on="1"/>
        <pt x="232" y="288" on="0"/>
        <pt x="218" y="324" on="1"/>
        <pt x="215" y="324" on="1"/>
        <pt x="190" y="288" on="0"/>
        <pt x="142" y="288" on="1"/>
        <pt x="50" y="288" on="0"/>
        <pt x="50" y="387" on="1"/>
        <pt x="50" y="445" on="0"/>
        <pt x="122" y="490" on="0"/>
        <pt x="200" y="497" on="1"/>
        <pt x="200" y="514" on="1"/>
        <pt x="200" y="534" on="0"/>
        <pt x="180" y="534" on="1"/>
        <pt x="143" y="534" on="0"/>
        <pt x="75" y="513" on="1"/>
        <pt x="57" y="616" on="1"/>
        <pt x="151" y="639" on="0"/>
        <pt x="266" y="639" on="0"/>
        <pt x="314" y="593" on="0"/>
      </contour>
      <contour>
        <pt x="179" y="370" on="1"/>
        <pt x="204" y="370" on="0"/>
        <pt x="204" y="397" on="1"/>
        <pt x="204" y="431" on="1"/>
        <pt x="179" y="428" on="0"/>
        <pt x="157" y="413" on="0"/>
        <pt x="157" y="396" on="1"/>
        <pt x="157" y="370" on="0"/>
      </contour>
    </TTGlyph>
    <TTGlyph name="ordmasculine" xMin="48" yMin="288" xMax="338" yMax="639">
      <contour>
        <pt x="48" y="556" on="0"/>
        <pt x="119" y="639" on="0"/>
        <pt x="269" y="639" on="0"/>
        <pt x="338" y="558" on="0"/>
        <pt x="338" y="372" on="0"/>
        <pt x="271" y="288" on="0"/>
        <pt x="118" y="288" on="0"/>
        <pt x="48" y="372" on="0"/>
      </contour>
      <contour>
        <pt x="212" y="544" on="0"/>
        <pt x="176" y="544" on="0"/>
        <pt x="166" y="516" on="0"/>
        <pt x="166" y="471" on="1"/>
        <pt x="166" y="455" on="1"/>
        <pt x="166" y="405" on="0"/>
        <pt x="176" y="375" on="0"/>
        <pt x="212" y="375" on="0"/>
        <pt x="221" y="404" on="0"/>
        <pt x="221" y="450" on="1"/>
        <pt x="221" y="471" on="1"/>
        <pt x="221" y="516" on="0"/>
      </contour>
    </TTGlyph>
    <TTGlyph name="oslash" xMin="17" yMin="-71" xMax="431" yMax="550">
      <contour>
        <pt x="226" y="491" on="1"/>
        <pt x="248" y="491" on="0"/>
        <pt x="258" y="490" on="1"/>
        <pt x="282" y="550" on="1"/>
        <pt x="413" y="550" on="1"/>
        <pt x="371" y="444" on="1"/>
        <pt x="431" y="387" on="0"/>
        <pt x="431" y="110" on="0"/>
        <pt x="335" y="-10" on="0"/>
        <pt x="226" y="-10" on="1"/>
        <pt x="214" y="-10" on="0"/>
        <pt x="192" y="-8" on="1"/>
        <pt x="168" y="-71" on="1"/>
        <pt x="35" y="-71" on="1"/>
        <pt x="78" y="37" on="1"/>
        <pt x="17" y="95" on="0"/>
        <pt x="17" y="373" on="0"/>
        <pt x="118" y="491" on="0"/>
      </contour>
      <contour>
        <pt x="251" y="356" on="0"/>
        <pt x="199" y="356" on="0"/>
        <pt x="185" y="316" on="0"/>
        <pt x="185" y="252" on="1"/>
        <pt x="185" y="228" on="1"/>
        <pt x="185" y="157" on="0"/>
        <pt x="199" y="115" on="0"/>
        <pt x="250" y="115" on="0"/>
        <pt x="264" y="157" on="0"/>
        <pt x="264" y="222" on="1"/>
        <pt x="264" y="251" on="1"/>
        <pt x="264" y="316" on="0"/>
      </contour>
    </TTGlyph>
    <TTGlyph name="otilde" xMin="24" yMin="-10" xMax="438" yMax="660">
      <contour>
        <pt x="24" y="373" on="0"/>
        <pt x="125" y="491" on="0"/>
        <pt x="340" y="491" on="0"/>
        <pt x="438" y="375" on="0"/>
        <pt x="438" y="110" on="0"/>
        <pt x="342" y="-10" on="0"/>
        <pt x="124" y="-10" on="0"/>
        <pt x="24" y="110" on="0"/>
      </contour>
      <contour>
        <pt x="258" y="356" on="0"/>
        <pt x="206" y="356" on="0"/>
        <pt x="192" y="316" on="0"/>
        <pt x="192" y="252" on="1"/>
        <pt x="192" y="228" on="1"/>
        <pt x="192" y="157" on="0"/>
        <pt x="206" y="115" on="0"/>
        <pt x="257" y="115" on="0"/>
        <pt x="271" y="157" on="0"/>
        <pt x="271" y="222" on="1"/>
        <pt x="271" y="251" on="1"/>
        <pt x="271" y="316" on="0"/>
      </contour>
      <contour>
        <pt x="381" y="660" on="1"/>
        <pt x="381" y="652" on="1"/>
        <pt x="381" y="588" on="0"/>
        <pt x="345" y="522" on="0"/>
        <pt x="291" y="522" on="1"/>
        <pt x="255" y="522" on="0"/>
        <pt x="211" y="538" on="1"/>
        <pt x="187" y="546" on="1"/>
        <pt x="187" y="511" on="1"/>
        <pt x="78" y="511" on="1"/>
        <pt x="78" y="521" on="1"/>
        <pt x="78" y="586" on="0"/>
        <pt x="116" y="651" on="0"/>
        <pt x="164" y="651" on="1"/>
        <pt x="180" y="651" on="0"/>
        <pt x="253" y="632" on="1"/>
        <pt x="273" y="627" on="1"/>
        <pt x="273" y="660" on="1"/>
      </contour>
    </TTGlyph>
    <TTGlyph name="p" xMin="30" yMin="-137" xMax="442" yMax="490">
      <contour>
        <pt x="198" y="11" on="1"/>
        <pt x="198" y="-137" on="1"/>
        <pt x="30" y="-137" on="1"/>
        <pt x="30" y="479" on="1"/>
        <pt x="168" y="479" on="1"/>
        <pt x="178" y="449" on="1"/>
        <pt x="183" y="449" on="1"/>
        <pt x="211" y="490" on="0"/>
        <pt x="375" y="490" on="0"/>
        <pt x="442" y="376" on="0"/>
        <pt x="442" y="116" on="0"/>
        <pt x="371" y="-11" on="0"/>
        <pt x="276" y="-11" on="1"/>
        <pt x="232" y="-11" on="0"/>
        <pt x="202" y="11" on="1"/>
      </contour>
      <contour>
        <pt x="272" y="168" on="0"/>
        <pt x="274" y="202" on="0"/>
        <pt x="274" y="297" on="0"/>
        <pt x="260" y="348" on="0"/>
        <pt x="217" y="348" on="0"/>
        <pt x="196" y="336" on="1"/>
        <pt x="196" y="129" on="1"/>
        <pt x="215" y="120" on="0"/>
        <pt x="250" y="120" on="0"/>
        <pt x="265" y="133" on="0"/>
      </contour>
    </TTGlyph>
    <TTGlyph name="paragraph" xMin="20" yMin="-130" xMax="522" yMax="634">
      <contour>
        <pt x="522" y="-130" on="1"/>
        <pt x="381" y="-130" on="1"/>
        <pt x="381" y="515" on="1"/>
        <pt x="350" y="515" on="1"/>
        <pt x="350" y="-130" on="1"/>
        <pt x="208" y="-130" on="1"/>
        <pt x="208" y="193" on="1"/>
        <pt x="120" y="193" on="0"/>
        <pt x="20" y="304" on="0"/>
        <pt x="20" y="515" on="0"/>
        <pt x="138" y="634" on="0"/>
        <pt x="242" y="634" on="1"/>
        <pt x="522" y="634" on="1"/>
      </contour>
    </TTGlyph>
    <TTGlyph name="parenleft" xMin="24" yMin="-135" xMax="314" yMax="649">
      <contour>
        <pt x="190" y="649" on="1"/>
        <pt x="314" y="596" on="1"/>
        <pt x="211" y="440" on="0"/>
        <pt x="211" y="80" on="0"/>
        <pt x="314" y="-92" on="1"/>
        <pt x="186" y="-135" on="1"/>
        <pt x="106" y="-47" on="0"/>
        <pt x="24" y="129" on="0"/>
        <pt x="24" y="255" on="1"/>
        <pt x="24" y="491" on="0"/>
      </contour>
    </TTGlyph>
    <TTGlyph name="parenright" xMin="16" yMin="-135" xMax="306" yMax="649">
      <contour>
        <pt x="16" y="596" on="1"/>
        <pt x="140" y="649" on="1"/>
        <pt x="306" y="491" on="0"/>
        <pt x="306" y="255" on="1"/>
        <pt x="306" y="129" on="0"/>
        <pt x="224" y="-47" on="0"/>
        <pt x="144" y="-135" on="1"/>
        <pt x="16" y="-92" on="1"/>
        <pt x="119" y="80" on="0"/>
        <pt x="119" y="440" on="0"/>
      </contour>
    </TTGlyph>
    <TTGlyph name="partialdiff" xMin="20" yMin="-10" xMax="448" yMax="631">
      <contour>
        <pt x="181" y="400" on="1"/>
        <pt x="219" y="400" on="0"/>
        <pt x="255" y="394" on="1"/>
        <pt x="258" y="397" on="1"/>
        <pt x="204" y="480" on="0"/>
        <pt x="51" y="480" on="1"/>
        <pt x="51" y="631" on="1"/>
        <pt x="448" y="631" on="0"/>
        <pt x="448" y="265" on="1"/>
        <pt x="448" y="126" on="0"/>
        <pt x="342" y="-10" on="0"/>
        <pt x="226" y="-10" on="1"/>
        <pt x="20" y="-10" on="0"/>
        <pt x="20" y="208" on="1"/>
        <pt x="20" y="302" on="0"/>
        <pt x="107" y="400" on="0"/>
      </contour>
      <contour>
        <pt x="231" y="281" on="1"/>
        <pt x="206" y="281" on="0"/>
        <pt x="188" y="239" on="0"/>
        <pt x="188" y="158" on="0"/>
        <pt x="206" y="122" on="0"/>
        <pt x="257" y="122" on="0"/>
        <pt x="273" y="166" on="0"/>
        <pt x="273" y="208" on="1"/>
        <pt x="273" y="281" on="0"/>
      </contour>
    </TTGlyph>
    <TTGlyph name="percent" xMin="32" yMin="-10" xMax="779" yMax="631">
      <contour>
        <pt x="554" y="631" on="1"/>
        <pt x="374" y="-10" on="1"/>
        <pt x="257" y="-10" on="1"/>
        <pt x="436" y="631" on="1"/>
      </contour>
      <contour>
        <pt x="222" y="403" on="1"/>
        <pt x="222" y="414" on="1"/>
        <pt x="222" y="473" on="0"/>
        <pt x="214" y="514" on="0"/>
        <pt x="197" y="528" on="0"/>
        <pt x="169" y="528" on="0"/>
        <pt x="153" y="514" on="0"/>
        <pt x="150" y="496" on="1"/>
        <pt x="145" y="473" on="0"/>
        <pt x="145" y="414" on="1"/>
        <pt x="145" y="403" on="1"/>
        <pt x="145" y="336" on="0"/>
        <pt x="154" y="292" on="0"/>
        <pt x="170" y="279" on="0"/>
        <pt x="199" y="279" on="0"/>
        <pt x="214" y="292" on="0"/>
        <pt x="218" y="312" on="1"/>
        <pt x="222" y="337" on="0"/>
      </contour>
      <contour>
        <pt x="334" y="525" on="0"/>
        <pt x="334" y="289" on="0"/>
        <pt x="272" y="182" on="0"/>
        <pt x="95" y="182" on="0"/>
        <pt x="32" y="290" on="0"/>
        <pt x="32" y="524" on="0"/>
        <pt x="94" y="631" on="0"/>
        <pt x="272" y="631" on="0"/>
      </contour>
      <contour>
        <pt x="667" y="211" on="1"/>
        <pt x="667" y="222" on="1"/>
        <pt x="667" y="281" on="0"/>
        <pt x="659" y="322" on="0"/>
        <pt x="642" y="336" on="0"/>
        <pt x="614" y="336" on="0"/>
        <pt x="598" y="322" on="0"/>
        <pt x="594" y="304" on="1"/>
        <pt x="590" y="281" on="0"/>
        <pt x="590" y="222" on="1"/>
        <pt x="590" y="211" on="1"/>
        <pt x="590" y="144" on="0"/>
        <pt x="599" y="100" on="0"/>
        <pt x="615" y="87" on="0"/>
        <pt x="644" y="87" on="0"/>
        <pt x="659" y="100" on="0"/>
        <pt x="662" y="120" on="1"/>
        <pt x="667" y="145" on="0"/>
      </contour>
      <contour>
        <pt x="779" y="333" on="0"/>
        <pt x="779" y="97" on="0"/>
        <pt x="717" y="-10" on="0"/>
        <pt x="540" y="-10" on="0"/>
        <pt x="477" y="98" on="0"/>
        <pt x="477" y="332" on="0"/>
        <pt x="539" y="439" on="0"/>
        <pt x="717" y="439" on="0"/>
      </contour>
    </TTGlyph>
    <TTGlyph name="period" xMin="75" yMin="-11" xMax="251" yMax="147">
      <contour>
        <pt x="75" y="68" on="1"/>
        <pt x="75" y="108" on="0"/>
        <pt x="117" y="147" on="0"/>
        <pt x="209" y="147" on="0"/>
        <pt x="251" y="108" on="0"/>
        <pt x="251" y="66" on="1"/>
        <pt x="251" y="-11" on="0"/>
        <pt x="75" y="-11" on="0"/>
      </contour>
    </TTGlyph>
    <TTGlyph name="periodcentered" xMin="81" yMin="216" xMax="273" yMax="395">
      <contour>
        <pt x="273" y="216" on="0"/>
        <pt x="81" y="216" on="0"/>
        <pt x="81" y="395" on="0"/>
        <pt x="273" y="395" on="0"/>
      </contour>
    </TTGlyph>
    <TTGlyph name="perthousand" xMin="32" yMin="-10" xMax="1101" yMax="631">
      <contour>
        <pt x="554" y="631" on="1"/>
        <pt x="374" y="-10" on="1"/>
        <pt x="257" y="-10" on="1"/>
        <pt x="436" y="631" on="1"/>
      </contour>
      <contour>
        <pt x="222" y="403" on="1"/>
        <pt x="222" y="414" on="1"/>
        <pt x="222" y="473" on="0"/>
        <pt x="214" y="514" on="0"/>
        <pt x="197" y="528" on="0"/>
        <pt x="169" y="528" on="0"/>
        <pt x="153" y="514" on="0"/>
        <pt x="150" y="496" on="1"/>
        <pt x="145" y="473" on="0"/>
        <pt x="145" y="414" on="1"/>
        <pt x="145" y="403" on="1"/>
        <pt x="145" y="336" on="0"/>
        <pt x="154" y="292" on="0"/>
        <pt x="170" y="279" on="0"/>
        <pt x="199" y="279" on="0"/>
        <pt x="214" y="292" on="0"/>
        <pt x="218" y="312" on="1"/>
        <pt x="222" y="337" on="0"/>
      </contour>
      <contour>
        <pt x="334" y="525" on="0"/>
        <pt x="334" y="289" on="0"/>
        <pt x="272" y="182" on="0"/>
        <pt x="95" y="182" on="0"/>
        <pt x="32" y="290" on="0"/>
        <pt x="32" y="524" on="0"/>
        <pt x="94" y="631" on="0"/>
        <pt x="272" y="631" on="0"/>
      </contour>
      <contour>
        <pt x="667" y="211" on="1"/>
        <pt x="667" y="222" on="1"/>
        <pt x="667" y="281" on="0"/>
        <pt x="659" y="322" on="0"/>
        <pt x="642" y="336" on="0"/>
        <pt x="614" y="336" on="0"/>
        <pt x="598" y="322" on="0"/>
        <pt x="594" y="304" on="1"/>
        <pt x="590" y="281" on="0"/>
        <pt x="590" y="222" on="1"/>
        <pt x="590" y="211" on="1"/>
        <pt x="590" y="144" on="0"/>
        <pt x="599" y="100" on="0"/>
        <pt x="615" y="87" on="0"/>
        <pt x="644" y="87" on="0"/>
        <pt x="659" y="100" on="0"/>
        <pt x="662" y="120" on="1"/>
        <pt x="667" y="145" on="0"/>
      </contour>
      <contour>
        <pt x="779" y="333" on="0"/>
        <pt x="779" y="97" on="0"/>
        <pt x="717" y="-10" on="0"/>
        <pt x="540" y="-10" on="0"/>
        <pt x="477" y="98" on="0"/>
        <pt x="477" y="332" on="0"/>
        <pt x="539" y="439" on="0"/>
        <pt x="717" y="439" on="0"/>
      </contour>
      <contour>
        <pt x="989" y="211" on="1"/>
        <pt x="989" y="222" on="1"/>
        <pt x="989" y="281" on="0"/>
        <pt x="981" y="322" on="0"/>
        <pt x="964" y="336" on="0"/>
        <pt x="936" y="336" on="0"/>
        <pt x="920" y="322" on="0"/>
        <pt x="916" y="304" on="1"/>
        <pt x="912" y="281" on="0"/>
        <pt x="912" y="222" on="1"/>
        <pt x="912" y="211" on="1"/>
        <pt x="912" y="144" on="0"/>
        <pt x="921" y="100" on="0"/>
        <pt x="937" y="87" on="0"/>
        <pt x="966" y="87" on="0"/>
        <pt x="981" y="100" on="0"/>
        <pt x="984" y="120" on="1"/>
        <pt x="989" y="145" on="0"/>
      </contour>
      <contour>
        <pt x="1101" y="333" on="0"/>
        <pt x="1101" y="97" on="0"/>
        <pt x="1039" y="-10" on="0"/>
        <pt x="862" y="-10" on="0"/>
        <pt x="799" y="98" on="0"/>
        <pt x="799" y="332" on="0"/>
        <pt x="861" y="439" on="0"/>
        <pt x="1039" y="439" on="0"/>
      </contour>
    </TTGlyph>
    <TTGlyph name="pi" xMin="13" yMin="0" xMax="495" yMax="474">
      <contour>
        <pt x="457" y="0" on="1"/>
        <pt x="287" y="0" on="1"/>
        <pt x="287" y="337" on="1"/>
        <pt x="218" y="337" on="1"/>
        <pt x="218" y="0" on="1"/>
        <pt x="50" y="0" on="1"/>
        <pt x="50" y="337" on="1"/>
        <pt x="13" y="337" on="1"/>
        <pt x="13" y="474" on="1"/>
        <pt x="495" y="474" on="1"/>
        <pt x="495" y="337" on="1"/>
        <pt x="457" y="337" on="1"/>
      </contour>
    </TTGlyph>
</ttFont>
